<svg width="22" height="26" fill="none" xmlns="http://www.w3.org/2000/svg">
    <path d="M18.03 13.848c0-3.155 2.663-4.692 2.825-4.773-1.534-2.184-3.874-2.427-4.761-2.508C14.077 6.325 12.14 7.7 11.172 7.7c-1.05 0-2.582-1.133-4.277-1.133-2.178 0-4.195 1.214-5.325 3.155-2.26 3.883-.565 9.546 1.614 12.62 1.13 1.537 2.34 3.236 4.034 3.155 1.614-.08 2.26-1.051 4.277-1.051 1.936 0 2.501 1.051 4.276.97 1.775 0 2.905-1.537 3.954-3.074 1.29-1.78 1.775-3.478 1.775-3.56-.08.082-3.389-1.132-3.47-4.934Zm-3.227-9.303c.887-1.052 1.452-2.508 1.29-4.045-1.29.08-2.904.89-3.791 1.942-.807.89-1.534 2.426-1.372 3.883 1.452.08 2.985-.728 3.873-1.78Z" fill="#000"/>
</svg>
