<svg width="28" height="28" viewBox="0 0 28 28" fill="none" xmlns="http://www.w3.org/2000/svg">
<g clip-path="url(#clip0_3477_160)">
<path d="M7.69545 4.75646C8.85267 4.75646 9.79039 6.00798 9.79039 7.55183L9.79038 14.5397V25.7218C8.63316 25.7218 5.60023 26.4558 5.6001 22.956V7.55184C5.6001 6.008 6.53822 4.75646 7.69545 4.75646Z" stroke="black" stroke-width="1.66667" stroke-linecap="round" stroke-linejoin="round"/>
<path d="M10.5 8.95654L27.5 5.5" stroke="black" stroke-width="1.67" stroke-linecap="round" stroke-linejoin="round"/>
<path d="M10 12.9224L28 9.31104" stroke="black" stroke-width="1.67" stroke-linecap="round" stroke-linejoin="round"/>
<path d="M27.5 9.00005C27.5001 9.9999 27.5 6 27.5 6M22.9993 9.50017C22.9993 10.5 22.9993 6.50017 22.9993 6.50017M18.4987 10.5008C18.4987 11.5007 18.4987 7.50083 18.4987 7.50083M13.9998 11.4991C13.9998 12.499 13.9998 8.49912 13.9998 8.49912" stroke="black" stroke-width="1.67" stroke-linecap="round" stroke-linejoin="round"/>
</g>
<defs>
<clipPath id="clip0_3477_160">
<rect width="28" height="28" fill="white"/>
</clipPath>
</defs>
</svg>
