<svg width="28" height="28" viewBox="0 0 28 28" fill="none" xmlns="http://www.w3.org/2000/svg">
<path d="M21 9.33301C21 7.47649 20.2625 5.69601 18.9497 4.38326C17.637 3.07051 15.8565 2.33301 14 2.33301C12.1435 2.33301 10.363 3.07051 9.05025 4.38326C7.7375 5.69601 7 7.47649 7 9.33301C7 17.4997 3.5 19.833 3.5 19.833H24.5C24.5 19.833 21 17.4997 21 9.33301Z" stroke="black" stroke-width="2" stroke-linecap="round" stroke-linejoin="round"/>
<path d="M16.0191 24.5C15.814 24.8536 15.5196 25.1471 15.1654 25.3511C14.8111 25.5551 14.4095 25.6625 14.0008 25.6625C13.592 25.6625 13.1904 25.5551 12.8362 25.3511C12.4819 25.1471 12.1875 24.8536 11.9824 24.5" stroke="black" stroke-width="2" stroke-linecap="round" stroke-linejoin="round"/>
</svg>
