<svg width="17" height="17" viewBox="0 0 17 17" fill="none" xmlns="http://www.w3.org/2000/svg">
<path d="M8.09961 0.5C10.1151 0.5 12.0484 1.30055 13.4736 2.72559C14.8988 4.15077 15.7001 6.08411 15.7002 8.09961C15.7002 9.60275 15.254 11.0725 14.4189 12.3223C13.5839 13.5719 12.3973 14.5459 11.0088 15.1211C9.62007 15.6963 8.09144 15.847 6.61719 15.5537C5.143 15.2604 3.78842 14.5365 2.72559 13.4736C1.66302 12.4109 0.939747 11.0569 0.646484 9.58301C0.353237 8.10875 0.502899 6.58012 1.07812 5.19141C1.65335 3.80271 2.62813 2.61634 3.87793 1.78125C5.12763 0.946224 6.59661 0.500078 8.09961 0.5ZM11.0811 4.13672C10.7766 4.16508 10.4914 4.29927 10.2754 4.51562L10.248 4.54297L10.2246 4.57422L6.89258 9.14648L5.65527 8.4082C5.35606 8.22889 4.99784 8.1748 4.65918 8.25879C4.31953 8.34305 4.02729 8.55963 3.84668 8.85938C3.66625 9.15902 3.61214 9.51792 3.69629 9.85742C3.77001 10.1547 3.9442 10.4161 4.1875 10.5977L4.30176 10.6738L6.59668 12.0146L6.60254 12.0176C6.88271 12.1764 7.21131 12.2279 7.52637 12.1611C7.84141 12.0944 8.12081 11.9141 8.3125 11.6553L8.31641 11.6504L12.3047 6.11621L12.333 6.08105L12.374 6.03027L12.4004 5.97168C12.5242 5.69198 12.5465 5.37723 12.4629 5.08301C12.3793 4.78881 12.1947 4.53318 11.9424 4.36035C11.6901 4.18764 11.3854 4.10843 11.0811 4.13672Z" fill="#4A3AFF" stroke="#4A3AFF"/>
</svg>
