<svg width="50" height="50" viewBox="0 0 50 50" fill="none" xmlns="http://www.w3.org/2000/svg">
<path d="M37.5 16.6667H39.5833C41.7935 16.6667 43.9131 17.5447 45.4759 19.1075C47.0387 20.6703 47.9167 22.7899 47.9167 25.0001C47.9167 27.2102 47.0387 29.3298 45.4759 30.8926C43.9131 32.4554 41.7935 33.3334 39.5833 33.3334H37.5" stroke="#2C7EFF" stroke-width="3.5" stroke-linecap="round" stroke-linejoin="round"/>
<path d="M4.16663 16.6667H37.5V35.4167C37.5 37.6269 36.622 39.7465 35.0592 41.3093C33.4964 42.8721 31.3768 43.7501 29.1666 43.7501H12.5C10.2898 43.7501 8.17021 42.8721 6.6074 41.3093C5.0446 39.7465 4.16663 37.6269 4.16663 35.4167V16.6667Z" stroke="#2C7EFF" stroke-width="3.5" stroke-linecap="round" stroke-linejoin="round"/>
<path d="M12.5 2.08325V8.33325" stroke="#2C7EFF" stroke-width="3.5" stroke-linecap="round" stroke-linejoin="round"/>
<path d="M20.8334 2.08325V8.33325" stroke="#2C7EFF" stroke-width="3.5" stroke-linecap="round" stroke-linejoin="round"/>
<path d="M29.1666 2.08325V8.33325" stroke="#2C7EFF" stroke-width="3.5" stroke-linecap="round" stroke-linejoin="round"/>
</svg>
