<svg width="28" height="28" viewBox="0 0 28 28" fill="none" xmlns="http://www.w3.org/2000/svg">
<path d="M18 24C18.8837 24 21 22.6569 21 21V6C21 4.34315 20.2837 3 19.4 3H6.6C5.71634 3 5 4.34315 5 6V21" stroke="black" stroke-width="1.66667" stroke-linecap="round" stroke-linejoin="round"/>
<path d="M16.7 4.46667L6.3 3C5.58203 3 5 4.3133 5 5.93333V20.6C5 22.22 5.58203 23.5333 6.3 23.5333L16.7 25C17.418 25 18 23.5333 18 20.6V7.4C18 5.77996 17.418 4.46667 16.7 4.46667Z" stroke="black" stroke-width="1.66667" stroke-linecap="round" stroke-linejoin="round"/>
<path d="M14.5 15L15 15" stroke="black" stroke-width="1.66667" stroke-linecap="round" stroke-linejoin="round"/>
</svg>
