<svg width="18" height="18" fill="none" xmlns="http://www.w3.org/2000/svg">
    <path fill-rule="evenodd" clip-rule="evenodd" d="M16.5 7.792v2.833H15V7.792h1.5Zm-15-1.417c-.828 0-1.5.634-1.5 1.417v2.833c0 .782.672 1.417 1.5 1.417v2.125c0 1.173 1.007 2.125 2.25 2.125h.75c0 .39.336.708.75.708h1.5c.414 0 .75-.317.75-.708v-1.417c0-.391-.336-.708-.75-.708h-1.5c-.414 0-.75.317-.75.708h-.75c-.414 0-.75-.317-.75-.708v-2.125c.828 0 1.5-.635 1.5-1.417V7.792c0-.783-.672-1.417-1.5-1.417 0-2.738 2.35-4.958 5.25-4.958h1.5c2.9 0 5.25 2.22 5.25 4.958-.828 0-1.5.634-1.5 1.417v2.833c0 .782.672 1.417 1.5 1.417h1.5c.828 0 1.5-.635 1.5-1.417V7.792c0-.783-.672-1.417-1.5-1.417C16.5 2.855 13.478 0 9.75 0h-1.5C4.522 0 1.5 2.854 1.5 6.375ZM3 7.792v2.833H1.5V7.792H3Z" fill="#fff"/>
</svg>
