<svg width="25" height="26" viewBox="0 0 25 26" fill="none" xmlns="http://www.w3.org/2000/svg">
<path d="M6.83333 11.5L11.5 1C12.4283 1 13.3185 1.36875 13.9749 2.02513C14.6313 2.6815 15 3.57174 15 4.5V9.16667H21.6033C21.9416 9.16284 22.2766 9.23259 22.5852 9.37109C22.8938 9.50959 23.1685 9.71352 23.3905 9.96877C23.6125 10.224 23.7763 10.5245 23.8706 10.8493C23.9649 11.1741 23.9874 11.5156 23.9367 11.85L22.3267 22.35C22.2423 22.9064 21.9597 23.4135 21.5309 23.778C21.1021 24.1425 20.556 24.3397 19.9933 24.3333H6.83333M6.83333 11.5V24.3333M6.83333 11.5H3.33333C2.71449 11.5 2.121 11.7458 1.68342 12.1834C1.24583 12.621 1 13.2145 1 13.8333V22C1 22.6188 1.24583 23.2123 1.68342 23.6499C2.121 24.0875 2.71449 24.3333 3.33333 24.3333H6.83333" stroke="black" stroke-width="2" stroke-linecap="round" stroke-linejoin="round"/>
</svg>
