<svg width="60" height="60" viewBox="0 0 60 60" fill="none" xmlns="http://www.w3.org/2000/svg">
<rect width="60" height="60" rx="13" fill="#6E44D9"/>
<path d="M20.1965 27.3712V37.6556C20.1965 39.8992 22.0153 41.7179 24.2589 41.7179H35.6336C37.8772 41.7179 39.6959 39.8992 39.6959 37.6556V27.3712C39.6959 26.1655 39.1604 25.0222 38.2342 24.2504L32.0268 19.0775C30.8216 18.0731 29.0709 18.0731 27.8657 19.0775L21.6582 24.2504C20.732 25.0222 20.1965 26.1655 20.1965 27.3712Z" fill="white" stroke="white" stroke-width="2"/>
<path fill-rule="evenodd" clip-rule="evenodd" d="M24.9962 33.7837C25.3393 33.2936 26.0148 33.1744 26.5049 33.5174C28.571 34.9638 31.3211 34.9638 33.3872 33.5174C33.8774 33.1744 34.5528 33.2936 34.8959 33.7837C35.239 34.2738 35.1198 34.9493 34.6297 35.2924C31.8175 37.2609 28.0746 37.2609 25.2624 35.2924C24.7723 34.9493 24.6531 34.2738 24.9962 33.7837Z" fill="#6E44D9"/>
<path d="M0 26C0 13.7435 0 7.61522 3.80761 3.80761C7.61522 0 13.7435 0 26 0H34C46.2565 0 52.3848 0 56.1924 3.80761C60 7.61522 60 13.7435 60 26V34C60 46.2565 60 52.3848 56.1924 56.1924C52.3848 60 46.2565 60 34 60H26C13.7435 60 7.61522 60 3.80761 56.1924C0 52.3848 0 46.2565 0 34V26Z" fill="#0077FF"/>
<path d="M16 25.5354V40.9222C16 44.2789 18.6327 47 21.8804 47H38.3454C41.5931 47 44.2258 44.2789 44.2258 40.9222V25.5354C44.2258 23.7316 43.4506 22.021 42.11 20.8663L33.1245 13.127C31.38 11.6243 28.8458 11.6243 27.1013 13.127L18.1158 20.8663C16.7752 22.021 16 23.7316 16 25.5354Z" fill="#0077FF" stroke="white" stroke-width="2"/>
<path d="M31.8512 27.6232C31.6969 27.7805 31.6105 27.9921 31.6105 28.2125C31.6105 28.4329 31.6969 28.6444 31.8512 28.8018L33.1982 30.1488C33.3556 30.3031 33.5671 30.3895 33.7875 30.3895C34.0079 30.3895 34.2195 30.3031 34.3768 30.1488L37.5507 26.9749C37.9741 27.9104 38.1022 28.9527 37.9182 29.9629C37.7341 30.9731 37.2466 31.9032 36.5205 32.6293C35.7944 33.3553 34.8643 33.8429 33.8541 34.0269C32.844 34.211 31.8017 34.0828 30.8662 33.6595L25.0487 39.4769C24.7138 39.8118 24.2596 40 23.7859 40C23.3123 40 22.858 39.8118 22.5231 39.4769C22.1882 39.142 22 38.6877 22 38.2141C22 37.7404 22.1882 37.2862 22.5231 36.9513L28.3405 31.1338C27.9172 30.1983 27.789 29.156 27.9731 28.1459C28.1571 27.1357 28.6447 26.2056 29.3707 25.4795C30.0968 24.7534 31.0269 24.2659 32.0371 24.0818C33.0473 23.8978 34.0896 24.0259 35.0251 24.4493L31.8596 27.6148L31.8512 27.6232Z" stroke="white" stroke-width="2" stroke-linecap="round" stroke-linejoin="round"/>
</svg>
