<svg width="31" height="30" viewBox="0 0 31 30" fill="none" xmlns="http://www.w3.org/2000/svg">
<path d="M27.125 12.5C27.125 21.25 15.5 28.75 15.5 28.75C15.5 28.75 3.875 21.25 3.875 12.5C3.875 9.51631 5.09977 6.65483 7.27988 4.54505C9.45999 2.43526 12.4169 1.25 15.5 1.25C18.5831 1.25 21.54 2.43526 23.7201 4.54505C25.9002 6.65483 27.125 9.51631 27.125 12.5Z" stroke="black" stroke-width="2" stroke-linecap="round" stroke-linejoin="round"/>
<path d="M15.5 16.25C17.6401 16.25 19.375 14.5711 19.375 12.5C19.375 10.4289 17.6401 8.75 15.5 8.75C13.3599 8.75 11.625 10.4289 11.625 12.5C11.625 14.5711 13.3599 16.25 15.5 16.25Z" stroke="black" stroke-width="2" stroke-linecap="round" stroke-linejoin="round"/>
</svg>
