<svg width="26" height="26" viewBox="0 0 26 26" fill="none" xmlns="http://www.w3.org/2000/svg">
<path d="M13.9542 3.13803C13.9321 1.81341 15.1807 0.833699 16.462 1.17025L23.6232 3.05115C24.4789 3.27591 25.0853 4.03619 25.1141 4.92046L25.5112 17.1183C25.5547 18.4535 24.302 19.4552 23.009 19.119L15.6538 17.2067C14.7844 16.9806 14.1724 16.2026 14.1574 15.3044L13.9542 3.13803Z" fill="black"/>
<path d="M8.43663 6.06821C8.41451 4.74359 9.66308 3.76387 10.9444 4.10042L18.1056 5.98133C18.9614 6.20608 19.5677 6.96636 19.5965 7.85064L19.9937 20.0485C20.0371 21.3837 18.7844 22.3854 17.4914 22.0492L10.1363 20.1369C9.26683 19.9108 8.6548 19.1328 8.6398 18.2346L8.43663 6.06821Z" fill="#E7E7E7"/>
<path d="M7.25694 5.72543C7.23482 4.40081 8.48339 3.4211 9.76474 3.75765L16.926 5.63855C17.7817 5.86331 18.388 6.62359 18.4168 7.50786L18.814 19.7057C18.8574 21.0409 17.6047 22.0426 16.3118 21.7064L8.95657 19.7941C8.08715 19.568 7.47512 18.79 7.46012 17.8918L7.25694 5.72543Z" fill="black"/>
<path d="M1.62511 8.84555C1.60299 7.52093 2.85155 6.54122 4.1329 6.87777L11.2941 8.75867C12.1498 8.98343 12.7562 9.74371 12.785 10.628L13.1821 22.8258C13.2256 24.161 11.9729 25.1627 10.6799 24.8265L3.32473 22.9142C2.45531 22.6881 1.84328 21.9102 1.82828 21.0119L1.62511 8.84555Z" fill="#E7E7E7"/>
<path d="M0.445421 8.50327C0.4233 7.17864 1.67187 6.19893 2.95321 6.53548L10.1144 8.41639C10.9701 8.64114 11.5765 9.40142 11.6053 10.2857L12.0024 22.4835C12.0459 23.8188 10.7932 24.8204 9.50023 24.4843L2.14504 22.5719C1.27562 22.3459 0.663592 21.5679 0.648593 20.6697L0.445421 8.50327Z" fill="black"/>
</svg>
