<svg width="152" height="45" viewBox="0 0 152 45" fill="none" xmlns="http://www.w3.org/2000/svg">
<rect width="151.402" height="44.8598" rx="7.93272" fill="black"/>
<path d="M99.8161 22.1725V24.7603H98.2251V26.4573H99.8161V32.2235C99.8161 34.1924 100.69 34.98 102.888 34.98C103.274 34.98 103.642 34.9331 103.964 34.8769V33.1986C103.688 33.2267 103.513 33.2455 103.21 33.2455C102.226 33.2455 101.793 32.7767 101.793 31.7078V26.4573H103.964V24.7603H101.793V22.1725H99.8161Z" fill="white"/>
<path d="M109.563 35.1206C112.487 35.1206 114.281 33.1236 114.281 29.8139C114.281 26.5229 112.478 24.5165 109.563 24.5165C106.638 24.5165 104.836 26.5229 104.836 29.8139C104.836 33.1236 106.629 35.1206 109.563 35.1206ZM109.563 33.3298C107.843 33.3298 106.878 32.0453 106.878 29.8139C106.878 27.6012 107.843 26.3073 109.563 26.3073C111.273 26.3073 112.248 27.6012 112.248 29.8139C112.248 32.036 111.273 33.3298 109.563 33.3298Z" fill="white"/>
<path d="M115.815 34.9237H117.792V28.895C117.792 27.4605 118.85 26.4948 120.349 26.4948C120.698 26.4948 121.287 26.5604 121.453 26.6167V24.629C121.241 24.5728 120.864 24.5446 120.57 24.5446C119.264 24.5446 118.151 25.276 117.866 26.2792H117.719V24.7134H115.815V34.9237Z" fill="white"/>
<path d="M126.362 26.2323C127.824 26.2323 128.781 27.273 128.827 28.8763H123.769C123.879 27.2824 124.9 26.2323 126.362 26.2323ZM128.817 32.1672C128.45 32.9642 127.631 33.4048 126.436 33.4048C124.854 33.4048 123.833 32.2704 123.769 30.4796V30.3671H130.841V29.6639C130.841 26.4573 129.158 24.5165 126.371 24.5165C123.548 24.5165 121.755 26.5886 121.755 29.8514C121.755 33.1142 123.511 35.1206 126.38 35.1206C128.67 35.1206 130.27 33.9955 130.721 32.1672H128.817Z" fill="white"/>
<path d="M86.8497 31.1532C87.0022 33.6604 89.0515 35.2639 92.1017 35.2639C95.3616 35.2639 97.4015 33.5827 97.4015 30.9006C97.4015 28.7918 96.2386 27.6256 93.4171 26.9551L91.9016 26.5761C90.1096 26.1485 89.3851 25.5752 89.3851 24.5743C89.3851 23.3109 90.5099 22.4849 92.1971 22.4849C93.7984 22.4849 94.9041 23.2915 95.1043 24.584H97.1822C97.0583 22.2225 95.0185 20.5608 92.2256 20.5608C89.2231 20.5608 87.2214 22.2225 87.2214 24.72C87.2214 26.7802 88.3557 28.0046 90.8435 28.5974L92.6165 29.0347C94.437 29.472 95.2377 30.1134 95.2377 31.1824C95.2377 32.4263 93.9795 33.33 92.2638 33.33C90.4241 33.33 89.1468 32.4846 88.9657 31.1532H86.8497Z" fill="white"/>
<path d="M66.3674 24.5446C65.0064 24.5446 63.8292 25.2385 63.2222 26.4011H63.0751V24.7134H61.1714V38.3178H63.1487V33.3767H63.305C63.8292 34.4549 64.9604 35.0925 66.3858 35.0925C68.9149 35.0925 70.5242 33.0579 70.5242 29.8139C70.5242 26.5698 68.9149 24.5446 66.3674 24.5446ZM65.8065 33.283C64.1511 33.283 63.1119 31.9516 63.1119 29.8233C63.1119 27.6856 64.1511 26.3542 65.8156 26.3542C67.4894 26.3542 68.4918 27.6574 68.4918 29.8139C68.4918 31.9797 67.4894 33.283 65.8065 33.283Z" fill="white"/>
<path d="M77.4429 24.5446C76.0819 24.5446 74.9047 25.2385 74.2977 26.4011H74.1506V24.7134H72.2469V38.3178H74.2242V33.3767H74.3805C74.9047 34.4549 76.0359 35.0925 77.4613 35.0925C79.9904 35.0925 81.5998 33.0579 81.5998 29.8139C81.5998 26.5698 79.9904 24.5446 77.4429 24.5446ZM76.882 33.283C75.2266 33.283 74.1874 31.9516 74.1874 29.8233C74.1874 27.6856 75.2266 26.3542 76.8912 26.3542C78.5649 26.3542 79.5673 27.6574 79.5673 29.8139C79.5673 31.9797 78.5649 33.283 76.882 33.283Z" fill="white"/>
<path d="M57.6239 34.9237H59.8925L54.9264 20.9009H52.6292L47.6631 34.9237H49.8554L51.1232 31.2018H56.3657L57.6239 34.9237ZM53.6682 23.447H53.8302L55.8224 29.3749H51.6665L53.6682 23.447Z" fill="white"/>
<path d="M30.8834 21.8899C30.9109 19.7977 32.0538 17.818 33.8669 16.7221C32.7231 15.1162 30.8072 14.0979 28.814 14.0366C26.688 13.8172 24.6269 15.2873 23.5436 15.2873C22.4392 15.2873 20.7712 14.0584 18.975 14.0947C16.6338 14.1691 14.4512 15.4777 13.3121 17.4899C10.8636 21.6574 12.69 27.7823 15.0355 31.151C16.209 32.8005 17.5804 34.6431 19.375 34.5778C21.1311 34.5062 21.7869 33.477 23.9067 33.477C26.0067 33.477 26.6221 34.5778 28.453 34.5363C30.3374 34.5062 31.5246 32.8794 32.6569 31.2142C33.5001 30.0388 34.1489 28.7398 34.5793 27.3652C32.3649 26.4444 30.886 24.2536 30.8834 21.8899Z" fill="white"/>
<path d="M27.425 11.8212C28.4525 10.6087 28.9586 9.05018 28.8361 7.47668C27.2664 7.63876 25.8164 8.37627 24.7751 9.54227C23.7569 10.6815 23.227 12.2126 23.3271 13.7259C24.8974 13.7418 26.4411 13.0243 27.425 11.8212Z" fill="white"/>
<path d="M51.705 17.15C50.985 17.15 50.3717 16.9933 49.865 16.68C49.3583 16.3633 48.97 15.9233 48.7 15.36C48.4333 14.7967 48.3 14.1433 48.3 13.4C48.3 12.6567 48.4333 12.0033 48.7 11.44C48.97 10.8767 49.3583 10.4383 49.865 10.125C50.3717 9.80833 50.985 9.65 51.705 9.65C52.535 9.65 53.2217 9.86 53.765 10.28C54.3117 10.7 54.6917 11.265 54.905 11.975L53.845 12.26C53.705 11.7567 53.455 11.3617 53.095 11.075C52.7383 10.7883 52.275 10.645 51.705 10.645C51.195 10.645 50.77 10.76 50.43 10.99C50.09 11.22 49.8333 11.5417 49.66 11.955C49.49 12.3683 49.405 12.85 49.405 13.4C49.4017 13.95 49.485 14.4317 49.655 14.845C49.8283 15.2583 50.085 15.58 50.425 15.81C50.7683 16.04 51.195 16.155 51.705 16.155C52.275 16.155 52.7383 16.0117 53.095 15.725C53.455 15.435 53.705 15.04 53.845 14.54L54.905 14.825C54.6917 15.535 54.3117 16.1 53.765 16.52C53.2217 16.94 52.535 17.15 51.705 17.15ZM55.8997 17L55.9047 11.6H56.9647V14.2L59.0847 11.6H60.4147L58.1747 14.3L60.6447 17H59.2247L56.9647 14.4V17H55.8997ZM62.5738 17.15C62.1738 17.15 61.8388 17.0767 61.5688 16.93C61.2988 16.78 61.0938 16.5833 60.9538 16.34C60.8172 16.0933 60.7488 15.8233 60.7488 15.53C60.7488 15.2567 60.7972 15.0167 60.8938 14.81C60.9905 14.6033 61.1338 14.4283 61.3238 14.285C61.5138 14.1383 61.7472 14.02 62.0238 13.93C62.2638 13.86 62.5355 13.7983 62.8388 13.745C63.1422 13.6917 63.4605 13.6417 63.7938 13.595C64.1305 13.5483 64.4638 13.5017 64.7938 13.455L64.4138 13.665C64.4205 13.2417 64.3305 12.9283 64.1438 12.725C63.9605 12.5183 63.6438 12.415 63.1938 12.415C62.9105 12.415 62.6505 12.4817 62.4138 12.615C62.1772 12.745 62.0122 12.9617 61.9188 13.265L60.9438 12.965C61.0772 12.5017 61.3305 12.1333 61.7038 11.86C62.0805 11.5867 62.5805 11.45 63.2038 11.45C63.6872 11.45 64.1072 11.5333 64.4638 11.7C64.8238 11.8633 65.0872 12.1233 65.2538 12.48C65.3405 12.6567 65.3938 12.8433 65.4138 13.04C65.4338 13.2367 65.4438 13.4483 65.4438 13.675V17H64.5188V15.765L64.6988 15.925C64.4755 16.3383 64.1905 16.6467 63.8438 16.85C63.5005 17.05 63.0772 17.15 62.5738 17.15ZM62.7588 16.295C63.0555 16.295 63.3105 16.2433 63.5238 16.14C63.7372 16.0333 63.9088 15.8983 64.0388 15.735C64.1688 15.5717 64.2538 15.4017 64.2938 15.225C64.3505 15.065 64.3822 14.885 64.3888 14.685C64.3988 14.485 64.4038 14.325 64.4038 14.205L64.7438 14.33C64.4138 14.38 64.1138 14.425 63.8438 14.465C63.5738 14.505 63.3288 14.545 63.1088 14.585C62.8922 14.6217 62.6988 14.6667 62.5288 14.72C62.3855 14.77 62.2572 14.83 62.1438 14.9C62.0338 14.97 61.9455 15.055 61.8788 15.155C61.8155 15.255 61.7838 15.3767 61.7838 15.52C61.7838 15.66 61.8188 15.79 61.8888 15.91C61.9588 16.0267 62.0655 16.12 62.2088 16.19C62.3522 16.26 62.5355 16.295 62.7588 16.295ZM69.8372 17V15.12C69.6539 15.2133 69.4389 15.29 69.1922 15.35C68.9455 15.4067 68.6855 15.435 68.4122 15.435C67.8589 15.435 67.4139 15.3117 67.0772 15.065C66.7439 14.815 66.5272 14.455 66.4272 13.985C66.4005 13.845 66.3805 13.7017 66.3672 13.555C66.3539 13.405 66.3455 13.2683 66.3422 13.145C66.3422 13.0217 66.3422 12.93 66.3422 12.87V11.6H67.4022V12.87C67.4022 12.9567 67.4055 13.0717 67.4122 13.215C67.4189 13.355 67.4372 13.4917 67.4672 13.625C67.5305 13.925 67.6572 14.1483 67.8472 14.295C68.0372 14.4383 68.3055 14.51 68.6522 14.51C68.9022 14.51 69.1272 14.4783 69.3272 14.415C69.5305 14.3483 69.7005 14.2633 69.8372 14.16V11.6H70.8922V17H69.8372ZM73.7215 17.15C73.3215 17.15 72.9865 17.0767 72.7165 16.93C72.4465 16.78 72.2415 16.5833 72.1015 16.34C71.9648 16.0933 71.8965 15.8233 71.8965 15.53C71.8965 15.2567 71.9448 15.0167 72.0415 14.81C72.1382 14.6033 72.2815 14.4283 72.4715 14.285C72.6615 14.1383 72.8948 14.02 73.1715 13.93C73.4115 13.86 73.6832 13.7983 73.9865 13.745C74.2898 13.6917 74.6082 13.6417 74.9415 13.595C75.2782 13.5483 75.6115 13.5017 75.9415 13.455L75.5615 13.665C75.5682 13.2417 75.4782 12.9283 75.2915 12.725C75.1082 12.5183 74.7915 12.415 74.3415 12.415C74.0582 12.415 73.7982 12.4817 73.5615 12.615C73.3248 12.745 73.1598 12.9617 73.0665 13.265L72.0915 12.965C72.2248 12.5017 72.4782 12.1333 72.8515 11.86C73.2282 11.5867 73.7282 11.45 74.3515 11.45C74.8348 11.45 75.2548 11.5333 75.6115 11.7C75.9715 11.8633 76.2348 12.1233 76.4015 12.48C76.4882 12.6567 76.5415 12.8433 76.5615 13.04C76.5815 13.2367 76.5915 13.4483 76.5915 13.675V17H75.6665V15.765L75.8465 15.925C75.6232 16.3383 75.3382 16.6467 74.9915 16.85C74.6482 17.05 74.2248 17.15 73.7215 17.15ZM73.9065 16.295C74.2032 16.295 74.4582 16.2433 74.6715 16.14C74.8848 16.0333 75.0565 15.8983 75.1865 15.735C75.3165 15.5717 75.4015 15.4017 75.4415 15.225C75.4982 15.065 75.5298 14.885 75.5365 14.685C75.5465 14.485 75.5515 14.325 75.5515 14.205L75.8915 14.33C75.5615 14.38 75.2615 14.425 74.9915 14.465C74.7215 14.505 74.4765 14.545 74.2565 14.585C74.0398 14.6217 73.8465 14.6667 73.6765 14.72C73.5332 14.77 73.4048 14.83 73.2915 14.9C73.1815 14.97 73.0932 15.055 73.0265 15.155C72.9632 15.255 72.9315 15.3767 72.9315 15.52C72.9315 15.66 72.9665 15.79 73.0365 15.91C73.1065 16.0267 73.2132 16.12 73.3565 16.19C73.4998 16.26 73.6832 16.295 73.9065 16.295ZM79.1848 17V12.54H77.3398V11.6H82.0748V12.54H80.2298V17H79.1848ZM82.9192 17V11.6H83.9692V13.475H85.0342C85.1876 13.475 85.3509 13.4783 85.5242 13.485C85.7009 13.4917 85.8526 13.5083 85.9792 13.535C86.2692 13.595 86.5192 13.695 86.7292 13.835C86.9426 13.975 87.1076 14.1617 87.2242 14.395C87.3409 14.625 87.3992 14.9083 87.3992 15.245C87.3992 15.715 87.2759 16.09 87.0292 16.37C86.7859 16.6467 86.4559 16.8333 86.0392 16.93C85.9059 16.96 85.7476 16.98 85.5642 16.99C85.3842 16.9967 85.2192 17 85.0692 17H82.9192ZM83.9692 16.16H85.1292C85.2126 16.16 85.3076 16.1567 85.4142 16.15C85.5209 16.1433 85.6192 16.1283 85.7092 16.105C85.8692 16.0583 86.0126 15.9633 86.1392 15.82C86.2659 15.6767 86.3292 15.485 86.3292 15.245C86.3292 14.9983 86.2659 14.8017 86.1392 14.655C86.0159 14.5083 85.8592 14.4133 85.6692 14.37C85.5792 14.3467 85.4876 14.3317 85.3942 14.325C85.3009 14.3183 85.2126 14.315 85.1292 14.315H83.9692V16.16Z" fill="white"/>
</svg>
