<svg width="312" height="280" viewBox="0 0 312 280" fill="none" xmlns="http://www.w3.org/2000/svg">
<path d="M107.954 1.37095C117.689 27.0672 122.347 70.6727 112.534 90.1973C100.592 113.958 79.9147 135.214 47.6117 146.107C37.5154 149.512 8.97476 155.848 2.86449 135.664C-2.51226 117.902 7.59124 100.511 18.1569 89.319C37.2076 69.139 67.2393 53.95 101.436 45.1476C124.448 39.2243 161.307 32.4273 195.635 48.6466C240.014 69.615 233.454 108.088 229.616 126.907C220.417 172.017 196.452 215.043 160.621 247.261C145.104 261.214 117.565 279.947 83.1431 278.046C55.4289 276.515 57.8189 254.007 60.488 246.773C72.4555 214.34 105.536 187.833 140.39 169.007C172.123 151.866 256.256 138.395 309.925 145.287" stroke="#FF8C5D" stroke-width="2.74131" stroke-linecap="round"/>
</svg>
