<svg width="152" height="45" viewBox="0 0 152 45" fill="none" xmlns="http://www.w3.org/2000/svg">
<rect width="151.402" height="44.8598" rx="5.55291" fill="black"/>
<path d="M76.26 23.8545C73.6153 23.8545 71.4597 25.818 71.4597 28.5224C71.4597 31.2104 73.6153 33.1904 76.26 33.1904C78.9059 33.1904 81.0615 31.2104 81.0615 28.5224C81.0603 25.818 78.9048 23.8545 76.26 23.8545ZM76.26 31.3531C74.8106 31.3531 73.5613 30.1864 73.5613 28.5235C73.5613 26.8432 74.8117 25.694 76.26 25.694C77.7095 25.694 78.9587 26.8432 78.9587 28.5235C78.9587 30.1853 77.7095 31.3531 76.26 31.3531ZM65.7868 23.8545C63.1421 23.8545 60.9865 25.818 60.9865 28.5224C60.9865 31.2104 63.1421 33.1904 65.7868 33.1904C68.4327 33.1904 70.5883 31.2104 70.5883 28.5224C70.5883 25.818 68.4327 23.8545 65.7868 23.8545ZM65.7868 31.3531C64.3374 31.3531 63.0881 30.1864 63.0881 28.5235C63.0881 26.8432 64.3385 25.694 65.7868 25.694C67.2362 25.694 68.4855 26.8432 68.4855 28.5235C68.4866 30.1853 67.2362 31.3531 65.7868 31.3531ZM53.3301 25.2879V27.2679H58.1855C58.0404 28.382 57.6604 29.1953 57.0801 29.7605C56.374 30.4498 55.2686 31.2104 53.3301 31.2104C50.3413 31.2104 48.0046 28.8583 48.0046 25.941C48.0046 23.0236 50.3413 20.6715 53.3301 20.6715C54.9425 20.6715 56.1198 21.2906 56.9891 22.0863L58.4205 20.6891C57.2061 19.5575 55.5947 18.6915 53.3301 18.6915C49.2359 18.6915 45.7939 21.9447 45.7939 25.941C45.7939 29.9372 49.2359 33.1904 53.3301 33.1904C55.5396 33.1904 57.2072 32.4825 58.5104 31.1566C59.8508 29.8483 60.268 28.0088 60.268 26.5238C60.268 26.065 60.232 25.6402 60.1589 25.2868H53.3301V25.2879ZM104.277 26.8256C103.879 25.7829 102.665 23.8545 100.183 23.8545C97.7192 23.8545 95.6716 25.7467 95.6716 28.5224C95.6716 31.1391 97.7012 33.1904 100.418 33.1904C102.609 33.1904 103.878 31.8821 104.404 31.1215L102.774 30.0601C102.231 30.8383 101.487 31.3509 100.418 31.3509C99.3497 31.3509 98.5884 30.8734 98.0993 29.9361L104.494 27.3546L104.277 26.8256ZM97.7552 28.382C97.7012 26.5776 99.1866 25.6589 100.256 25.6589C101.089 25.6589 101.795 26.0661 102.031 26.6489L97.7552 28.382ZM92.5568 32.9083H94.6573V19.1876H92.5568V32.9083ZM89.1137 24.8983H89.0417C88.5706 24.3495 87.6643 23.8545 86.5241 23.8545C84.1324 23.8545 81.9408 25.9058 81.9408 28.5411C81.9408 31.1577 84.1324 33.1915 86.5241 33.1915C87.6654 33.1915 88.5706 32.6965 89.0417 32.1313H89.1137V32.803C89.1137 34.5887 88.1354 35.5436 86.5601 35.5436C85.2737 35.5436 84.4764 34.6425 84.1504 33.8819L82.3209 34.6249C82.846 35.8619 84.2403 37.3831 86.5601 37.3831C89.0238 37.3831 91.1074 35.9684 91.1074 32.5198V24.1388H89.1148V24.8983H89.1137ZM86.7051 31.3531C85.2557 31.3531 84.0424 30.1677 84.0424 28.5411C84.0424 26.8959 85.2557 25.694 86.7051 25.694C88.1354 25.694 89.2588 26.8959 89.2588 28.5411C89.2588 30.1677 88.1354 31.3531 86.7051 31.3531ZM114.121 19.1876H109.093V32.9083H111.19V27.7102H114.119C116.445 27.7102 118.732 26.0672 118.732 23.4495C118.732 20.8318 116.446 19.1876 114.121 19.1876ZM114.175 25.8005H111.19V21.0974H114.175C115.743 21.0974 116.634 22.3651 116.634 23.4495C116.634 24.5119 115.743 25.8005 114.175 25.8005ZM127.142 23.8303C125.623 23.8303 124.05 24.4834 123.398 25.9311L125.261 26.6895C125.659 25.9311 126.401 25.683 127.178 25.683C128.263 25.683 129.366 26.3185 129.384 27.4479V27.5895C129.004 27.3777 128.19 27.0605 127.196 27.0605C125.189 27.0605 123.144 28.1372 123.144 30.149C123.144 31.9853 124.791 33.1674 126.635 33.1674C128.045 33.1674 128.823 32.5494 129.311 31.825H129.383V32.8842H131.409V27.6235C131.41 25.1891 129.546 23.8303 127.142 23.8303ZM126.888 31.3498C126.202 31.3498 125.243 31.0139 125.243 30.1842C125.243 29.125 126.437 28.7189 127.468 28.7189C128.389 28.7189 128.824 28.9132 129.384 29.1777C129.221 30.4498 128.1 31.3498 126.888 31.3498ZM138.788 24.13L136.383 30.0788H136.311L133.814 24.13H131.554L135.297 32.4441L133.163 37.0692H135.351L141.121 24.13H138.788ZM119.89 32.9083H121.987V19.1876H119.89V32.9083Z" fill="white"/>
<g filter="url(#filter0_ii_3325_8085)">
<path d="M11.717 7.55832C11.4014 7.90276 11.2148 8.43732 11.2148 9.12956V33.8623C11.2148 34.5557 11.4014 35.0891 11.717 35.4336L11.7972 35.5141L25.2335 21.6592V21.4959V21.3327L11.7972 7.47668L11.717 7.55832Z" fill="url(#paint0_linear_3325_8085)"/>
<path d="M30.1691 26.1683L25.2334 21.6544V21.4949V21.3353L30.1703 16.8225L30.2815 16.8804L36.1305 19.9181C37.8004 20.7857 37.8004 22.2051 36.1305 23.0738L30.2815 26.1115L30.1691 26.1683Z" fill="url(#paint1_linear_3325_8085)"/>
<g filter="url(#filter1_i_3325_8085)">
<path d="M30.841 27.0343L26.1093 22.4299L12.1494 36.0151C12.6647 36.5471 13.5172 36.6125 14.4772 36.0827L30.841 27.0343Z" fill="url(#paint2_linear_3325_8085)"/>
</g>
<path d="M30.841 16.8901L14.4772 7.84301C13.5172 7.31218 12.6647 7.37867 12.1494 7.91059L26.1104 21.4954L30.841 16.8901Z" fill="url(#paint3_linear_3325_8085)"/>
</g>
<path d="M49.705 15.15C48.985 15.15 48.3717 14.9933 47.865 14.68C47.3583 14.3633 46.97 13.9233 46.7 13.36C46.4333 12.7967 46.3 12.1433 46.3 11.4C46.3 10.6567 46.4333 10.0033 46.7 9.44C46.97 8.87667 47.3583 8.43833 47.865 8.125C48.3717 7.80833 48.985 7.65 49.705 7.65C50.535 7.65 51.2217 7.86 51.765 8.28C52.3117 8.7 52.6917 9.265 52.905 9.975L51.845 10.26C51.705 9.75667 51.455 9.36167 51.095 9.075C50.7383 8.78833 50.275 8.645 49.705 8.645C49.195 8.645 48.77 8.76 48.43 8.99C48.09 9.22 47.8333 9.54167 47.66 9.955C47.49 10.3683 47.405 10.85 47.405 11.4C47.4017 11.95 47.485 12.4317 47.655 12.845C47.8283 13.2583 48.085 13.58 48.425 13.81C48.7683 14.04 49.195 14.155 49.705 14.155C50.275 14.155 50.7383 14.0117 51.095 13.725C51.455 13.435 51.705 13.04 51.845 12.54L52.905 12.825C52.6917 13.535 52.3117 14.1 51.765 14.52C51.2217 14.94 50.535 15.15 49.705 15.15ZM53.8997 15L53.9047 9.6H54.9647V12.2L57.0847 9.6H58.4147L56.1747 12.3L58.6447 15H57.2247L54.9647 12.4V15H53.8997ZM60.5738 15.15C60.1738 15.15 59.8388 15.0767 59.5688 14.93C59.2988 14.78 59.0938 14.5833 58.9538 14.34C58.8172 14.0933 58.7488 13.8233 58.7488 13.53C58.7488 13.2567 58.7972 13.0167 58.8938 12.81C58.9905 12.6033 59.1338 12.4283 59.3238 12.285C59.5138 12.1383 59.7472 12.02 60.0238 11.93C60.2638 11.86 60.5355 11.7983 60.8388 11.745C61.1422 11.6917 61.4605 11.6417 61.7938 11.595C62.1305 11.5483 62.4638 11.5017 62.7938 11.455L62.4138 11.665C62.4205 11.2417 62.3305 10.9283 62.1438 10.725C61.9605 10.5183 61.6438 10.415 61.1938 10.415C60.9105 10.415 60.6505 10.4817 60.4138 10.615C60.1772 10.745 60.0122 10.9617 59.9188 11.265L58.9438 10.965C59.0772 10.5017 59.3305 10.1333 59.7038 9.86C60.0805 9.58667 60.5805 9.45 61.2038 9.45C61.6872 9.45 62.1072 9.53333 62.4638 9.7C62.8238 9.86333 63.0872 10.1233 63.2538 10.48C63.3405 10.6567 63.3938 10.8433 63.4138 11.04C63.4338 11.2367 63.4438 11.4483 63.4438 11.675V15H62.5188V13.765L62.6988 13.925C62.4755 14.3383 62.1905 14.6467 61.8438 14.85C61.5005 15.05 61.0772 15.15 60.5738 15.15ZM60.7588 14.295C61.0555 14.295 61.3105 14.2433 61.5238 14.14C61.7372 14.0333 61.9088 13.8983 62.0388 13.735C62.1688 13.5717 62.2538 13.4017 62.2938 13.225C62.3505 13.065 62.3822 12.885 62.3888 12.685C62.3988 12.485 62.4038 12.325 62.4038 12.205L62.7438 12.33C62.4138 12.38 62.1138 12.425 61.8438 12.465C61.5738 12.505 61.3288 12.545 61.1088 12.585C60.8922 12.6217 60.6988 12.6667 60.5288 12.72C60.3855 12.77 60.2572 12.83 60.1438 12.9C60.0338 12.97 59.9455 13.055 59.8788 13.155C59.8155 13.255 59.7838 13.3767 59.7838 13.52C59.7838 13.66 59.8188 13.79 59.8888 13.91C59.9588 14.0267 60.0655 14.12 60.2088 14.19C60.3522 14.26 60.5355 14.295 60.7588 14.295ZM67.8372 15V13.12C67.6539 13.2133 67.4389 13.29 67.1922 13.35C66.9455 13.4067 66.6855 13.435 66.4122 13.435C65.8589 13.435 65.4139 13.3117 65.0772 13.065C64.7439 12.815 64.5272 12.455 64.4272 11.985C64.4005 11.845 64.3805 11.7017 64.3672 11.555C64.3539 11.405 64.3455 11.2683 64.3422 11.145C64.3422 11.0217 64.3422 10.93 64.3422 10.87V9.6H65.4022V10.87C65.4022 10.9567 65.4055 11.0717 65.4122 11.215C65.4189 11.355 65.4372 11.4917 65.4672 11.625C65.5305 11.925 65.6572 12.1483 65.8472 12.295C66.0372 12.4383 66.3055 12.51 66.6522 12.51C66.9022 12.51 67.1272 12.4783 67.3272 12.415C67.5305 12.3483 67.7005 12.2633 67.8372 12.16V9.6H68.8922V15H67.8372ZM71.7215 15.15C71.3215 15.15 70.9865 15.0767 70.7165 14.93C70.4465 14.78 70.2415 14.5833 70.1015 14.34C69.9648 14.0933 69.8965 13.8233 69.8965 13.53C69.8965 13.2567 69.9448 13.0167 70.0415 12.81C70.1382 12.6033 70.2815 12.4283 70.4715 12.285C70.6615 12.1383 70.8948 12.02 71.1715 11.93C71.4115 11.86 71.6832 11.7983 71.9865 11.745C72.2898 11.6917 72.6082 11.6417 72.9415 11.595C73.2782 11.5483 73.6115 11.5017 73.9415 11.455L73.5615 11.665C73.5682 11.2417 73.4782 10.9283 73.2915 10.725C73.1082 10.5183 72.7915 10.415 72.3415 10.415C72.0582 10.415 71.7982 10.4817 71.5615 10.615C71.3248 10.745 71.1598 10.9617 71.0665 11.265L70.0915 10.965C70.2248 10.5017 70.4782 10.1333 70.8515 9.86C71.2282 9.58667 71.7282 9.45 72.3515 9.45C72.8348 9.45 73.2548 9.53333 73.6115 9.7C73.9715 9.86333 74.2348 10.1233 74.4015 10.48C74.4882 10.6567 74.5415 10.8433 74.5615 11.04C74.5815 11.2367 74.5915 11.4483 74.5915 11.675V15H73.6665V13.765L73.8465 13.925C73.6232 14.3383 73.3382 14.6467 72.9915 14.85C72.6482 15.05 72.2248 15.15 71.7215 15.15ZM71.9065 14.295C72.2032 14.295 72.4582 14.2433 72.6715 14.14C72.8848 14.0333 73.0565 13.8983 73.1865 13.735C73.3165 13.5717 73.4015 13.4017 73.4415 13.225C73.4982 13.065 73.5298 12.885 73.5365 12.685C73.5465 12.485 73.5515 12.325 73.5515 12.205L73.8915 12.33C73.5615 12.38 73.2615 12.425 72.9915 12.465C72.7215 12.505 72.4765 12.545 72.2565 12.585C72.0398 12.6217 71.8465 12.6667 71.6765 12.72C71.5332 12.77 71.4048 12.83 71.2915 12.9C71.1815 12.97 71.0932 13.055 71.0265 13.155C70.9632 13.255 70.9315 13.3767 70.9315 13.52C70.9315 13.66 70.9665 13.79 71.0365 13.91C71.1065 14.0267 71.2132 14.12 71.3565 14.19C71.4998 14.26 71.6832 14.295 71.9065 14.295ZM77.1848 15V10.54H75.3398V9.6H80.0748V10.54H78.2298V15H77.1848ZM80.9192 15V9.6H81.9692V11.475H83.0342C83.1876 11.475 83.3509 11.4783 83.5242 11.485C83.7009 11.4917 83.8526 11.5083 83.9792 11.535C84.2692 11.595 84.5192 11.695 84.7292 11.835C84.9426 11.975 85.1076 12.1617 85.2242 12.395C85.3409 12.625 85.3992 12.9083 85.3992 13.245C85.3992 13.715 85.2759 14.09 85.0292 14.37C84.7859 14.6467 84.4559 14.8333 84.0392 14.93C83.9059 14.96 83.7476 14.98 83.5642 14.99C83.3842 14.9967 83.2192 15 83.0692 15H80.9192ZM81.9692 14.16H83.1292C83.2126 14.16 83.3076 14.1567 83.4142 14.15C83.5209 14.1433 83.6192 14.1283 83.7092 14.105C83.8692 14.0583 84.0126 13.9633 84.1392 13.82C84.2659 13.6767 84.3292 13.485 84.3292 13.245C84.3292 12.9983 84.2659 12.8017 84.1392 12.655C84.0159 12.5083 83.8592 12.4133 83.6692 12.37C83.5792 12.3467 83.4876 12.3317 83.3942 12.325C83.3009 12.3183 83.2126 12.315 83.1292 12.315H81.9692V14.16Z" fill="white"/>
<defs>
<filter id="filter0_ii_3325_8085" x="11.2148" y="7.47668" width="26.168" height="28.972" filterUnits="userSpaceOnUse" color-interpolation-filters="sRGB">
<feFlood flood-opacity="0" result="BackgroundImageFix"/>
<feBlend mode="normal" in="SourceGraphic" in2="BackgroundImageFix" result="shape"/>
<feColorMatrix in="SourceAlpha" type="matrix" values="0 0 0 0 0 0 0 0 0 0 0 0 0 0 0 0 0 0 127 0" result="hardAlpha"/>
<feOffset dy="-0.167833"/>
<feComposite in2="hardAlpha" operator="arithmetic" k2="-1" k3="1"/>
<feColorMatrix type="matrix" values="0 0 0 0 0 0 0 0 0 0 0 0 0 0 0 0 0 0 0.12 0"/>
<feBlend mode="normal" in2="shape" result="effect1_innerShadow_3325_8085"/>
<feColorMatrix in="SourceAlpha" type="matrix" values="0 0 0 0 0 0 0 0 0 0 0 0 0 0 0 0 0 0 127 0" result="hardAlpha"/>
<feOffset dy="0.167833"/>
<feComposite in2="hardAlpha" operator="arithmetic" k2="-1" k3="1"/>
<feColorMatrix type="matrix" values="0 0 0 0 1 0 0 0 0 1 0 0 0 0 1 0 0 0 0.25 0"/>
<feBlend mode="normal" in2="effect1_innerShadow_3325_8085" result="effect2_innerShadow_3325_8085"/>
</filter>
<filter id="filter1_i_3325_8085" x="12.1494" y="22.4299" width="18.6914" height="14.0188" filterUnits="userSpaceOnUse" color-interpolation-filters="sRGB">
<feFlood flood-opacity="0" result="BackgroundImageFix"/>
<feBlend mode="normal" in="SourceGraphic" in2="BackgroundImageFix" result="shape"/>
<feColorMatrix in="SourceAlpha" type="matrix" values="0 0 0 0 0 0 0 0 0 0 0 0 0 0 0 0 0 0 127 0" result="hardAlpha"/>
<feOffset dy="-0.167833"/>
<feComposite in2="hardAlpha" operator="arithmetic" k2="-1" k3="1"/>
<feColorMatrix type="matrix" values="0 0 0 0 0 0 0 0 0 0 0 0 0 0 0 0 0 0 0.08 0"/>
<feBlend mode="normal" in2="shape" result="effect1_innerShadow_3325_8085"/>
</filter>
<linearGradient id="paint0_linear_3325_8085" x1="24.0425" y1="8.86787" x2="5.28369" y2="27.06" gradientUnits="userSpaceOnUse">
<stop stop-color="#00A0FF"/>
<stop offset="0.0066" stop-color="#00A1FF"/>
<stop offset="0.2601" stop-color="#00BEFF"/>
<stop offset="0.5122" stop-color="#00D2FF"/>
<stop offset="0.7604" stop-color="#00DFFF"/>
<stop offset="1" stop-color="#00E3FF"/>
</linearGradient>
<linearGradient id="paint1_linear_3325_8085" x1="38.3043" y1="21.4949" x2="9.381" y2="21.4949" gradientUnits="userSpaceOnUse">
<stop stop-color="#FFE000"/>
<stop offset="0.4087" stop-color="#FFBD00"/>
<stop offset="0.7754" stop-color="#FFA500"/>
<stop offset="1" stop-color="#FF9C00"/>
</linearGradient>
<linearGradient id="paint2_linear_3325_8085" x1="28.2714" y1="24.9304" x2="3.47288" y2="50.4149" gradientUnits="userSpaceOnUse">
<stop stop-color="#FF3A44"/>
<stop offset="1" stop-color="#C31162"/>
</linearGradient>
<linearGradient id="paint3_linear_3325_8085" x1="8.63357" y1="-0.114275" x2="19.7064" y2="11.2652" gradientUnits="userSpaceOnUse">
<stop stop-color="#32A071"/>
<stop offset="0.0685" stop-color="#2DA771"/>
<stop offset="0.4762" stop-color="#15CF74"/>
<stop offset="0.8009" stop-color="#06E775"/>
<stop offset="1" stop-color="#00F076"/>
</linearGradient>
</defs>
</svg>
