<svg width="236" height="36" viewBox="0 0 236 36" fill="none" xmlns="http://www.w3.org/2000/svg">
<path d="M2.0075 26V7.28H5.5435V15.912L12.6675 7.28H16.9835L9.1575 16.51L17.4775 26H13.0055L5.5435 17.472V26H2.0075ZM17.9985 26L23.7185 7.28H28.9965L34.7165 26H31.0765L25.9805 9.49H26.6565L21.6385 26H17.9985ZM21.4305 22.1V18.798H31.3105V22.1H21.4305ZM37.0466 26V7.28H40.5826V15.912L47.7066 7.28H52.0226L44.1966 16.51L52.5166 26H48.0446L40.5826 17.472V26H37.0466ZM57.9948 29.12V22.698C58.5582 22.698 59.0348 22.5593 59.4248 22.282C59.8235 21.996 60.1485 21.5973 60.3998 21.086C60.6512 20.566 60.8505 19.9593 60.9978 19.266C61.1452 18.5727 61.2535 17.8187 61.3228 17.004C61.4095 15.964 61.4875 14.9413 61.5568 13.936C61.6262 12.922 61.6955 11.8733 61.7648 10.79C61.8342 9.698 61.9122 8.51933 61.9988 7.254L74.4268 7.28V22.698H75.8568V29.12H72.3208V26H61.5308V29.12H57.9948ZM63.2728 22.698H70.8908V10.582L65.2228 10.556C65.1622 11.414 65.1102 12.2027 65.0668 12.922C65.0322 13.6413 64.9888 14.3693 64.9368 15.106C64.8848 15.8427 64.8155 16.666 64.7288 17.576C64.6422 18.486 64.5555 19.2357 64.4688 19.825C64.3822 20.4057 64.2478 20.9127 64.0658 21.346C63.8925 21.7793 63.6282 22.23 63.2728 22.698ZM86.7466 26.39C84.8746 26.39 83.2582 25.9827 81.8976 25.168C80.5456 24.3533 79.5012 23.2137 78.7646 21.749C78.0366 20.2843 77.6726 18.5813 77.6726 16.64C77.6726 14.6987 78.0366 12.9957 78.7646 11.531C79.5012 10.0663 80.5456 8.92667 81.8976 8.112C83.2582 7.29733 84.8746 6.89 86.7466 6.89C88.6186 6.89 90.2306 7.29733 91.5826 8.112C92.9432 8.92667 93.9876 10.0663 94.7156 11.531C95.4522 12.9957 95.8206 14.6987 95.8206 16.64C95.8206 18.5813 95.4522 20.2843 94.7156 21.749C93.9876 23.2137 92.9432 24.3533 91.5826 25.168C90.2306 25.9827 88.6186 26.39 86.7466 26.39ZM86.7466 23.062C87.9339 23.0793 88.9219 22.8237 89.7106 22.295C90.4992 21.7663 91.0886 21.0167 91.4786 20.046C91.8772 19.0753 92.0766 17.94 92.0766 16.64C92.0766 15.34 91.8772 14.2133 91.4786 13.26C91.0886 12.3067 90.4992 11.5657 89.7106 11.037C88.9219 10.5083 87.9339 10.2353 86.7466 10.218C85.5592 10.2007 84.5712 10.4563 83.7826 10.985C82.9939 11.5137 82.4002 12.2633 82.0016 13.234C81.6116 14.2047 81.4166 15.34 81.4166 16.64C81.4166 17.94 81.6116 19.0667 82.0016 20.02C82.4002 20.9733 82.9939 21.7143 83.7826 22.243C84.5712 22.7717 85.5592 23.0447 86.7466 23.062ZM98.4157 26V7.28H101.588L107.776 19.708L113.964 7.28H117.136V26H113.834V14.82L108.4 26H107.152L101.718 14.82V26H98.4157ZM119.485 26L125.205 7.28H130.483L136.203 26H132.563L127.467 9.49H128.143L123.125 26H119.485ZM122.917 22.1V18.798H132.797V22.1H122.917Z" fill="black"/>
<path d="M142.438 26L148.704 7.28H151.928L158.194 26H155.789L149.926 8.632H150.654L144.843 26H142.438ZM145.454 21.619V19.448H155.178V21.619H145.454ZM166.995 26.39C165.677 26.39 164.568 26.065 163.667 25.415C162.765 24.7563 162.081 23.868 161.613 22.75C161.153 21.6233 160.924 20.3623 160.924 18.967C160.924 17.5543 161.153 16.289 161.613 15.171C162.081 14.053 162.765 13.1733 163.667 12.532C164.577 11.8907 165.69 11.57 167.008 11.57C168.308 11.57 169.426 11.895 170.362 12.545C171.306 13.1863 172.03 14.066 172.533 15.184C173.035 16.302 173.287 17.563 173.287 18.967C173.287 20.371 173.035 21.632 172.533 22.75C172.03 23.868 171.306 24.7563 170.362 25.415C169.426 26.065 168.303 26.39 166.995 26.39ZM160.534 32.24V11.96H162.601V22.295H162.861V32.24H160.534ZM166.709 24.271C167.636 24.271 168.403 24.037 169.01 23.569C169.616 23.101 170.071 22.4683 170.375 21.671C170.678 20.865 170.83 19.9637 170.83 18.967C170.83 17.979 170.678 17.0863 170.375 16.289C170.08 15.4917 169.621 14.859 168.997 14.391C168.381 13.923 167.597 13.689 166.644 13.689C165.734 13.689 164.98 13.9143 164.382 14.365C163.784 14.807 163.337 15.4267 163.043 16.224C162.748 17.0127 162.601 17.927 162.601 18.967C162.601 19.9897 162.744 20.904 163.03 21.71C163.324 22.5073 163.775 23.1357 164.382 23.595C164.988 24.0457 165.764 24.271 166.709 24.271ZM182.22 26.39C180.842 26.39 179.638 26.0867 178.606 25.48C177.584 24.8647 176.786 24.011 176.214 22.919C175.642 21.8183 175.356 20.5357 175.356 19.071C175.356 17.537 175.638 16.211 176.201 15.093C176.765 13.9663 177.549 13.0997 178.554 12.493C179.568 11.8777 180.756 11.57 182.116 11.57C183.529 11.57 184.729 11.895 185.717 12.545C186.714 13.195 187.459 14.1223 187.953 15.327C188.456 16.5317 188.673 17.966 188.603 19.63H186.263V18.798C186.237 17.0733 185.886 15.7863 185.21 14.937C184.534 14.079 183.529 13.65 182.194 13.65C180.764 13.65 179.677 14.1093 178.931 15.028C178.186 15.9467 177.813 17.264 177.813 18.98C177.813 20.6353 178.186 21.918 178.931 22.828C179.677 23.738 180.738 24.193 182.116 24.193C183.044 24.193 183.85 23.9807 184.534 23.556C185.219 23.1313 185.756 22.5203 186.146 21.723L188.369 22.49C187.823 23.7293 187 24.6913 185.899 25.376C184.807 26.052 183.581 26.39 182.22 26.39ZM177.033 19.63V17.771H187.407V19.63H177.033ZM191.485 26V11.96H193.799V17.875H201.183V11.96H203.497V26H201.183V20.072H193.799V26H191.485ZM206.098 29.12V24.089C206.887 24.089 207.45 23.8333 207.788 23.322C208.126 22.802 208.399 21.9483 208.607 20.761C208.746 20.0157 208.859 19.2183 208.945 18.369C209.032 17.5197 209.106 16.575 209.166 15.535C209.236 14.4863 209.301 13.2947 209.361 11.96H219.033V24.089H220.398V29.12H218.188V26H208.308V29.12H206.098ZM209.66 24.089H216.719V13.871H211.454C211.428 14.4863 211.394 15.132 211.35 15.808C211.307 16.4753 211.255 17.1427 211.194 17.81C211.142 18.4773 211.077 19.11 210.999 19.708C210.93 20.2973 210.848 20.826 210.752 21.294C210.64 21.944 210.51 22.4943 210.362 22.945C210.215 23.3957 209.981 23.777 209.66 24.089ZM226.999 26.39C225.95 26.39 225.07 26.1993 224.36 25.818C223.658 25.428 223.125 24.9167 222.761 24.284C222.405 23.6513 222.228 22.958 222.228 22.204C222.228 21.4673 222.366 20.8303 222.644 20.293C222.93 19.747 223.328 19.2963 223.84 18.941C224.351 18.577 224.962 18.291 225.673 18.083C226.34 17.901 227.085 17.745 227.909 17.615C228.741 17.4763 229.581 17.3507 230.431 17.238C231.28 17.1253 232.073 17.017 232.81 16.913L231.978 17.394C232.004 16.146 231.752 15.223 231.224 14.625C230.704 14.027 229.802 13.728 228.52 13.728C227.67 13.728 226.925 13.923 226.284 14.313C225.651 14.6943 225.205 15.3183 224.945 16.185L222.748 15.522C223.086 14.2913 223.74 13.325 224.711 12.623C225.681 11.921 226.96 11.57 228.546 11.57C229.82 11.57 230.912 11.7997 231.822 12.259C232.74 12.7097 233.399 13.3943 233.798 14.313C233.997 14.7463 234.123 15.2187 234.175 15.73C234.227 16.2327 234.252 16.7613 234.252 17.316V26H232.199V22.633L232.68 22.945C232.151 24.0803 231.41 24.9383 230.457 25.519C229.512 26.0997 228.359 26.39 226.999 26.39ZM227.35 24.453C228.182 24.453 228.901 24.3057 229.508 24.011C230.123 23.7077 230.617 23.3133 230.99 22.828C231.362 22.334 231.605 21.7967 231.718 21.216C231.848 20.7827 231.917 20.3017 231.926 19.773C231.943 19.2357 231.952 18.824 231.952 18.538L232.758 18.889C232.004 18.993 231.263 19.0927 230.535 19.188C229.807 19.2833 229.118 19.3873 228.468 19.5C227.818 19.604 227.233 19.7297 226.713 19.877C226.331 19.9983 225.972 20.1543 225.634 20.345C225.304 20.5357 225.036 20.7827 224.828 21.086C224.628 21.3807 224.528 21.749 224.528 22.191C224.528 22.5723 224.624 22.9363 224.815 23.283C225.014 23.6297 225.317 23.9113 225.725 24.128C226.141 24.3447 226.682 24.453 227.35 24.453Z" fill="#F86226"/>
</svg>
