<svg width="152" height="45" viewBox="0 0 152 45" fill="none" xmlns="http://www.w3.org/2000/svg">
<rect width="151.402" height="44.8598" rx="7.93272" fill="black"/>
<path d="M49.9437 34V20.32H55.4727C55.6057 20.32 55.7704 20.3263 55.9667 20.339C56.163 20.3453 56.3499 20.3643 56.5272 20.396C57.2872 20.5163 57.9205 20.776 58.4272 21.175C58.9402 21.574 59.3234 22.0775 59.5767 22.6855C59.83 23.2935 59.9567 23.9648 59.9567 24.6995C59.9567 25.7888 59.678 26.7293 59.1207 27.521C58.5634 28.3063 57.7274 28.7972 56.6127 28.9935L55.8052 29.0885H51.9292V34H49.9437ZM57.9427 34L55.2447 28.433L57.2492 27.92L60.2132 34H57.9427ZM51.9292 27.2075H55.3967C55.5234 27.2075 55.6627 27.2012 55.8147 27.1885C55.973 27.1758 56.1219 27.1537 56.2612 27.122C56.6665 27.027 56.9927 26.8528 57.2397 26.5995C57.4867 26.3398 57.664 26.0422 57.7717 25.7065C57.8794 25.3708 57.9332 25.0352 57.9332 24.6995C57.9332 24.3638 57.8794 24.0313 57.7717 23.702C57.664 23.3663 57.4867 23.0718 57.2397 22.8185C56.9927 22.5588 56.6665 22.3815 56.2612 22.2865C56.1219 22.2485 55.973 22.2232 55.8147 22.2105C55.6627 22.1978 55.5234 22.1915 55.3967 22.1915H51.9292V27.2075ZM65.9776 34.2755C65.2683 34.2755 64.673 34.1615 64.1916 33.9335C63.7103 33.7055 63.3176 33.4078 63.0136 33.0405C62.716 32.6668 62.488 32.2615 62.3296 31.8245C62.1713 31.3875 62.0636 30.96 62.0066 30.542C61.9496 30.124 61.9211 29.7567 61.9211 29.44V23.74H63.9351V28.7845C63.9351 29.1835 63.9668 29.5952 64.0301 30.0195C64.0998 30.4375 64.2265 30.827 64.4101 31.188C64.6001 31.549 64.863 31.8403 65.1986 32.062C65.5406 32.2837 65.984 32.3945 66.5286 32.3945C66.8833 32.3945 67.219 32.3375 67.5356 32.2235C67.8523 32.1032 68.1278 31.9132 68.3621 31.6535C68.6028 31.3938 68.7896 31.0518 68.9226 30.6275C69.062 30.2032 69.1316 29.687 69.1316 29.079L70.3666 29.5445C70.3666 30.4755 70.1925 31.2988 69.8441 32.0145C69.4958 32.7238 68.9955 33.278 68.3431 33.677C67.6908 34.076 66.9023 34.2755 65.9776 34.2755ZM69.3691 34V31.036H69.1316V23.74H71.1361V34H69.3691ZM78.5696 34.285C77.5879 34.285 76.7013 34.1172 75.9096 33.7815C75.1243 33.4395 74.4751 32.955 73.9621 32.328C73.4554 31.6947 73.1261 30.9442 72.9741 30.0765L75.0451 29.763C75.2541 30.599 75.6911 31.2513 76.3561 31.72C77.0211 32.1823 77.7969 32.4135 78.6836 32.4135C79.2346 32.4135 79.7413 32.328 80.2036 32.157C80.6659 31.9797 81.0364 31.7295 81.3151 31.4065C81.6001 31.0772 81.7426 30.6845 81.7426 30.2285C81.7426 29.9815 81.6983 29.763 81.6096 29.573C81.5273 29.383 81.4101 29.2183 81.2581 29.079C81.1124 28.9333 80.9319 28.8098 80.7166 28.7085C80.5076 28.6008 80.2764 28.509 80.0231 28.433L76.5176 27.3975C76.1756 27.2962 75.8273 27.1663 75.4726 27.008C75.1179 26.8433 74.7918 26.6312 74.4941 26.3715C74.2028 26.1055 73.9653 25.7793 73.7816 25.393C73.5979 25.0003 73.5061 24.5253 73.5061 23.968C73.5061 23.1257 73.7214 22.4132 74.1521 21.8305C74.5891 21.2415 75.1781 20.7982 75.9191 20.5005C76.6601 20.1965 77.4898 20.0445 78.4081 20.0445C79.3328 20.0572 80.1593 20.2218 80.8876 20.5385C81.6223 20.8552 82.2303 21.3112 82.7116 21.9065C83.1993 22.4955 83.5349 23.2112 83.7186 24.0535L81.5906 24.4145C81.4956 23.9015 81.2929 23.4613 80.9826 23.094C80.6723 22.7203 80.2923 22.4353 79.8426 22.239C79.3929 22.0363 78.9053 21.9318 78.3796 21.9255C77.8729 21.9128 77.4074 21.9888 76.9831 22.1535C76.5651 22.3182 76.2294 22.5493 75.9761 22.847C75.7291 23.1447 75.6056 23.4867 75.6056 23.873C75.6056 24.253 75.7164 24.5602 75.9381 24.7945C76.1598 25.0288 76.4321 25.2157 76.7551 25.355C77.0844 25.488 77.4106 25.5988 77.7336 25.6875L80.2606 26.4C80.5773 26.4887 80.9351 26.609 81.3341 26.761C81.7394 26.9067 82.1289 27.1125 82.5026 27.3785C82.8826 27.6445 83.1961 27.9992 83.4431 28.4425C83.6901 28.8795 83.8136 29.4305 83.8136 30.0955C83.8136 30.7858 83.6743 31.3938 83.3956 31.9195C83.1169 32.4388 82.7338 32.8758 82.2461 33.2305C81.7648 33.5788 81.2074 33.8417 80.5741 34.019C79.9408 34.1963 79.2726 34.285 78.5696 34.285ZM91.5191 34C90.8731 34.1267 90.2398 34.1805 89.6191 34.1615C88.9985 34.1425 88.4443 34.0222 87.9566 33.8005C87.469 33.5788 87.1016 33.2305 86.8546 32.7555C86.633 32.3312 86.5126 31.9005 86.4936 31.4635C86.481 31.0202 86.4746 30.5198 86.4746 29.9625V20.89H88.4696V29.8675C88.4696 30.2792 88.4728 30.637 88.4791 30.941C88.4918 31.245 88.5583 31.5015 88.6786 31.7105C88.9066 32.1032 89.2676 32.328 89.7616 32.385C90.262 32.4357 90.8478 32.4135 91.5191 32.3185V34ZM84.5081 25.336V23.74H91.5191V25.336H84.5081ZM97.4839 34.285C96.4579 34.285 95.5681 34.0538 94.8144 33.5915C94.0608 33.1292 93.4781 32.4927 93.0664 31.682C92.6611 30.865 92.4584 29.9245 92.4584 28.8605C92.4584 27.7902 92.6674 26.8497 93.0854 26.039C93.5034 25.222 94.0893 24.5887 94.8429 24.139C95.5966 23.683 96.4769 23.455 97.4839 23.455C98.5099 23.455 99.3998 23.6862 100.153 24.1485C100.907 24.6108 101.49 25.2473 101.901 26.058C102.313 26.8687 102.519 27.8028 102.519 28.8605C102.519 29.9308 102.31 30.8745 101.892 31.6915C101.48 32.5022 100.898 33.1387 100.144 33.601C99.3903 34.057 98.5036 34.285 97.4839 34.285ZM97.4839 32.4135C98.4656 32.4135 99.1971 32.0842 99.6784 31.4255C100.166 30.7605 100.41 29.9055 100.41 28.8605C100.41 27.7902 100.163 26.9352 99.6689 26.2955C99.1813 25.6495 98.4529 25.3265 97.4839 25.3265C96.8189 25.3265 96.2711 25.4785 95.8404 25.7825C95.4098 26.0802 95.0899 26.495 94.8809 27.027C94.6719 27.5527 94.5674 28.1638 94.5674 28.8605C94.5674 29.9372 94.8144 30.7985 95.3084 31.4445C95.8024 32.0905 96.5276 32.4135 97.4839 32.4135ZM104.417 34V23.74H106.184V26.229L105.937 25.906C106.063 25.5767 106.228 25.2758 106.431 25.0035C106.633 24.7248 106.868 24.4968 107.134 24.3195C107.393 24.1295 107.681 23.9838 107.998 23.8825C108.321 23.7748 108.65 23.7115 108.986 23.6925C109.322 23.6672 109.645 23.683 109.955 23.74V25.602C109.619 25.5133 109.246 25.488 108.834 25.526C108.429 25.564 108.055 25.6938 107.713 25.9155C107.39 26.1245 107.134 26.3778 106.944 26.6755C106.76 26.9732 106.627 27.3057 106.545 27.673C106.462 28.034 106.421 28.4172 106.421 28.8225V34H104.417ZM115.939 34.285C114.92 34.285 114.023 34.0633 113.251 33.62C112.484 33.1703 111.886 32.5465 111.455 31.7485C111.031 30.9442 110.819 30.0132 110.819 28.9555C110.819 27.8345 111.028 26.8623 111.446 26.039C111.87 25.2157 112.459 24.5792 113.213 24.1295C113.966 23.6798 114.844 23.455 115.844 23.455C116.889 23.455 117.779 23.6988 118.514 24.1865C119.248 24.6678 119.796 25.355 120.157 26.248C120.525 27.141 120.67 28.2018 120.594 29.4305H118.609V28.7085C118.596 27.5178 118.368 26.6375 117.925 26.0675C117.488 25.4975 116.82 25.2125 115.92 25.2125C114.926 25.2125 114.179 25.526 113.678 26.153C113.178 26.78 112.928 27.6857 112.928 28.87C112.928 29.9973 113.178 30.8713 113.678 31.492C114.179 32.1063 114.901 32.4135 115.844 32.4135C116.465 32.4135 117 32.2742 117.45 31.9955C117.906 31.7105 118.26 31.3052 118.514 30.7795L120.461 31.397C120.062 32.3153 119.457 33.0278 118.647 33.5345C117.836 34.0348 116.934 34.285 115.939 34.285ZM112.282 29.4305V27.882H119.606V29.4305H112.282Z" fill="white"/>
<path d="M52.705 16.15C51.985 16.15 51.3717 15.9933 50.865 15.68C50.3583 15.3633 49.97 14.9233 49.7 14.36C49.4333 13.7967 49.3 13.1433 49.3 12.4C49.3 11.6567 49.4333 11.0033 49.7 10.44C49.97 9.87667 50.3583 9.43833 50.865 9.125C51.3717 8.80833 51.985 8.65 52.705 8.65C53.535 8.65 54.2217 8.86 54.765 9.28C55.3117 9.7 55.6917 10.265 55.905 10.975L54.845 11.26C54.705 10.7567 54.455 10.3617 54.095 10.075C53.7383 9.78833 53.275 9.645 52.705 9.645C52.195 9.645 51.77 9.76 51.43 9.99C51.09 10.22 50.8333 10.5417 50.66 10.955C50.49 11.3683 50.405 11.85 50.405 12.4C50.4017 12.95 50.485 13.4317 50.655 13.845C50.8283 14.2583 51.085 14.58 51.425 14.81C51.7683 15.04 52.195 15.155 52.705 15.155C53.275 15.155 53.7383 15.0117 54.095 14.725C54.455 14.435 54.705 14.04 54.845 13.54L55.905 13.825C55.6917 14.535 55.3117 15.1 54.765 15.52C54.2217 15.94 53.535 16.15 52.705 16.15ZM56.8997 16L56.9047 10.6H57.9647V13.2L60.0847 10.6H61.4147L59.1747 13.3L61.6447 16H60.2247L57.9647 13.4V16H56.8997ZM63.5738 16.15C63.1738 16.15 62.8388 16.0767 62.5688 15.93C62.2988 15.78 62.0938 15.5833 61.9538 15.34C61.8172 15.0933 61.7488 14.8233 61.7488 14.53C61.7488 14.2567 61.7972 14.0167 61.8938 13.81C61.9905 13.6033 62.1338 13.4283 62.3238 13.285C62.5138 13.1383 62.7472 13.02 63.0238 12.93C63.2638 12.86 63.5355 12.7983 63.8388 12.745C64.1422 12.6917 64.4605 12.6417 64.7938 12.595C65.1305 12.5483 65.4638 12.5017 65.7938 12.455L65.4138 12.665C65.4205 12.2417 65.3305 11.9283 65.1438 11.725C64.9605 11.5183 64.6438 11.415 64.1938 11.415C63.9105 11.415 63.6505 11.4817 63.4138 11.615C63.1772 11.745 63.0122 11.9617 62.9188 12.265L61.9438 11.965C62.0772 11.5017 62.3305 11.1333 62.7038 10.86C63.0805 10.5867 63.5805 10.45 64.2038 10.45C64.6872 10.45 65.1072 10.5333 65.4638 10.7C65.8238 10.8633 66.0872 11.1233 66.2538 11.48C66.3405 11.6567 66.3938 11.8433 66.4138 12.04C66.4338 12.2367 66.4438 12.4483 66.4438 12.675V16H65.5188V14.765L65.6988 14.925C65.4755 15.3383 65.1905 15.6467 64.8438 15.85C64.5005 16.05 64.0772 16.15 63.5738 16.15ZM63.7588 15.295C64.0555 15.295 64.3105 15.2433 64.5238 15.14C64.7372 15.0333 64.9088 14.8983 65.0388 14.735C65.1688 14.5717 65.2538 14.4017 65.2938 14.225C65.3505 14.065 65.3822 13.885 65.3888 13.685C65.3988 13.485 65.4038 13.325 65.4038 13.205L65.7438 13.33C65.4138 13.38 65.1138 13.425 64.8438 13.465C64.5738 13.505 64.3288 13.545 64.1088 13.585C63.8922 13.6217 63.6988 13.6667 63.5288 13.72C63.3855 13.77 63.2572 13.83 63.1438 13.9C63.0338 13.97 62.9455 14.055 62.8788 14.155C62.8155 14.255 62.7838 14.3767 62.7838 14.52C62.7838 14.66 62.8188 14.79 62.8888 14.91C62.9588 15.0267 63.0655 15.12 63.2088 15.19C63.3522 15.26 63.5355 15.295 63.7588 15.295ZM70.8372 16V14.12C70.6539 14.2133 70.4389 14.29 70.1922 14.35C69.9455 14.4067 69.6855 14.435 69.4122 14.435C68.8589 14.435 68.4139 14.3117 68.0772 14.065C67.7439 13.815 67.5272 13.455 67.4272 12.985C67.4005 12.845 67.3805 12.7017 67.3672 12.555C67.3539 12.405 67.3455 12.2683 67.3422 12.145C67.3422 12.0217 67.3422 11.93 67.3422 11.87V10.6H68.4022V11.87C68.4022 11.9567 68.4055 12.0717 68.4122 12.215C68.4189 12.355 68.4372 12.4917 68.4672 12.625C68.5305 12.925 68.6572 13.1483 68.8472 13.295C69.0372 13.4383 69.3055 13.51 69.6522 13.51C69.9022 13.51 70.1272 13.4783 70.3272 13.415C70.5305 13.3483 70.7005 13.2633 70.8372 13.16V10.6H71.8922V16H70.8372ZM74.7215 16.15C74.3215 16.15 73.9865 16.0767 73.7165 15.93C73.4465 15.78 73.2415 15.5833 73.1015 15.34C72.9648 15.0933 72.8965 14.8233 72.8965 14.53C72.8965 14.2567 72.9448 14.0167 73.0415 13.81C73.1382 13.6033 73.2815 13.4283 73.4715 13.285C73.6615 13.1383 73.8948 13.02 74.1715 12.93C74.4115 12.86 74.6832 12.7983 74.9865 12.745C75.2898 12.6917 75.6082 12.6417 75.9415 12.595C76.2782 12.5483 76.6115 12.5017 76.9415 12.455L76.5615 12.665C76.5682 12.2417 76.4782 11.9283 76.2915 11.725C76.1082 11.5183 75.7915 11.415 75.3415 11.415C75.0582 11.415 74.7982 11.4817 74.5615 11.615C74.3248 11.745 74.1598 11.9617 74.0665 12.265L73.0915 11.965C73.2248 11.5017 73.4782 11.1333 73.8515 10.86C74.2282 10.5867 74.7282 10.45 75.3515 10.45C75.8348 10.45 76.2548 10.5333 76.6115 10.7C76.9715 10.8633 77.2348 11.1233 77.4015 11.48C77.4882 11.6567 77.5415 11.8433 77.5615 12.04C77.5815 12.2367 77.5915 12.4483 77.5915 12.675V16H76.6665V14.765L76.8465 14.925C76.6232 15.3383 76.3382 15.6467 75.9915 15.85C75.6482 16.05 75.2248 16.15 74.7215 16.15ZM74.9065 15.295C75.2032 15.295 75.4582 15.2433 75.6715 15.14C75.8848 15.0333 76.0565 14.8983 76.1865 14.735C76.3165 14.5717 76.4015 14.4017 76.4415 14.225C76.4982 14.065 76.5298 13.885 76.5365 13.685C76.5465 13.485 76.5515 13.325 76.5515 13.205L76.8915 13.33C76.5615 13.38 76.2615 13.425 75.9915 13.465C75.7215 13.505 75.4765 13.545 75.2565 13.585C75.0398 13.6217 74.8465 13.6667 74.6765 13.72C74.5332 13.77 74.4048 13.83 74.2915 13.9C74.1815 13.97 74.0932 14.055 74.0265 14.155C73.9632 14.255 73.9315 14.3767 73.9315 14.52C73.9315 14.66 73.9665 14.79 74.0365 14.91C74.1065 15.0267 74.2132 15.12 74.3565 15.19C74.4998 15.26 74.6832 15.295 74.9065 15.295ZM80.1848 16V11.54H78.3398V10.6H83.0748V11.54H81.2298V16H80.1848ZM83.9192 16V10.6H84.9692V12.475H86.0342C86.1876 12.475 86.3509 12.4783 86.5242 12.485C86.7009 12.4917 86.8526 12.5083 86.9792 12.535C87.2692 12.595 87.5192 12.695 87.7292 12.835C87.9426 12.975 88.1076 13.1617 88.2242 13.395C88.3409 13.625 88.3992 13.9083 88.3992 14.245C88.3992 14.715 88.2759 15.09 88.0292 15.37C87.7859 15.6467 87.4559 15.8333 87.0392 15.93C86.9059 15.96 86.7476 15.98 86.5642 15.99C86.3842 15.9967 86.2192 16 86.0692 16H83.9192ZM84.9692 15.16H86.1292C86.2126 15.16 86.3076 15.1567 86.4142 15.15C86.5209 15.1433 86.6192 15.1283 86.7092 15.105C86.8692 15.0583 87.0126 14.9633 87.1392 14.82C87.2659 14.6767 87.3292 14.485 87.3292 14.245C87.3292 13.9983 87.2659 13.8017 87.1392 13.655C87.0159 13.5083 86.8592 13.4133 86.6692 13.37C86.5792 13.3467 86.4876 13.3317 86.3942 13.325C86.3009 13.3183 86.2126 13.315 86.1292 13.315H84.9692V15.16Z" fill="white"/>
<path d="M24.9544 13.138C24.9323 11.8134 26.1809 10.8337 27.4622 11.1702L34.6234 13.0511C35.4791 13.2759 36.0855 14.0362 36.1143 14.9205L36.5114 27.1183C36.5549 28.4535 35.3022 29.4552 34.0092 29.119L26.654 27.2067C25.7846 26.9806 25.1726 26.2026 25.1576 25.3044L24.9544 13.138Z" fill="white"/>
<path d="M19.4368 16.0682C19.4147 14.7436 20.6633 13.7639 21.9446 14.1004L29.1058 15.9813C29.9616 16.2061 30.5679 16.9664 30.5967 17.8506L30.9939 30.0485C31.0373 31.3837 29.7846 32.3854 28.4916 32.0492L21.1365 30.1369C20.267 29.9108 19.655 29.1328 19.64 28.2346L19.4368 16.0682Z" fill="black"/>
<path d="M18.2571 15.7254C18.235 14.4008 19.4836 13.4211 20.7649 13.7576L27.9262 15.6385C28.7819 15.8633 29.3882 16.6236 29.417 17.5079L29.8142 29.7057C29.8576 31.0409 28.6049 32.0426 27.312 31.7064L19.9568 29.7941C19.0873 29.568 18.4753 28.79 18.4603 27.8918L18.2571 15.7254Z" fill="white"/>
<path d="M12.6253 18.8455C12.6032 17.5209 13.8517 16.5412 15.1331 16.8778L22.2943 18.7587C23.15 18.9834 23.7564 19.7437 23.7852 20.628L24.1823 32.8258C24.2258 34.161 22.9731 35.1627 21.6801 34.8265L14.3249 32.9142C13.4555 32.6881 12.8435 31.9102 12.8285 31.0119L12.6253 18.8455Z" fill="black"/>
<path d="M11.4456 18.5033C11.4235 17.1786 12.6721 16.1989 13.9534 16.5355L21.1146 18.4164C21.9703 18.6411 22.5767 19.4014 22.6055 20.2857L23.0026 32.4835C23.0461 33.8188 21.7934 34.8204 20.5004 34.4843L13.1452 32.5719C12.2758 32.3459 11.6638 31.5679 11.6488 30.6697L11.4456 18.5033Z" fill="white"/>
</svg>
