<?xml version="1.0" encoding="utf-8"?><svg viewBox="0 0 502.66 502.66" xmlns="http://www.w3.org/2000/svg" xmlns:xlink="http://www.w3.org/1999/xlink"><style>:root>svg{display:none}:root>svg:target{display:block}</style><svg viewBox="0 0 24 24" stroke-width="1.5" class="asize-6" id="arrow-left" xmlns="http://www.w3.org/2000/svg"><path d="M10.5 19.5 3 12m0 0 7.5-7.5M3 12h18"/></svg><svg viewBox="0 0 24 24" stroke-width="1.5" class="csize-6" id="arrow-right" xmlns="http://www.w3.org/2000/svg"><path d="M13.5 4.5 21 12m0 0-7.5 7.5M21 12H3"/></svg><svg viewBox="0 0 22 22" id="arrow-right-top" xmlns="http://www.w3.org/2000/svg"><path d="M1.234 19.021a1.5 1.5 0 1 0 2.122 2.121l-1.061-1.06-1.06-1.06ZM21.398 2.478a1.5 1.5 0 0 0-1.5-1.5h-13.5a1.5 1.5 0 0 0 0 3h12v12a1.5 1.5 0 0 0 3 0v-13.5ZM2.295 20.082l1.06 1.06L20.96 3.54 19.9 2.48l-1.061-1.061L1.234 19.02l1.06 1.06Z"/></svg><svg viewBox="0 0 21 21" id="call" xmlns="http://www.w3.org/2000/svg"><g clip-path="url(#da)"><path d="M1.6 16.07c0 .319.072.647.222.966.151.319.347.62.604.904.435.478.914.824 1.455 1.045.533.222 1.11.337 1.731.337.905 0 1.873-.212 2.893-.647a15.601 15.601 0 0 0 3.053-1.754 25.505 25.505 0 0 0 2.912-2.482 25.192 25.192 0 0 0 2.476-2.897c.727-1.01 1.313-2.02 1.74-3.022.425-1.01.638-1.976.638-2.898 0-.603-.106-1.179-.32-1.71a4.078 4.078 0 0 0-1.02-1.48c-.568-.559-1.19-.833-1.846-.833a1.67 1.67 0 0 0-.719.16c-.23.105-.435.265-.595.495l-2.059 2.898a3.03 3.03 0 0 0-.354.62c-.08.187-.125.373-.125.541 0 .213.062.425.187.63.115.203.284.416.497.629l.674.7a.474.474 0 0 1 .142.354.8.8 0 0 1-.027.204c-.026.07-.053.124-.07.177-.16.293-.435.674-.826 1.134-.4.461-.825.93-1.287 1.4-.479.47-.94.904-1.41 1.303-.462.39-.844.656-1.146.816-.044.017-.097.044-.16.07a.615.615 0 0 1-.221.036.489.489 0 0 1-.364-.15L7.6 12.95a2.722 2.722 0 0 0-.639-.497 1.183 1.183 0 0 0-.63-.186c-.169 0-.346.036-.541.115-.196.08-.4.195-.622.346l-2.937 2.083c-.231.16-.39.345-.488.567a1.815 1.815 0 0 0-.142.691Z"/></g><defs><clipPath id="da"><path transform="matrix(-1 0 0 1 20.6 .322)" d="M0 0h20v20H0z"/></clipPath></defs></svg><svg viewBox="0 0 502.664 502.664" xml:space="preserve" id="icon" xmlns="http://www.w3.org/2000/svg"><path d="M153.821 358.226 0 274.337v-46.463l153.821-83.414v54.574L46.636 250.523l107.185 53.431v54.272zm26.273 29.358L282.103 115.08h32.227L212.084 387.584h-31.99zm168.749-29.358v-54.272l107.164-52.999-107.164-52.59v-53.927l153.821 83.522v46.183l-153.821 84.083z"/></svg></svg>