<?xml version="1.0" encoding="utf-8"?><svg viewBox="0 0 502.66 502.66" xmlns="http://www.w3.org/2000/svg" xmlns:xlink="http://www.w3.org/1999/xlink"><style>:root>svg{display:none}:root>svg:target{display:block}</style><svg fill="none" viewBox="0 0 22 26" id="apple" xmlns="http://www.w3.org/2000/svg"><path d="M18.03 13.848c0-3.155 2.663-4.692 2.825-4.773-1.534-2.184-3.874-2.427-4.761-2.508C14.077 6.325 12.14 7.7 11.172 7.7c-1.05 0-2.582-1.133-4.277-1.133-2.178 0-4.195 1.214-5.325 3.155-2.26 3.883-.565 9.546 1.614 12.62 1.13 1.537 2.34 3.236 4.034 3.155 1.614-.08 2.26-1.051 4.277-1.051 1.936 0 2.501 1.051 4.276.97 1.775 0 2.905-1.537 3.954-3.074 1.29-1.78 1.775-3.478 1.775-3.56-.08.082-3.389-1.132-3.47-4.934zm-3.227-9.303c.887-1.052 1.452-2.508 1.29-4.045-1.29.08-2.904.89-3.791 1.942-.807.89-1.534 2.426-1.372 3.883 1.452.08 2.985-.728 3.873-1.78z" fill="var(--icon-color, currentColor)"/></svg><svg fill="none" viewBox="0 0 30 30" id="arrow-bottom-circle" xmlns="http://www.w3.org/2000/svg"><path d="M15 27.5c6.904 0 12.5-5.596 12.5-12.5S21.904 2.5 15 2.5 2.5 8.096 2.5 15 8.096 27.5 15 27.5z" stroke="var(--icon-stroke, currentColor)" stroke-width="1.667" stroke-linecap="round" stroke-linejoin="round"/><path d="M10 15l5 5 5-5m-5-5v10" stroke="var(--icon-stroke, currentColor)" stroke-width="1.667" stroke-linecap="round" stroke-linejoin="round"/></svg><svg fill="none" viewBox="0 0 10 9" id="arrow-down" xmlns="http://www.w3.org/2000/svg"><path fill-rule="evenodd" clip-rule="evenodd" d="M9.796 4.231L5.34 8.854a.467.467 0 01-.678 0L.204 4.23a.741.741 0 010-1.02.679.679 0 01.983 0L5 7.165l3.813-3.954a.68.68 0 01.983 0 .74.74 0 010 1.02z" fill="var(--icon-color, currentColor)"/></svg><svg fill="none" viewBox="0 0 24 24" stroke-width="1.5" stroke="var(--icon-stroke, currentColor)" class="adsize-6" id="arrow-left" xmlns="http://www.w3.org/2000/svg"><path stroke-linecap="round" stroke-linejoin="round" d="M10.5 19.5L3 12m0 0l7.5-7.5M3 12h18"/></svg><svg fill="none" viewBox="0 0 24 24" stroke-width="1.5" stroke="var(--icon-stroke, currentColor)" class="aesize-6" id="arrow-right" xmlns="http://www.w3.org/2000/svg"><path stroke-linecap="round" stroke-linejoin="round" d="M13.5 4.5L21 12m0 0l-7.5 7.5M21 12H3"/></svg><svg fill="none" viewBox="0 0 24 24" id="arrow-right-circle" xmlns="http://www.w3.org/2000/svg"><path d="M12 22c5.523 0 10-4.477 10-10S17.523 2 12 2 2 6.477 2 12s4.477 10 10 10z" stroke="var(--icon-stroke, currentColor)" stroke-width="2" stroke-linecap="round" stroke-linejoin="round"/><path d="M12 16l4-4-4-4m-4 4h8" stroke="var(--icon-stroke, currentColor)" stroke-width="2" stroke-linecap="round" stroke-linejoin="round"/></svg><svg fill="none" viewBox="0 0 22 22" id="arrow-right-top" xmlns="http://www.w3.org/2000/svg"><path d="M1.234 19.021a1.5 1.5 0 102.122 2.121l-1.061-1.06-1.06-1.06zM21.398 2.478a1.5 1.5 0 00-1.5-1.5h-13.5a1.5 1.5 0 000 3h12v12a1.5 1.5 0 003 0v-13.5zM2.295 20.082l1.06 1.06L20.96 3.54 19.9 2.48l-1.061-1.061L1.234 19.02l1.06 1.06z" fill="var(--icon-color, currentColor)"/></svg><svg fill="none" viewBox="0 0 28 28" id="barrier" xmlns="http://www.w3.org/2000/svg"><g clip-path="url(#aha)" stroke="var(--icon-stroke, currentColor)" stroke-linecap="round" stroke-linejoin="round"><path d="M7.695 4.756c1.158 0 2.095 1.252 2.095 2.796v18.17c-1.157 0-4.19.734-4.19-2.766V7.552c0-1.544.938-2.796 2.095-2.796z" stroke-width="1.667"/><path d="M10.5 8.957l17-3.457M10 12.922l18-3.611M27.5 9V6M23 9.5v-3m-4.501 4v-3m-4.5 4v-3" stroke-width="1.67"/></g><defs><clipPath id="aha"><path fill="var(--icon-color, currentColor)" d="M0 0h28v28H0z"/></clipPath></defs></svg><svg fill="none" viewBox="0 0 21 21" id="call" xmlns="http://www.w3.org/2000/svg"><g clip-path="url(#aia)"><path d="M1.6 16.07c0 .319.072.647.222.966.151.319.347.62.604.904.435.478.914.824 1.455 1.045.533.222 1.11.337 1.731.337.905 0 1.873-.212 2.893-.647a15.601 15.601 0 003.053-1.754 25.505 25.505 0 002.912-2.482 25.192 25.192 0 002.476-2.897c.727-1.01 1.313-2.02 1.74-3.022.425-1.01.638-1.976.638-2.898 0-.603-.106-1.179-.32-1.71a4.078 4.078 0 00-1.02-1.48c-.568-.559-1.19-.833-1.846-.833a1.67 1.67 0 00-.719.16c-.23.105-.435.265-.595.495l-2.059 2.898a3.03 3.03 0 00-.354.62c-.08.187-.125.373-.125.541 0 .213.062.425.187.63.115.203.284.416.497.629l.674.7a.474.474 0 01.142.354.8.8 0 01-.027.204c-.026.07-.053.124-.07.177-.16.293-.435.674-.826 1.134-.4.461-.825.93-1.287 1.4-.479.47-.94.904-1.41 1.303-.462.39-.844.656-1.146.816-.044.017-.097.044-.16.07a.615.615 0 01-.221.036.489.489 0 01-.364-.15L7.6 12.95a2.722 2.722 0 00-.639-.497 1.183 1.183 0 00-.63-.186c-.169 0-.346.036-.541.115-.196.08-.4.195-.622.346l-2.937 2.083c-.231.16-.39.345-.488.567a1.815 1.815 0 00-.142.691z" fill="var(--icon-color, currentColor)" stroke="var(--icon-stroke, currentColor)" stroke-width="2.085" stroke-miterlimit="10"/></g><defs><clipPath id="aia"><path fill="var(--icon-color, currentColor)" transform="matrix(-1 0 0 1 20.6 .322)" d="M0 0h20v20H0z"/></clipPath></defs></svg><svg fill="none" viewBox="0 0 25 25" id="check" xmlns="http://www.w3.org/2000/svg"><path d="M20.833 6.25L9.375 17.708 4.167 12.5" stroke="var(--icon-stroke, currentColor)" stroke-width="2.5" stroke-linecap="round" stroke-linejoin="round"/></svg><svg fill="none" viewBox="0 0 40 40" id="check-square" xmlns="http://www.w3.org/2000/svg"><path d="M15 18.333l5 5L36.667 6.667" stroke="var(--icon-stroke, currentColor)" stroke-width="3" stroke-linecap="round" stroke-linejoin="round"/><path d="M35 20v11.667A3.333 3.333 0 0131.667 35H8.333A3.333 3.333 0 015 31.667V8.333A3.333 3.333 0 018.333 5h18.334" stroke="var(--icon-stroke, currentColor)" stroke-width="3" stroke-linecap="round" stroke-linejoin="round"/></svg><svg fill="none" viewBox="0 0 49 48" id="circle" xmlns="http://www.w3.org/2000/svg"><path d="M24.92 48c13.2 0 24-10.8 24-24s-10.8-24-24-24-24 10.8-24 24 10.8 24 24 24z" fill="var(--icon-color, currentColor)"/><path d="M16.42 24.004l5.66 5.66 11.34-11.32" stroke="var(--icon-stroke, currentColor)" stroke-width="3.219" stroke-linecap="round" stroke-linejoin="round"/></svg><svg fill="none" viewBox="0 0 40 40" id="circle-check" xmlns="http://www.w3.org/2000/svg"><path d="M20 36.667c9.205 0 16.667-7.462 16.667-16.667 0-9.205-7.462-16.667-16.667-16.667-9.205 0-16.666 7.462-16.666 16.667 0 9.205 7.461 16.667 16.666 16.667z" stroke="var(--icon-stroke, currentColor)" stroke-width="3" stroke-linecap="round" stroke-linejoin="round"/><path d="M13.334 18.333L20 25l6.667-6.667" stroke="var(--icon-stroke, currentColor)" stroke-width="3" stroke-linecap="round" stroke-linejoin="round"/></svg><svg fill="none" viewBox="0 0 24 24" id="clock" xmlns="http://www.w3.org/2000/svg"><path d="M22 12c0 5.52-4.48 10-10 10S2 17.52 2 12 6.48 2 12 2s10 4.48 10 10z" stroke="var(--icon-stroke, currentColor)" stroke-width="2" stroke-linecap="round" stroke-linejoin="round"/><path d="M15.71 15.18l-3.1-1.85c-.54-.32-.98-1.09-.98-1.72v-4.1" stroke="var(--icon-stroke, currentColor)" stroke-width="2" stroke-linecap="round" stroke-linejoin="round"/></svg><svg fill="none" viewBox="0 0 50 50" id="coffee" xmlns="http://www.w3.org/2000/svg"><path d="M37.5 16.667h2.083a8.333 8.333 0 110 16.666H37.5M4.167 16.667H37.5v18.75a8.333 8.333 0 01-8.333 8.333H12.5a8.333 8.333 0 01-8.333-8.333v-18.75zM12.5 2.083v6.25m8.333-6.25v6.25m8.334-6.25v6.25" stroke="var(--icon-stroke, currentColor)" stroke-width="3.5" stroke-linecap="round" stroke-linejoin="round"/></svg><svg fill="none" viewBox="0 0 24 24" id="directbox-notif" xmlns="http://www.w3.org/2000/svg"><path d="M7 12c-4 0-4 1.79-4 4v1c0 2.76 0 5 5 5h8c4 0 5-2.24 5-5v-1c0-2.21 0-4-4-4-1 0-1.28.21-1.8.6l-1.02 1.08a2.999 2.999 0 01-4.37 0L8.8 12.6C8.28 12.21 8 12 7 12zm12 0V6c0-2.21 0-4-4-4H9C5 2 5 3.79 5 6v6" stroke="var(--icon-stroke, currentColor)" stroke-width="2" stroke-miterlimit="10" stroke-linecap="round" stroke-linejoin="round"/><path d="M10.55 9.23h3.33m-4.16-3h5" stroke="var(--icon-stroke, currentColor)" stroke-width="2" stroke-linecap="round" stroke-linejoin="round"/></svg><svg fill="none" viewBox="0 0 28 28" id="door" xmlns="http://www.w3.org/2000/svg"><path d="M18 24c.884 0 3-1.343 3-3V6c0-1.657-.716-3-1.6-3H6.6C5.716 3 5 4.343 5 6v15" stroke="var(--icon-stroke, currentColor)" stroke-width="1.667" stroke-linecap="round" stroke-linejoin="round"/><path d="M16.7 4.467L6.3 3C5.582 3 5 4.313 5 5.933V20.6c0 1.62.582 2.933 1.3 2.933L16.7 25c.718 0 1.3-1.467 1.3-4.4V7.4c0-1.62-.582-2.933-1.3-2.933zM14.5 15h.5" stroke="var(--icon-stroke, currentColor)" stroke-width="1.667" stroke-linecap="round" stroke-linejoin="round"/></svg><svg fill="none" viewBox="0 0 50 50" id="download" xmlns="http://www.w3.org/2000/svg"><path d="M43.75 31.25v8.333a4.167 4.167 0 01-4.167 4.167H10.417a4.167 4.167 0 01-4.167-4.167V31.25m8.333-10.417L25 31.25l10.417-10.417M25 31.25v-25" stroke="var(--icon-stroke, currentColor)" stroke-width="3.5" stroke-linecap="round" stroke-linejoin="round"/></svg><svg fill="none" viewBox="0 0 20 20" id="external-link" xmlns="http://www.w3.org/2000/svg"><path d="M15 10.833v5a1.666 1.666 0 01-1.667 1.667H4.167A1.667 1.667 0 012.5 15.833V6.667A1.667 1.667 0 014.167 5h5M12.5 2.5h5v5m-9.167 4.167L17.5 2.5" stroke="var(--icon-stroke, currentColor)" stroke-width="1.667" stroke-linecap="round" stroke-linejoin="round"/></svg><svg fill="none" viewBox="0 0 25 25" id="file-text" xmlns="http://www.w3.org/2000/svg"><path d="M14.584 2.083H6.25a2.083 2.083 0 00-2.083 2.084v16.666a2.083 2.083 0 002.083 2.084h12.5a2.083 2.083 0 002.084-2.084v-12.5l-6.25-6.25z" stroke="var(--icon-stroke, currentColor)" stroke-width="2" stroke-linecap="round" stroke-linejoin="round"/><path d="M14.583 2.083v6.25h6.25m-4.167 5.209H8.333m8.333 4.166H8.333m2.083-8.333H8.333" stroke="var(--icon-stroke, currentColor)" stroke-width="2" stroke-linecap="round" stroke-linejoin="round"/></svg><svg fill="none" viewBox="0 0 28 28" id="gates" xmlns="http://www.w3.org/2000/svg"><g clip-path="url(#aua)" stroke="var(--icon-stroke, currentColor)" stroke-linecap="round" stroke-linejoin="round"><path d="M10.222 25.945C9.056 25.945 6 26.573 6 23.58V10.405c0-1.32.945-2.39 2.111-2.39-.611.101 2.11-.515 2.11.985v16.945z" stroke-width="1.667"/><path d="M10.5 25.8L25 22.5m0-15V22M10.36 10.12l14-2.6m-14 6l14-2.6" stroke-width="2"/></g><defs><clipPath id="aua"><path fill="var(--icon-color, currentColor)" d="M0 0h28v28H0z"/></clipPath></defs></svg><svg fill="none" viewBox="0 0 18 18" id="headset" xmlns="http://www.w3.org/2000/svg"><path fill-rule="evenodd" clip-rule="evenodd" d="M16.5 7.792v2.833H15V7.792h1.5zm-15-1.417c-.828 0-1.5.634-1.5 1.417v2.833c0 .782.672 1.417 1.5 1.417v2.125c0 1.173 1.007 2.125 2.25 2.125h.75c0 .39.336.708.75.708h1.5c.414 0 .75-.317.75-.708v-1.417c0-.391-.336-.708-.75-.708h-1.5c-.414 0-.75.317-.75.708h-.75c-.414 0-.75-.317-.75-.708v-2.125c.828 0 1.5-.635 1.5-1.417V7.792c0-.783-.672-1.417-1.5-1.417 0-2.738 2.35-4.958 5.25-4.958h1.5c2.9 0 5.25 2.22 5.25 4.958-.828 0-1.5.634-1.5 1.417v2.833c0 .782.672 1.417 1.5 1.417h1.5c.828 0 1.5-.635 1.5-1.417V7.792c0-.783-.672-1.417-1.5-1.417C16.5 2.855 13.478 0 9.75 0h-1.5C4.522 0 1.5 2.854 1.5 6.375zM3 7.792v2.833H1.5V7.792H3z" fill="var(--icon-color, currentColor)"/></svg><svg fill="none" viewBox="0 0 20 20" id="house" xmlns="http://www.w3.org/2000/svg"><path d="M2.5 7.5L10 1.667 17.5 7.5v9.167a1.667 1.667 0 01-1.667 1.666H4.167A1.667 1.667 0 012.5 16.667V7.5z" stroke="var(--icon-stroke, currentColor)" stroke-width="1.5" stroke-linecap="round" stroke-linejoin="round"/><path d="M7.5 18.333V10h5v8.333" stroke="var(--icon-stroke, currentColor)" stroke-width="1.5" stroke-linecap="round" stroke-linejoin="round"/></svg><svg viewBox="0 0 502.664 502.664" id="icon" xmlns="http://www.w3.org/2000/svg"><path d="M153.821 358.226L0 274.337v-46.463l153.821-83.414v54.574L46.636 250.523l107.185 53.431v54.272zm26.273 29.358L282.103 115.08h32.227L212.084 387.584h-31.99zm168.749-29.358v-54.272l107.164-52.999-107.164-52.59v-53.927l153.821 83.522v46.183l-153.821 84.083z" fill="#010002"/></svg><svg fill="none" viewBox="0 0 24 24" id="location" xmlns="http://www.w3.org/2000/svg"><path d="M2.24 8.354c1.94-8.479 14.58-8.469 16.51.01 1.133 4.974-1.8 9.747-4.53 12.351-.96.921-2.37 2.257-3.612 2.285-1.317.029-2.645-1.307-3.67-2.285-2.719-2.604-5.832-7.387-4.699-12.36z" stroke="var(--icon-stroke, currentColor)" stroke-width="2"/><path d="M10.5 14a3.5 3.5 0 100-7 3.5 3.5 0 000 7z" stroke="var(--icon-stroke, currentColor)" stroke-width="2"/></svg><svg fill="none" viewBox="0 0 60 60" id="logo" xmlns="http://www.w3.org/2000/svg"><rect width="60" height="60" rx="13" fill="var(--icon-color, currentColor)"/><path d="M16.826 25.762V40.27a5.73 5.73 0 005.73 5.73h16.046a5.73 5.73 0 005.731-5.73V25.762a5.73 5.73 0 00-2.062-4.402l-8.756-7.297a4.584 4.584 0 00-5.87 0l-8.757 7.297a5.73 5.73 0 00-2.062 4.402z" fill="var(--icon-color, currentColor)" stroke="var(--icon-stroke, currentColor)" stroke-width="2"/><path fill-rule="evenodd" clip-rule="evenodd" d="M23.597 34.807a1.528 1.528 0 012.128-.375 8.465 8.465 0 009.709 0 1.528 1.528 0 111.752 2.503 11.52 11.52 0 01-13.213 0 1.528 1.528 0 01-.376-2.128z" fill="var(--icon-color, currentColor)"/></svg><svg fill="none" viewBox="0 0 60 60" id="logo_service" xmlns="http://www.w3.org/2000/svg"><rect width="60" height="60" rx="13" fill="var(--icon-color, currentColor)"/><path d="M20.197 27.371v10.285a4.062 4.062 0 004.062 4.062h11.375a4.062 4.062 0 004.062-4.062V27.37a4.062 4.062 0 00-1.462-3.12l-6.207-5.174a3.25 3.25 0 00-4.161 0l-6.208 5.173a4.062 4.062 0 00-1.462 3.121z" fill="var(--icon-color, currentColor)" stroke="var(--icon-stroke, currentColor)" stroke-width="2"/><path fill-rule="evenodd" clip-rule="evenodd" d="M24.996 33.784a1.083 1.083 0 011.509-.267 6 6 0 006.882 0 1.083 1.083 0 011.243 1.775 8.167 8.167 0 01-9.368 0 1.083 1.083 0 01-.266-1.508z" fill="var(--icon-color, currentColor)"/><path d="M0 26C0 13.743 0 7.615 3.808 3.808 7.615 0 13.743 0 26 0h8c12.257 0 18.385 0 22.192 3.808C60 7.615 60 13.743 60 26v8c0 12.257 0 18.385-3.808 22.192C52.385 60 46.257 60 34 60h-8c-12.257 0-18.385 0-22.192-3.808C0 52.385 0 46.257 0 34v-8z" fill="var(--icon-color, currentColor)"/><path d="M16 25.535v15.387C16 44.28 18.633 47 21.88 47h16.465c3.248 0 5.88-2.721 5.88-6.078V25.535c0-1.803-.774-3.514-2.115-4.669l-8.986-7.739a4.587 4.587 0 00-6.023 0l-8.985 7.74C16.776 22.02 16 23.731 16 25.534z" fill="var(--icon-color, currentColor)" stroke="var(--icon-stroke, currentColor)" stroke-width="2"/><path d="M31.851 27.623a.841.841 0 000 1.179l1.347 1.347a.842.842 0 001.179 0l3.174-3.174a5.051 5.051 0 01-6.685 6.684l-5.817 5.818a1.786 1.786 0 11-2.526-2.526l5.817-5.817a5.051 5.051 0 016.685-6.685l-3.165 3.166-.009.008z" stroke="var(--icon-stroke, currentColor)" stroke-width="2" stroke-linecap="round" stroke-linejoin="round"/></svg><svg fill="none" viewBox="0 0 31 30" id="map-pin" xmlns="http://www.w3.org/2000/svg"><path d="M27.125 12.5c0 8.75-11.625 16.25-11.625 16.25S3.875 21.25 3.875 12.5c0-2.984 1.225-5.845 3.405-7.955 2.18-2.11 5.137-3.295 8.22-3.295 3.083 0 6.04 1.185 8.22 3.295 2.18 2.11 3.405 4.971 3.405 7.955z" stroke="var(--icon-stroke, currentColor)" stroke-width="2" stroke-linecap="round" stroke-linejoin="round"/><path d="M15.5 16.25c2.14 0 3.875-1.679 3.875-3.75 0-2.071-1.735-3.75-3.875-3.75-2.14 0-3.875 1.679-3.875 3.75 0 2.071 1.735 3.75 3.875 3.75z" stroke="var(--icon-stroke, currentColor)" stroke-width="2" stroke-linecap="round" stroke-linejoin="round"/></svg><svg fill="none" viewBox="0 0 40 40" id="message-square" xmlns="http://www.w3.org/2000/svg"><path d="M35 25a3.333 3.333 0 01-3.333 3.333h-20L5 35V8.333A3.333 3.333 0 018.333 5h23.334A3.333 3.333 0 0135 8.333V25z" stroke="var(--icon-stroke, currentColor)" stroke-width="3" stroke-linecap="round" stroke-linejoin="round"/></svg><svg fill="none" viewBox="0 0 20 20" id="monitor" xmlns="http://www.w3.org/2000/svg"><path d="M16.667 2.5H3.333c-.92 0-1.666.746-1.666 1.667V12.5c0 .92.746 1.667 1.666 1.667h13.334c.92 0 1.666-.746 1.666-1.667V4.167c0-.92-.746-1.667-1.666-1.667zm-10 15h6.666M10 14.167V17.5" stroke="var(--icon-stroke, currentColor)" stroke-width="1.667" stroke-linecap="round" stroke-linejoin="round"/></svg><svg fill="none" stroke="var(--icon-stroke, currentColor)" stroke-width="2" stroke-linecap="round" stroke-linejoin="round" class="belucide belucide-phone-icon belucide-phone" viewBox="0 0 24 24" id="phone" xmlns="http://www.w3.org/2000/svg"><path d="M13.832 16.568a1 1 0 001.213-.303l.355-.465A2 2 0 0117 15h3a2 2 0 012 2v3a2 2 0 01-2 2A18 18 0 012 4a2 2 0 012-2h3a2 2 0 012 2v3a2 2 0 01-.8 1.6l-.468.351a1 1 0 00-.292 1.233 14 14 0 006.392 6.384"/></svg><svg fill="none" viewBox="0 0 24 24" id="receipt-text" xmlns="http://www.w3.org/2000/svg"><path d="M22 6v2.42C22 10 21 11 19.42 11H16V4.01C16 2.9 16.91 2 18.02 2c1.09.01 2.09.45 2.81 1.17C21.55 3.9 22 4.9 22 6z" stroke="var(--icon-stroke, currentColor)" stroke-width="2" stroke-miterlimit="10" stroke-linecap="round" stroke-linejoin="round"/><path d="M2 7v14c0 .83.94 1.3 1.6.8l1.71-1.28c.4-.3.96-.26 1.32.1l1.66 1.67c.39.39 1.03.39 1.42 0l1.68-1.68c.35-.35.91-.39 1.3-.09l1.71 1.28c.66.49 1.6.02 1.6-.8V4c0-1.1.9-2 2-2H6C3 2 2 3.79 2 6v1z" stroke="var(--icon-stroke, currentColor)" stroke-width="2" stroke-miterlimit="10" stroke-linecap="round" stroke-linejoin="round"/><path d="M6 9h6m-5.25 4h4.5" stroke="var(--icon-stroke, currentColor)" stroke-width="2" stroke-linecap="round" stroke-linejoin="round"/></svg><svg fill="none" viewBox="0 0 26 26" id="ru-store" xmlns="http://www.w3.org/2000/svg"><path d="M13.954 3.138a2 2 0 012.508-1.968l7.161 1.881a2 2 0 011.491 1.87l.397 12.197a2 2 0 01-2.502 2.001l-7.355-1.912a2 2 0 01-1.497-1.903l-.203-12.166z" fill="var(--icon-color, currentColor)"/><path d="M8.437 6.068A2 2 0 0110.944 4.1l7.162 1.881a2 2 0 011.49 1.87l.398 12.198a2 2 0 01-2.503 2l-7.355-1.912a2 2 0 01-1.496-1.902L8.437 6.068z" fill="var(--icon-color, currentColor)"/><path d="M7.257 5.725a2 2 0 012.508-1.967l7.161 1.88a2 2 0 011.49 1.87l.398 12.198a2 2 0 01-2.502 2l-7.355-1.912a2 2 0 01-1.497-1.902L7.257 5.725z" fill="var(--icon-color, currentColor)"/><path d="M1.625 8.846a2 2 0 012.508-1.968l7.161 1.88a2 2 0 011.491 1.87l.397 12.198a2 2 0 01-2.502 2l-7.355-1.912a2 2 0 01-1.497-1.902L1.625 8.846z" fill="var(--icon-color, currentColor)"/><path d="M.445 8.503a2 2 0 012.508-1.968l7.161 1.881a2 2 0 011.491 1.87l.397 12.197A2 2 0 019.5 24.485l-7.355-1.912A2 2 0 01.649 20.67L.445 8.503z" fill="var(--icon-color, currentColor)"/></svg><svg fill="none" viewBox="0 0 20 20" id="shield" xmlns="http://www.w3.org/2000/svg"><path d="M10 18.333S16.667 15 16.667 10V4.167L10 1.667l-6.667 2.5V10c0 5 6.667 8.333 6.667 8.333z" stroke="var(--icon-stroke, currentColor)" stroke-width="1.667" stroke-linecap="round" stroke-linejoin="round"/></svg><svg fill="none" viewBox="0 0 40 38" id="shopping-cart" xmlns="http://www.w3.org/2000/svg"><path d="M1.5 1.5h6.667l4.466 22.317a3.333 3.333 0 003.334 2.683h16.2a3.333 3.333 0 003.333-2.683l2.667-13.984H9.833m6.667 25a1.667 1.667 0 11-3.333 0 1.667 1.667 0 013.333 0zm18.333 0a1.667 1.667 0 11-3.333 0 1.667 1.667 0 013.333 0z" stroke="var(--icon-stroke, currentColor)" stroke-width="3" stroke-linecap="round" stroke-linejoin="round"/></svg><svg fill="none" viewBox="0 0 20 20" id="smartphone" xmlns="http://www.w3.org/2000/svg"><path d="M14.167 1.667H5.833c-.92 0-1.666.746-1.666 1.666v13.334c0 .92.746 1.666 1.666 1.666h8.334c.92 0 1.666-.746 1.666-1.666V3.333c0-.92-.746-1.666-1.666-1.666zM10 15h.008" stroke="var(--icon-stroke, currentColor)" stroke-width="1.667" stroke-linecap="round" stroke-linejoin="round"/></svg><svg fill="none" viewBox="0 0 24 23" id="star" xmlns="http://www.w3.org/2000/svg"><path d="M11.889 0l2.806 8.637h9.082l-7.347 5.338 2.806 8.638-7.347-5.338-7.348 5.338 2.807-8.638L0 8.637h9.082L11.89 0z" fill="var(--icon-color, currentColor)"/></svg><svg fill="none" viewBox="0 0 24 26" id="store" xmlns="http://www.w3.org/2000/svg"><path d="M18.736 16.846l-3.071-2.885L4.339 24.538l14.397-7.692zm0-7.692L4.34 1.462l11.326 10.576 3.072-2.884zm4.128 5.865c.863-.769.863-2.404-.096-3.173l-2.88-1.73-3.071 3.365 3.167 3.365 2.88-1.827zM1.556 25.5L13.937 13 1.556.5C.884.788.5 1.462.5 2.23v21.54c0 .768.384 1.442 1.056 1.73z" fill="var(--icon-color, currentColor)"/></svg><svg fill="none" viewBox="0 0 28 28" id="turnstiles" xmlns="http://www.w3.org/2000/svg"><path d="M7.695 4.756C8.853 4.756 16 4.5 15.501 6l-5.71 8.54v11.182c-1.158 0-4.19.734-4.19-2.766V7.552c0-1.544.937-2.796 2.094-2.796z" stroke="var(--icon-stroke, currentColor)" stroke-width="1.667" stroke-linecap="round" stroke-linejoin="round"/><path d="M13 10l7 5m-7-4.5l2 7.5m-2-8l8.5-1" stroke="var(--icon-stroke, currentColor)" stroke-width="2" stroke-linecap="round" stroke-linejoin="round"/></svg><svg fill="none" viewBox="0 0 20 20" id="umbrella" xmlns="http://www.w3.org/2000/svg"><g clip-path="url(#bna)"><path d="M15 15.833a2.5 2.5 0 11-5 0V10m9.167 0A9.208 9.208 0 00.833 10h18.334z" stroke="var(--icon-stroke, currentColor)" stroke-width="1.667" stroke-linecap="round" stroke-linejoin="round"/></g><defs><clipPath id="bna"><path fill="var(--icon-color, currentColor)" d="M0 0h20v20H0z"/></clipPath></defs></svg><svg fill="none" viewBox="0 0 20 20" id="user-check" xmlns="http://www.w3.org/2000/svg"><path d="M13.333 17.5v-1.667A3.333 3.333 0 0010 12.5H4.167a3.333 3.333 0 00-3.334 3.333V17.5m6.25-8.333a3.333 3.333 0 100-6.667 3.333 3.333 0 000 6.667zm7.084 0l1.666 1.666L19.167 7.5" stroke="var(--icon-stroke, currentColor)" stroke-width="1.667" stroke-linecap="round" stroke-linejoin="round"/></svg><svg fill="none" viewBox="0 0 20 20" id="users" xmlns="http://www.w3.org/2000/svg"><path d="M14.167 17.5v-1.667a3.333 3.333 0 00-3.334-3.333H4.167a3.333 3.333 0 00-3.334 3.333V17.5M7.5 9.167a3.333 3.333 0 100-6.667 3.333 3.333 0 000 6.667zM19.167 17.5v-1.667a3.334 3.334 0 00-2.5-3.225m-3.334-10a3.334 3.334 0 010 6.459" stroke="var(--icon-stroke, currentColor)" stroke-width="1.667" stroke-linecap="round" stroke-linejoin="round"/></svg><svg fill="none" viewBox="0 0 30 30" id="wifi-off" xmlns="http://www.w3.org/2000/svg"><g clip-path="url(#bqa)" stroke="var(--icon-stroke, currentColor)" stroke-width="2" stroke-linecap="round" stroke-linejoin="round"><path d="M1.25 1.25l27.5 27.5M20.9 13.825a13.66 13.66 0 012.85 1.863m-17.5 0a13.674 13.674 0 016.463-2.988m.674-6.387a20 20 0 0114.838 4.937m-26.45 0a19.888 19.888 0 015.875-3.6m3.013 12.487a7.5 7.5 0 018.687 0M15 25h.012"/></g><defs><clipPath id="bqa"><path fill="var(--icon-color, currentColor)" d="M0 0h30v30H0z"/></clipPath></defs></svg></svg>