<?xml version="1.0" encoding="utf-8"?><svg viewBox="0 0 502.66 502.66" xmlns="http://www.w3.org/2000/svg" xmlns:xlink="http://www.w3.org/1999/xlink"><style>:root>svg{display:none}:root>svg:target{display:block}</style><svg viewBox="0 0 24 24" stroke-width="1.5" class="asize-6" id="arrow-left" xmlns="http://www.w3.org/2000/svg"><path d="M10.5 19.5 3 12m0 0 7.5-7.5M3 12h18"/></svg><svg viewBox="0 0 24 24" stroke-width="1.5" class="csize-6" id="arrow-right" xmlns="http://www.w3.org/2000/svg"><path d="M13.5 4.5 21 12m0 0-7.5 7.5M21 12H3"/></svg><svg viewBox="0 0 22 22" id="arrow-right-top" xmlns="http://www.w3.org/2000/svg"><path d="M1.234 19.021a1.5 1.5 0 1 0 2.122 2.121l-1.061-1.06-1.06-1.06ZM21.398 2.478a1.5 1.5 0 0 0-1.5-1.5h-13.5a1.5 1.5 0 0 0 0 3h12v12a1.5 1.5 0 0 0 3 0v-13.5ZM2.295 20.082l1.06 1.06L20.96 3.54 19.9 2.48l-1.061-1.061L1.234 19.02l1.06 1.06Z"/></svg><svg viewBox="0 0 502.664 502.664" xml:space="preserve" id="icon" xmlns="http://www.w3.org/2000/svg"><path d="M153.821 358.226 0 274.337v-46.463l153.821-83.414v54.574L46.636 250.523l107.185 53.431v54.272zm26.273 29.358L282.103 115.08h32.227L212.084 387.584h-31.99zm168.749-29.358v-54.272l107.164-52.999-107.164-52.59v-53.927l153.821 83.522v46.183l-153.821 84.083z"/></svg></svg>