<?xml version="1.0" encoding="utf-8"?><svg viewBox="0 0 502.66 502.66" xmlns="http://www.w3.org/2000/svg" xmlns:xlink="http://www.w3.org/1999/xlink"><style>:root>svg{display:none}:root>svg:target{display:block}</style><svg viewBox="0 0 22 26" id="apple" xmlns="http://www.w3.org/2000/svg"><path d="M18.03 13.848c0-3.155 2.663-4.692 2.825-4.773-1.534-2.184-3.874-2.427-4.761-2.508C14.077 6.325 12.14 7.7 11.172 7.7c-1.05 0-2.582-1.133-4.277-1.133-2.178 0-4.195 1.214-5.325 3.155-2.26 3.883-.565 9.546 1.614 12.62 1.13 1.537 2.34 3.236 4.034 3.155 1.614-.08 2.26-1.051 4.277-1.051 1.936 0 2.501 1.051 4.276.97 1.775 0 2.905-1.537 3.954-3.074 1.29-1.78 1.775-3.478 1.775-3.56-.08.082-3.389-1.132-3.47-4.934Zm-3.227-9.303c.887-1.052 1.452-2.508 1.29-4.045-1.29.08-2.904.89-3.791 1.942-.807.89-1.534 2.426-1.372 3.883 1.452.08 2.985-.728 3.873-1.78Z"/></svg><svg viewBox="0 0 24 24" stroke-width="1.5" class="bsize-6" id="arrow-left" xmlns="http://www.w3.org/2000/svg"><path d="M10.5 19.5 3 12m0 0 7.5-7.5M3 12h18"/></svg><svg viewBox="0 0 24 24" stroke-width="1.5" class="dsize-6" id="arrow-right" xmlns="http://www.w3.org/2000/svg"><path d="M13.5 4.5 21 12m0 0-7.5 7.5M21 12H3"/></svg><svg viewBox="0 0 22 22" id="arrow-right-top" xmlns="http://www.w3.org/2000/svg"><path d="M1.234 19.021a1.5 1.5 0 1 0 2.122 2.121l-1.061-1.06-1.06-1.06ZM21.398 2.478a1.5 1.5 0 0 0-1.5-1.5h-13.5a1.5 1.5 0 0 0 0 3h12v12a1.5 1.5 0 0 0 3 0v-13.5ZM2.295 20.082l1.06 1.06L20.96 3.54 19.9 2.48l-1.061-1.061L1.234 19.02l1.06 1.06Z"/></svg><svg viewBox="0 0 21 21" id="call" xmlns="http://www.w3.org/2000/svg"><g clip-path="url(#ea)"><path d="M1.6 16.07c0 .319.072.647.222.966.151.319.347.62.604.904.435.478.914.824 1.455 1.045.533.222 1.11.337 1.731.337.905 0 1.873-.212 2.893-.647a15.601 15.601 0 0 0 3.053-1.754 25.505 25.505 0 0 0 2.912-2.482 25.192 25.192 0 0 0 2.476-2.897c.727-1.01 1.313-2.02 1.74-3.022.425-1.01.638-1.976.638-2.898 0-.603-.106-1.179-.32-1.71a4.078 4.078 0 0 0-1.02-1.48c-.568-.559-1.19-.833-1.846-.833a1.67 1.67 0 0 0-.719.16c-.23.105-.435.265-.595.495l-2.059 2.898a3.03 3.03 0 0 0-.354.62c-.08.187-.125.373-.125.541 0 .213.062.425.187.63.115.203.284.416.497.629l.674.7a.474.474 0 0 1 .142.354.8.8 0 0 1-.027.204c-.026.07-.053.124-.07.177-.16.293-.435.674-.826 1.134-.4.461-.825.93-1.287 1.4-.479.47-.94.904-1.41 1.303-.462.39-.844.656-1.146.816-.044.017-.097.044-.16.07a.615.615 0 0 1-.221.036.489.489 0 0 1-.364-.15L7.6 12.95a2.722 2.722 0 0 0-.639-.497 1.183 1.183 0 0 0-.63-.186c-.169 0-.346.036-.541.115-.196.08-.4.195-.622.346l-2.937 2.083c-.231.16-.39.345-.488.567a1.815 1.815 0 0 0-.142.691Z"/></g><defs><clipPath id="ea"><path transform="matrix(-1 0 0 1 20.6 .322)" d="M0 0h20v20H0z"/></clipPath></defs></svg><svg viewBox="0 0 502.664 502.664" xml:space="preserve" id="icon" xmlns="http://www.w3.org/2000/svg"><path d="M153.821 358.226 0 274.337v-46.463l153.821-83.414v54.574L46.636 250.523l107.185 53.431v54.272zm26.273 29.358L282.103 115.08h32.227L212.084 387.584h-31.99zm168.749-29.358v-54.272l107.164-52.999-107.164-52.59v-53.927l153.821 83.522v46.183l-153.821 84.083z"/></svg><svg viewBox="0 0 26 26" id="ru-store" xmlns="http://www.w3.org/2000/svg"><path d="M13.954 3.138a2 2 0 0 1 2.508-1.968l7.161 1.881a2 2 0 0 1 1.491 1.87l.397 12.197a2 2 0 0 1-2.502 2.001l-7.355-1.912a2 2 0 0 1-1.497-1.903l-.203-12.166Z"/><path d="M8.437 6.068A2 2 0 0 1 10.944 4.1l7.162 1.881a2 2 0 0 1 1.49 1.87l.398 12.198a2 2 0 0 1-2.503 2l-7.355-1.912a2 2 0 0 1-1.496-1.902L8.437 6.068Z"/><path d="M7.257 5.725a2 2 0 0 1 2.508-1.967l7.161 1.88a2 2 0 0 1 1.49 1.87l.398 12.198a2 2 0 0 1-2.502 2l-7.355-1.912a2 2 0 0 1-1.497-1.902L7.257 5.725Z"/><path d="M1.625 8.846a2 2 0 0 1 2.508-1.968l7.161 1.88a2 2 0 0 1 1.491 1.87l.397 12.198a2 2 0 0 1-2.502 2l-7.355-1.912a2 2 0 0 1-1.497-1.902L1.625 8.846Z"/><path d="M.445 8.503a2 2 0 0 1 2.508-1.968l7.161 1.881a2 2 0 0 1 1.491 1.87l.397 12.197A2 2 0 0 1 9.5 24.485l-7.355-1.912A2 2 0 0 1 .649 20.67L.445 8.503Z"/></svg><svg viewBox="0 0 24 26" id="store" xmlns="http://www.w3.org/2000/svg"><path d="m18.736 16.846-3.071-2.885L4.339 24.538l14.397-7.692Zm0-7.692L4.34 1.462l11.326 10.576 3.072-2.884Zm4.128 5.865c.863-.769.863-2.404-.096-3.173l-2.88-1.73-3.071 3.365 3.167 3.365 2.88-1.827ZM1.556 25.5 13.937 13 1.556.5C.884.788.5 1.462.5 2.23v21.54c0 .768.384 1.442 1.056 1.73Z"/></svg></svg>