<svg width="535" height="428" viewBox="0 0 535 428" fill="none" xmlns="http://www.w3.org/2000/svg">
<g opacity="0.23" filter="url(#filter0_f_5006_2863)">
<ellipse cx="324.176" cy="337.259" rx="108.529" ry="7.94118" fill="black"/>
</g>
<g opacity="0.4" filter="url(#filter1_f_5006_2863)">
<ellipse cx="324.174" cy="337.253" rx="72.6471" ry="3.23529" fill="black"/>
</g>
<g opacity="0.23" filter="url(#filter2_f_5006_2863)">
<ellipse cx="301.533" cy="344.315" rx="12.3529" ry="2.64706" fill="black"/>
</g>
<g opacity="0.23" filter="url(#filter3_f_5006_2863)">
<ellipse cx="336.24" cy="344.315" rx="12.9412" ry="2.64706" fill="black"/>
</g>
<rect x="239" y="321" width="41" height="18" rx="9" fill="url(#paint0_linear_5006_2863)"/>
<rect width="41" height="18" rx="9" transform="matrix(-1 0 0 1 407 320)" fill="url(#paint1_linear_5006_2863)"/>
<path d="M237.314 127.358V96.6724C237.314 86.8561 249.197 81.9557 256.117 88.9181L274.335 107.249L237.314 127.358Z" fill="url(#paint2_linear_5006_2863)"/>
<path d="M237.314 131.467V97.4261C237.314 91.1239 244.991 88.0314 249.36 92.5735L266.108 109.986L237.314 131.467Z" fill="url(#paint3_linear_5006_2863)"/>
<path d="M237.314 131.467V97.4261C237.314 91.1239 244.991 88.0314 249.36 92.5735L266.108 109.986L237.314 131.467Z" fill="url(#paint4_linear_5006_2863)"/>
<path d="M408.695 127.358V96.6724C408.695 86.8561 396.813 81.9557 389.893 88.9181L371.675 107.249L408.695 127.358Z" fill="url(#paint5_linear_5006_2863)"/>
<path d="M408.695 131.467V97.4261C408.695 91.1239 401.019 88.0314 396.65 92.5735L379.902 109.986L408.695 131.467Z" fill="url(#paint6_linear_5006_2863)"/>
<path d="M408.695 131.467V97.4261C408.695 91.1239 401.019 88.0314 396.65 92.5735L379.902 109.986L408.695 131.467Z" fill="url(#paint7_linear_5006_2863)"/>
<path d="M208.854 181.797C213.037 121.764 262.957 75.2016 323.136 75.2016C383.391 75.2016 433.347 121.879 437.431 181.995L440.462 226.601C444.54 286.623 396.951 337.555 336.79 337.555H309.446C249.191 337.555 201.558 286.488 205.747 226.378L208.854 181.797Z" fill="url(#paint8_linear_5006_2863)"/>
<path d="M208.854 181.797C213.037 121.764 262.957 75.2016 323.136 75.2016C383.391 75.2016 433.347 121.879 437.431 181.995L440.462 226.601C444.54 286.623 396.951 337.555 336.79 337.555H309.446C249.191 337.555 201.558 286.488 205.747 226.378L208.854 181.797Z" fill="url(#paint9_radial_5006_2863)"/>
<path d="M348.365 341.547C345.685 344.95 341.592 346.936 337.26 346.936C331.944 346.936 327.61 342.674 327.52 337.359L326.843 297.16C326.767 292.674 330.382 288.998 334.868 288.998H357.323C370.467 288.998 377.822 304.155 369.688 314.48L348.365 341.547Z" fill="url(#paint10_linear_5006_2863)"/>
<path d="M293.574 341.547C296.255 344.95 300.347 346.936 304.679 346.936C309.995 346.936 314.329 342.674 314.419 337.359L315.097 297.16C315.172 292.674 311.557 288.998 307.071 288.998H284.617C271.473 288.998 264.118 304.155 272.252 314.48L293.574 341.547Z" fill="url(#paint11_linear_5006_2863)"/>
<path d="M277.919 379.451C240.889 369.75 208.217 347.836 185.192 317.255C162.167 286.675 150.136 249.218 151.048 210.95C151.96 172.681 165.761 135.84 190.217 106.391C214.673 76.9425 248.352 56.6094 285.802 48.6838C323.252 40.7581 362.281 45.7038 396.57 62.7202C430.86 79.7366 458.402 107.828 474.74 142.446C491.077 177.064 495.252 216.183 486.59 253.469C477.928 290.756 456.935 324.028 427.01 347.898" stroke="white" stroke-opacity="0.44" stroke-width="2"/>
<path d="M510 213.5C510 254.462 496.727 294.322 472.17 327.107C447.613 359.892 413.093 383.837 373.784 395.355C334.474 406.872 292.491 405.343 254.124 390.995C215.756 376.647 183.071 350.253 160.965 315.768C138.859 281.283 128.522 240.563 131.502 199.71C134.483 158.856 150.622 120.068 177.5 89.1572C204.377 58.2463 240.548 36.8767 280.591 28.2501C320.635 19.6234 362.396 24.2042 399.617 41.3062" stroke="white" stroke-opacity="0.4" stroke-width="2"/>
<path d="M160.657 74.7999C188.757 42.178 226.069 18.8681 267.663 7.94918C309.258 -2.96978 353.178 -0.984237 393.623 13.6436C434.068 28.2714 469.135 54.8534 494.191 89.8785C519.248 124.904 533.114 166.724 533.959 209.815C534.804 252.906 522.587 295.24 498.923 331.225C475.259 367.21 441.261 395.152 401.421 411.362C361.58 427.571 317.771 431.284 275.781 422.012C233.791 412.739 195.594 390.917 166.237 359.427" stroke="white" stroke-opacity="0.4" stroke-width="2"/>
<rect y="52" width="184" height="67" rx="10" fill="url(#paint12_linear_5006_2863)"/>
<path d="M30.788 83H29.108V78.864H25.852L25.172 78.784C24.2333 78.6187 23.5293 78.2054 23.06 77.544C22.5907 76.8774 22.356 76.0854 22.356 75.168C22.356 74.5494 22.4627 73.984 22.676 73.472C22.8893 72.96 23.2093 72.536 23.636 72.2C24.0627 71.864 24.5987 71.6454 25.244 71.544C25.3933 71.5174 25.5507 71.5014 25.716 71.496C25.8813 71.4854 26.02 71.48 26.132 71.48H30.788V83ZM24.052 83H22.14L24.636 77.88L26.324 78.312L24.052 83ZM29.108 77.28V73.056H26.196C26.0893 73.056 25.9693 73.0614 25.836 73.072C25.708 73.0827 25.5853 73.104 25.468 73.136C25.1267 73.216 24.852 73.3654 24.644 73.584C24.436 73.7974 24.284 74.0454 24.188 74.328C24.0973 74.6054 24.052 74.8854 24.052 75.168C24.052 75.4507 24.0973 75.7334 24.188 76.016C24.284 76.2987 24.436 76.5494 24.644 76.768C24.852 76.9814 25.1267 77.128 25.468 77.208C25.5853 77.2347 25.708 77.2534 25.836 77.264C25.9693 77.2747 26.0893 77.28 26.196 77.28H29.108ZM40.4054 83.24C39.52 83.24 38.768 83.0427 38.1494 82.648C37.5307 82.2534 37.056 81.712 36.7254 81.024C36.4 80.336 36.2347 79.5547 36.2294 78.68C36.2347 77.7894 36.4054 77.0027 36.7414 76.32C37.0774 75.632 37.5574 75.0934 38.1814 74.704C38.8054 74.3147 39.5547 74.12 40.4294 74.12C41.3734 74.12 42.1787 74.3547 42.8454 74.824C43.5174 75.2934 43.96 75.936 44.1734 76.752L42.5094 77.232C42.344 76.7467 42.072 76.3707 41.6934 76.104C41.32 75.832 40.8907 75.696 40.4054 75.696C39.856 75.696 39.4054 75.8267 39.0534 76.088C38.7014 76.344 38.44 76.696 38.2694 77.144C38.0987 77.592 38.0107 78.104 38.0054 78.68C38.0107 79.5707 38.2134 80.2907 38.6134 80.84C39.0187 81.3894 39.616 81.664 40.4054 81.664C40.944 81.664 41.3787 81.5414 41.7094 81.296C42.0454 81.0454 42.3014 80.688 42.4774 80.224L44.1734 80.624C43.8907 81.4667 43.424 82.1147 42.7734 82.568C42.1227 83.016 41.3334 83.24 40.4054 83.24ZM49.5607 83.24C48.6967 83.24 47.9474 83.0454 47.3127 82.656C46.6781 82.2667 46.1874 81.7307 45.8407 81.048C45.4994 80.36 45.3287 79.568 45.3287 78.672C45.3287 77.7707 45.5047 76.9787 45.8567 76.296C46.2087 75.608 46.7021 75.0747 47.3367 74.696C47.9714 74.312 48.7127 74.12 49.5607 74.12C50.4247 74.12 51.1741 74.3147 51.8087 74.704C52.4434 75.0934 52.9341 75.6294 53.2807 76.312C53.6274 76.9947 53.8007 77.7814 53.8007 78.672C53.8007 79.5734 53.6247 80.368 53.2727 81.056C52.9261 81.7387 52.4354 82.2747 51.8007 82.664C51.1661 83.048 50.4194 83.24 49.5607 83.24ZM49.5607 81.664C50.3874 81.664 51.0034 81.3867 51.4087 80.832C51.8194 80.272 52.0247 79.552 52.0247 78.672C52.0247 77.7707 51.8167 77.0507 51.4007 76.512C50.9901 75.968 50.3767 75.696 49.5607 75.696C49.0007 75.696 48.5394 75.824 48.1767 76.08C47.8141 76.3307 47.5447 76.68 47.3687 77.128C47.1927 77.5707 47.1047 78.0854 47.1047 78.672C47.1047 79.5787 47.3127 80.304 47.7287 80.848C48.1447 81.392 48.7554 81.664 49.5607 81.664ZM58.6444 83.24C57.807 83.24 57.055 83.0614 56.3884 82.704C55.727 82.3467 55.2044 81.8534 54.8204 81.224L56.1484 80.352C56.4577 80.768 56.815 81.0907 57.2204 81.32C57.631 81.5494 58.0924 81.664 58.6044 81.664C59.1377 81.664 59.559 81.544 59.8684 81.304C60.183 81.0587 60.3404 80.7307 60.3404 80.32C60.3404 79.9947 60.2497 79.7547 60.0684 79.6C59.8924 79.44 59.647 79.336 59.3324 79.288C59.023 79.24 58.671 79.216 58.2764 79.216H57.5084V77.872H58.2764C58.799 77.872 59.2284 77.8 59.5644 77.656C59.9057 77.5067 60.0764 77.2267 60.0764 76.816C60.0764 76.416 59.9297 76.128 59.6364 75.952C59.3484 75.776 59.0044 75.688 58.6044 75.688C58.1564 75.688 57.7217 75.784 57.3004 75.976C56.879 76.1627 56.511 76.3947 56.1964 76.672L55.2204 75.528C55.679 75.0854 56.2017 74.7414 56.7884 74.496C57.3804 74.2454 58.015 74.12 58.6924 74.12C59.247 74.12 59.759 74.2187 60.2284 74.416C60.703 74.608 61.0817 74.8934 61.3644 75.272C61.6524 75.6507 61.7964 76.1174 61.7964 76.672C61.7964 77.104 61.7004 77.4987 61.5084 77.856C61.3164 78.2134 61.023 78.5387 60.6284 78.832L60.5804 78.264C60.9057 78.3654 61.1777 78.528 61.3964 78.752C61.615 78.976 61.7777 79.24 61.8844 79.544C61.9964 79.8427 62.0524 80.16 62.0524 80.496C62.0524 81.0774 61.8977 81.5734 61.5884 81.984C61.2844 82.3947 60.8737 82.7067 60.3564 82.92C59.839 83.1334 59.2684 83.24 58.6444 83.24ZM63.4144 84.92V81.656C63.889 81.656 64.2277 81.4987 64.4304 81.184C64.6384 80.864 64.8037 80.3227 64.9264 79.56C65.001 79.096 65.0624 78.6027 65.1104 78.08C65.1637 77.5574 65.209 76.992 65.2464 76.384C65.2837 75.7707 65.321 75.096 65.3584 74.36H71.5504V81.656H72.3984V84.92H70.8144V83H65.0064V84.92H63.4144ZM65.8064 81.656H69.8704V75.704H66.8464C66.825 76.056 66.801 76.4187 66.7744 76.792C66.753 77.1654 66.7264 77.536 66.6944 77.904C66.6677 78.272 66.6357 78.624 66.5984 78.96C66.561 79.296 66.5184 79.6 66.4704 79.872C66.4064 80.2934 66.329 80.6454 66.2384 80.928C66.153 81.2107 66.009 81.4534 65.8064 81.656ZM76.6719 83.24C76.0319 83.24 75.4959 83.1227 75.0639 82.888C74.6319 82.648 74.3039 82.3334 74.0799 81.944C73.8612 81.5494 73.7519 81.1174 73.7519 80.648C73.7519 80.2107 73.8292 79.8267 73.9839 79.496C74.1385 79.1654 74.3679 78.8854 74.6719 78.656C74.9759 78.4214 75.3492 78.232 75.7919 78.088C76.1759 77.976 76.6105 77.8774 77.0959 77.792C77.5812 77.7067 78.0905 77.6267 78.6239 77.552C79.1625 77.4774 79.6959 77.4027 80.2239 77.328L79.6159 77.664C79.6265 76.9867 79.4825 76.4854 79.1839 76.16C78.8905 75.8294 78.3839 75.664 77.6639 75.664C77.2105 75.664 76.7945 75.7707 76.4159 75.984C76.0372 76.192 75.7732 76.5387 75.6239 77.024L74.0639 76.544C74.2772 75.8027 74.6825 75.2134 75.2799 74.776C75.8825 74.3387 76.6825 74.12 77.6799 74.12C78.4532 74.12 79.1252 74.2534 79.6959 74.52C80.2719 74.7814 80.6932 75.1974 80.9599 75.768C81.0985 76.0507 81.1839 76.3494 81.2159 76.664C81.2479 76.9787 81.2639 77.3174 81.2639 77.68V83H79.7839V81.024L80.0719 81.28C79.7145 81.9414 79.2585 82.4347 78.7039 82.76C78.1545 83.08 77.4772 83.24 76.6719 83.24ZM76.9679 81.872C77.4425 81.872 77.8505 81.7894 78.1919 81.624C78.5332 81.4534 78.8079 81.2374 79.0159 80.976C79.2239 80.7147 79.3599 80.4427 79.4239 80.16C79.5145 79.904 79.5652 79.616 79.5759 79.296C79.5919 78.976 79.5999 78.72 79.5999 78.528L80.1439 78.728C79.6159 78.808 79.1359 78.88 78.7039 78.944C78.2719 79.008 77.8799 79.072 77.5279 79.136C77.1812 79.1947 76.8719 79.2667 76.5999 79.352C76.3705 79.432 76.1652 79.528 75.9839 79.64C75.8079 79.752 75.6665 79.888 75.5599 80.048C75.4585 80.208 75.4079 80.4027 75.4079 80.632C75.4079 80.856 75.4639 81.064 75.5759 81.256C75.6879 81.4427 75.8585 81.592 76.0879 81.704C76.3172 81.816 76.6105 81.872 76.9679 81.872ZM83.5733 83V74.36H85.2453V77.888H89.4613V74.36H91.1333V83H89.4613V79.464H85.2453V83H83.5733ZM96.4213 84.92V81.656C96.8959 81.656 97.2346 81.4987 97.4373 81.184C97.6453 80.864 97.8106 80.3227 97.9333 79.56C98.0079 79.096 98.0693 78.6027 98.1173 78.08C98.1706 77.5574 98.2159 76.992 98.2533 76.384C98.2906 75.7707 98.3279 75.096 98.3653 74.36H104.557V81.656H105.405V84.92H103.821V83H98.0133V84.92H96.4213ZM98.8133 81.656H102.877V75.704H99.8533C99.8319 76.056 99.8079 76.4187 99.7813 76.792C99.7599 77.1654 99.7333 77.536 99.7013 77.904C99.6746 78.272 99.6426 78.624 99.6053 78.96C99.5679 79.296 99.5253 79.6 99.4773 79.872C99.4133 80.2934 99.3359 80.6454 99.2453 80.928C99.1599 81.2107 99.0159 81.4534 98.8133 81.656ZM106.439 83V81.584C106.759 81.6427 107.001 81.6347 107.167 81.56C107.337 81.48 107.463 81.336 107.543 81.128C107.628 80.92 107.7 80.6507 107.759 80.32C107.849 79.8347 107.927 79.2827 107.991 78.664C108.06 78.04 108.121 77.3654 108.175 76.64C108.228 75.9147 108.276 75.1547 108.319 74.36H114.527V83H112.847V75.936H109.823C109.791 76.3574 109.753 76.8054 109.711 77.28C109.673 77.7494 109.631 78.216 109.583 78.68C109.535 79.144 109.484 79.5787 109.431 79.984C109.377 80.3894 109.321 80.736 109.263 81.024C109.156 81.6 108.999 82.0587 108.791 82.4C108.588 82.736 108.3 82.952 107.927 83.048C107.553 83.1494 107.057 83.1334 106.439 83ZM122.266 83V80H120.554C120.351 80 120.109 79.992 119.826 79.976C119.549 79.96 119.287 79.9307 119.042 79.888C118.397 79.7707 117.858 79.4907 117.426 79.048C116.994 78.6 116.778 77.984 116.778 77.2C116.778 76.4427 116.981 75.8347 117.386 75.376C117.797 74.912 118.317 74.6134 118.946 74.48C119.218 74.416 119.495 74.3814 119.778 74.376C120.066 74.3654 120.309 74.36 120.506 74.36H123.938L123.946 83H122.266ZM116.53 83L118.714 79.584H120.482L118.314 83H116.53ZM120.41 78.656H122.266V75.704H120.41C120.293 75.704 120.149 75.7094 119.978 75.72C119.807 75.7307 119.642 75.76 119.482 75.808C119.317 75.856 119.157 75.9414 119.002 76.064C118.853 76.1867 118.73 76.344 118.634 76.536C118.538 76.7227 118.49 76.9387 118.49 77.184C118.49 77.552 118.594 77.856 118.802 78.096C119.01 78.3307 119.258 78.4854 119.546 78.56C119.701 78.6027 119.855 78.6294 120.01 78.64C120.165 78.6507 120.298 78.656 120.41 78.656ZM21.66 103L24.988 98.68L21.844 94.36H23.684L26.692 98.576V94.36H28.196V98.576L31.204 94.36H33.052L29.908 98.68L33.236 103H31.292L28.196 98.784V103H26.692V98.784L23.604 103H21.66ZM42.0306 94.36V103H40.4226V96.992L36.1026 103H34.7426V94.36H36.3506V100.248L40.6786 94.36H42.0306ZM44.4982 103V94.36H48.2982C48.5489 94.36 48.7996 94.376 49.0502 94.408C49.3009 94.4347 49.5222 94.4747 49.7142 94.528C50.1516 94.6507 50.5249 94.896 50.8342 95.264C51.1436 95.6267 51.2982 96.112 51.2982 96.72C51.2982 97.0667 51.2449 97.36 51.1382 97.6C51.0316 97.8347 50.8849 98.0374 50.6982 98.208C50.6129 98.2827 50.5223 98.3494 50.4262 98.408C50.3302 98.4667 50.2342 98.512 50.1382 98.544C50.3356 98.576 50.5302 98.6454 50.7222 98.752C51.0156 98.9067 51.2556 99.1307 51.4423 99.424C51.6343 99.712 51.7303 100.099 51.7303 100.584C51.7303 101.165 51.5889 101.653 51.3063 102.048C51.0236 102.437 50.6236 102.704 50.1062 102.848C49.9036 102.907 49.6742 102.947 49.4182 102.968C49.1676 102.989 48.9169 103 48.6662 103H44.4982ZM46.1942 101.68H48.5622C48.6742 101.68 48.8022 101.669 48.9462 101.648C49.0903 101.627 49.2182 101.597 49.3302 101.56C49.5702 101.485 49.7409 101.349 49.8422 101.152C49.9489 100.955 50.0022 100.744 50.0022 100.52C50.0022 100.216 49.9222 99.9734 49.7622 99.792C49.6022 99.6054 49.3996 99.4854 49.1542 99.432C49.0476 99.3947 48.9302 99.3734 48.8022 99.368C48.6742 99.3627 48.5649 99.36 48.4742 99.36H46.1942V101.68ZM46.1942 98.016H48.0662C48.2209 98.016 48.3782 98.008 48.5382 97.992C48.6982 97.9707 48.8369 97.936 48.9542 97.888C49.1622 97.808 49.3169 97.6747 49.4182 97.488C49.5196 97.296 49.5703 97.088 49.5703 96.864C49.5703 96.6187 49.5142 96.4 49.4022 96.208C49.2902 96.016 49.1222 95.8827 48.8982 95.808C48.7436 95.7547 48.5649 95.7254 48.3622 95.72C48.1649 95.7094 48.0396 95.704 47.9862 95.704H46.1942V98.016ZM53.5664 103V94.36H55.2464V97.36H56.3824C56.6277 97.36 56.8917 97.3654 57.1744 97.376C57.457 97.3867 57.697 97.4134 57.8944 97.456C58.3584 97.552 58.761 97.712 59.1024 97.936C59.4437 98.16 59.705 98.4587 59.8864 98.832C60.073 99.2 60.1664 99.6534 60.1664 100.192C60.1664 100.944 59.9717 101.544 59.5824 101.992C59.193 102.435 58.665 102.733 57.9984 102.888C57.785 102.936 57.5317 102.968 57.2384 102.984C56.9504 102.995 56.6837 103 56.4384 103H53.5664ZM55.2464 101.656H56.5344C56.673 101.656 56.8277 101.651 56.9984 101.64C57.169 101.629 57.3264 101.605 57.4704 101.568C57.721 101.493 57.9477 101.341 58.1504 101.112C58.353 100.883 58.4544 100.576 58.4544 100.192C58.4544 99.7974 58.353 99.4827 58.1504 99.248C57.953 99.0134 57.7024 98.8614 57.3984 98.792C57.2597 98.7547 57.113 98.7307 56.9584 98.72C56.809 98.7094 56.6677 98.704 56.5344 98.704H55.2464V101.656ZM61.1184 103V94.36H62.7904V103H61.1184ZM64.3075 103L67.5395 98.632L64.3795 94.36H66.3635L68.5155 97.328L70.6435 94.36H72.6275L69.4675 98.632L72.7075 103H70.7155L68.5155 99.936L66.2995 103H64.3075ZM77.0294 104.92V101.656C77.504 101.656 77.8427 101.499 78.0454 101.184C78.2534 100.864 78.4187 100.323 78.5414 99.56C78.616 99.096 78.6774 98.6027 78.7254 98.08C78.7787 97.5574 78.824 96.992 78.8614 96.384C78.8987 95.7707 78.936 95.096 78.9734 94.36H85.1654V101.656H86.0134V104.92H84.4294V103H78.6214V104.92H77.0294ZM79.4214 101.656H83.4854V95.704H80.4614C80.44 96.056 80.416 96.4187 80.3894 96.792C80.368 97.1654 80.3414 97.536 80.3094 97.904C80.2827 98.272 80.2507 98.624 80.2134 98.96C80.176 99.296 80.1334 99.6 80.0854 99.872C80.0214 100.293 79.944 100.645 79.8534 100.928C79.768 101.211 79.624 101.453 79.4214 101.656ZM95.1269 94.36V103H93.5189V96.992L89.1989 103H87.8389V94.36H89.4469V100.248L93.7749 94.36H95.1269ZM100.042 103.24C99.4025 103.24 98.8665 103.123 98.4345 102.888C98.0025 102.648 97.6745 102.333 97.4505 101.944C97.2318 101.549 97.1225 101.117 97.1225 100.648C97.1225 100.211 97.1998 99.8267 97.3545 99.496C97.5092 99.1654 97.7385 98.8854 98.0425 98.656C98.3465 98.4214 98.7198 98.232 99.1625 98.088C99.5465 97.976 99.9812 97.8774 100.466 97.792C100.952 97.7067 101.461 97.6267 101.994 97.552C102.533 97.4774 103.066 97.4027 103.594 97.328L102.986 97.664C102.997 96.9867 102.853 96.4854 102.554 96.16C102.261 95.8294 101.754 95.664 101.034 95.664C100.581 95.664 100.165 95.7707 99.7865 95.984C99.4078 96.192 99.1438 96.5387 98.9945 97.024L97.4345 96.544C97.6478 95.8027 98.0532 95.2134 98.6505 94.776C99.2532 94.3387 100.053 94.12 101.05 94.12C101.824 94.12 102.496 94.2534 103.066 94.52C103.642 94.7814 104.064 95.1974 104.33 95.768C104.469 96.0507 104.554 96.3494 104.586 96.664C104.618 96.9787 104.634 97.3174 104.634 97.68V103H103.154V101.024L103.442 101.28C103.085 101.941 102.629 102.435 102.074 102.76C101.525 103.08 100.848 103.24 100.042 103.24ZM100.338 101.872C100.813 101.872 101.221 101.789 101.562 101.624C101.904 101.453 102.178 101.237 102.386 100.976C102.594 100.715 102.73 100.443 102.794 100.16C102.885 99.904 102.936 99.616 102.946 99.296C102.962 98.976 102.97 98.72 102.97 98.528L103.514 98.728C102.986 98.808 102.506 98.88 102.074 98.944C101.642 99.008 101.25 99.072 100.898 99.136C100.552 99.1947 100.242 99.2667 99.9705 99.352C99.7412 99.432 99.5358 99.528 99.3545 99.64C99.1785 99.752 99.0372 99.888 98.9305 100.048C98.8292 100.208 98.7785 100.403 98.7785 100.632C98.7785 100.856 98.8345 101.064 98.9465 101.256C99.0585 101.443 99.2292 101.592 99.4585 101.704C99.6878 101.816 99.9812 101.872 100.338 101.872ZM106.152 103V101.584C106.472 101.643 106.715 101.635 106.88 101.56C107.051 101.48 107.176 101.336 107.256 101.128C107.341 100.92 107.413 100.651 107.472 100.32C107.563 99.8347 107.64 99.2827 107.704 98.664C107.773 98.04 107.835 97.3654 107.888 96.64C107.941 95.9147 107.989 95.1547 108.032 94.36H114.24V103H112.56V95.936H109.536C109.504 96.3574 109.467 96.8054 109.424 97.28C109.387 97.7494 109.344 98.216 109.296 98.68C109.248 99.144 109.197 99.5787 109.144 99.984C109.091 100.389 109.035 100.736 108.976 101.024C108.869 101.6 108.712 102.059 108.504 102.4C108.301 102.736 108.013 102.952 107.64 103.048C107.267 103.149 106.771 103.133 106.152 103ZM120.475 103.24C119.611 103.24 118.862 103.045 118.227 102.656C117.592 102.267 117.102 101.731 116.755 101.048C116.414 100.36 116.243 99.568 116.243 98.672C116.243 97.7707 116.419 96.9787 116.771 96.296C117.123 95.608 117.616 95.0747 118.251 94.696C118.886 94.312 119.627 94.12 120.475 94.12C121.339 94.12 122.088 94.3147 122.723 94.704C123.358 95.0934 123.848 95.6294 124.195 96.312C124.542 96.9947 124.715 97.7814 124.715 98.672C124.715 99.5734 124.539 100.368 124.187 101.056C123.84 101.739 123.35 102.275 122.715 102.664C122.08 103.048 121.334 103.24 120.475 103.24ZM120.475 101.664C121.302 101.664 121.918 101.387 122.323 100.832C122.734 100.272 122.939 99.552 122.939 98.672C122.939 97.7707 122.731 97.0507 122.315 96.512C121.904 95.968 121.291 95.696 120.475 95.696C119.915 95.696 119.454 95.824 119.091 96.08C118.728 96.3307 118.459 96.68 118.283 97.128C118.107 97.5707 118.019 98.0854 118.019 98.672C118.019 99.5787 118.227 100.304 118.643 100.848C119.059 101.392 119.67 101.664 120.475 101.664ZM126.713 103V94.36H132.793V95.936H128.385V103H126.713ZM138.143 103.24C137.279 103.24 136.529 103.045 135.895 102.656C135.26 102.267 134.769 101.731 134.423 101.048C134.081 100.36 133.911 99.568 133.911 98.672C133.911 97.7707 134.087 96.9787 134.439 96.296C134.791 95.608 135.284 95.0747 135.919 94.696C136.553 94.312 137.295 94.12 138.143 94.12C139.007 94.12 139.756 94.3147 140.391 94.704C141.025 95.0934 141.516 95.6294 141.863 96.312C142.209 96.9947 142.383 97.7814 142.383 98.672C142.383 99.5734 142.207 100.368 141.855 101.056C141.508 101.739 141.017 102.275 140.383 102.664C139.748 103.048 139.001 103.24 138.143 103.24ZM138.143 101.664C138.969 101.664 139.585 101.387 139.991 100.832C140.401 100.272 140.607 99.552 140.607 98.672C140.607 97.7707 140.399 97.0507 139.983 96.512C139.572 95.968 138.959 95.696 138.143 95.696C137.583 95.696 137.121 95.824 136.759 96.08C136.396 96.3307 136.127 96.68 135.951 97.128C135.775 97.5707 135.687 98.0854 135.687 98.672C135.687 99.5787 135.895 100.304 136.311 100.848C136.727 101.392 137.337 101.664 138.143 101.664ZM144.373 103V94.36H148.173C148.423 94.36 148.674 94.376 148.925 94.408C149.175 94.4347 149.397 94.4747 149.589 94.528C150.026 94.6507 150.399 94.896 150.709 95.264C151.018 95.6267 151.173 96.112 151.173 96.72C151.173 97.0667 151.119 97.36 151.013 97.6C150.906 97.8347 150.759 98.0374 150.573 98.208C150.487 98.2827 150.397 98.3494 150.301 98.408C150.205 98.4667 150.109 98.512 150.013 98.544C150.21 98.576 150.405 98.6454 150.597 98.752C150.89 98.9067 151.13 99.1307 151.317 99.424C151.509 99.712 151.605 100.099 151.605 100.584C151.605 101.165 151.463 101.653 151.181 102.048C150.898 102.437 150.498 102.704 149.981 102.848C149.778 102.907 149.549 102.947 149.293 102.968C149.042 102.989 148.791 103 148.541 103H144.373ZM146.069 101.68H148.437C148.549 101.68 148.677 101.669 148.821 101.648C148.965 101.627 149.093 101.597 149.205 101.56C149.445 101.485 149.615 101.349 149.717 101.152C149.823 100.955 149.877 100.744 149.877 100.52C149.877 100.216 149.797 99.9734 149.637 99.792C149.477 99.6054 149.274 99.4854 149.029 99.432C148.922 99.3947 148.805 99.3734 148.677 99.368C148.549 99.3627 148.439 99.36 148.349 99.36H146.069V101.68ZM146.069 98.016H147.941C148.095 98.016 148.253 98.008 148.413 97.992C148.573 97.9707 148.711 97.936 148.829 97.888C149.037 97.808 149.191 97.6747 149.293 97.488C149.394 97.296 149.445 97.088 149.445 96.864C149.445 96.6187 149.389 96.4 149.277 96.208C149.165 96.016 148.997 95.8827 148.773 95.808C148.618 95.7547 148.439 95.7254 148.237 95.72C148.039 95.7094 147.914 95.704 147.861 95.704H146.069V98.016Z" fill="white"/>
<path d="M185.724 120.243L179.23 118.999L178.173 118.999L175.003 118.999L181.8 104.999L182.754 108L183.57 110.169L186.502 118.733C186.778 119.54 186.354 120.363 185.724 120.243Z" fill="url(#paint13_linear_5006_2863)"/>
<defs>
<filter id="filter0_f_5006_2863" x="202.646" y="316.318" width="243.059" height="41.8824" filterUnits="userSpaceOnUse" color-interpolation-filters="sRGB">
<feFlood flood-opacity="0" result="BackgroundImageFix"/>
<feBlend mode="normal" in="SourceGraphic" in2="BackgroundImageFix" result="shape"/>
<feGaussianBlur stdDeviation="6.5" result="effect1_foregroundBlur_5006_2863"/>
</filter>
<filter id="filter1_f_5006_2863" x="237.527" y="320.018" width="173.295" height="34.4706" filterUnits="userSpaceOnUse" color-interpolation-filters="sRGB">
<feFlood flood-opacity="0" result="BackgroundImageFix"/>
<feBlend mode="normal" in="SourceGraphic" in2="BackgroundImageFix" result="shape"/>
<feGaussianBlur stdDeviation="7" result="effect1_foregroundBlur_5006_2863"/>
</filter>
<filter id="filter2_f_5006_2863" x="279.18" y="331.668" width="44.7051" height="25.2941" filterUnits="userSpaceOnUse" color-interpolation-filters="sRGB">
<feFlood flood-opacity="0" result="BackgroundImageFix"/>
<feBlend mode="normal" in="SourceGraphic" in2="BackgroundImageFix" result="shape"/>
<feGaussianBlur stdDeviation="5" result="effect1_foregroundBlur_5006_2863"/>
</filter>
<filter id="filter3_f_5006_2863" x="313.299" y="331.668" width="45.8828" height="25.2941" filterUnits="userSpaceOnUse" color-interpolation-filters="sRGB">
<feFlood flood-opacity="0" result="BackgroundImageFix"/>
<feBlend mode="normal" in="SourceGraphic" in2="BackgroundImageFix" result="shape"/>
<feGaussianBlur stdDeviation="5" result="effect1_foregroundBlur_5006_2863"/>
</filter>
<linearGradient id="paint0_linear_5006_2863" x1="241.05" y1="339" x2="255.935" y2="326.795" gradientUnits="userSpaceOnUse">
<stop stop-color="#F0F0F0"/>
<stop offset="0.212398" stop-color="#E9E9E9"/>
<stop offset="1" stop-color="#B9B9B9"/>
</linearGradient>
<linearGradient id="paint1_linear_5006_2863" x1="2.05" y1="18" x2="16.9345" y2="5.7947" gradientUnits="userSpaceOnUse">
<stop stop-color="#F0F0F0"/>
<stop offset="0.212398" stop-color="#E9E9E9"/>
<stop offset="1" stop-color="#D1D1D1"/>
</linearGradient>
<linearGradient id="paint2_linear_5006_2863" x1="237.314" y1="77.3126" x2="258.147" y2="108.596" gradientUnits="userSpaceOnUse">
<stop stop-color="#EDEDED"/>
<stop offset="0.196189" stop-color="#EEEEEE"/>
<stop offset="0.515916" stop-color="#E9E9E9"/>
<stop offset="1" stop-color="#C8C8C8"/>
</linearGradient>
<linearGradient id="paint3_linear_5006_2863" x1="257.663" y1="81.6225" x2="232.639" y2="106.289" gradientUnits="userSpaceOnUse">
<stop stop-color="#CECECE"/>
<stop offset="1" stop-color="#DBDBDB" stop-opacity="0.56"/>
</linearGradient>
<linearGradient id="paint4_linear_5006_2863" x1="249.426" y1="80.0505" x2="249.426" y2="112.883" gradientUnits="userSpaceOnUse">
<stop stop-color="#494949"/>
<stop offset="1" stop-color="#161616"/>
</linearGradient>
<linearGradient id="paint5_linear_5006_2863" x1="408.695" y1="77.3126" x2="387.863" y2="108.596" gradientUnits="userSpaceOnUse">
<stop stop-color="#EDEDED"/>
<stop offset="0.196189" stop-color="#EEEEEE"/>
<stop offset="0.515916" stop-color="#E9E9E9"/>
<stop offset="1" stop-color="#C8C8C8"/>
</linearGradient>
<linearGradient id="paint6_linear_5006_2863" x1="388.347" y1="81.6225" x2="413.371" y2="106.289" gradientUnits="userSpaceOnUse">
<stop stop-color="#CECECE"/>
<stop offset="1" stop-color="#DBDBDB" stop-opacity="0.56"/>
</linearGradient>
<linearGradient id="paint7_linear_5006_2863" x1="396.584" y1="80.0505" x2="396.584" y2="112.883" gradientUnits="userSpaceOnUse">
<stop stop-color="#494949"/>
<stop offset="1" stop-color="#161616"/>
</linearGradient>
<linearGradient id="paint8_linear_5006_2863" x1="235.934" y1="86.114" x2="243.005" y2="317.971" gradientUnits="userSpaceOnUse">
<stop stop-color="#F0F0F0"/>
<stop offset="1" stop-color="#E6E6E6"/>
</linearGradient>
<radialGradient id="paint9_radial_5006_2863" cx="0" cy="0" r="1" gradientUnits="userSpaceOnUse" gradientTransform="translate(323 337.555) rotate(90) scale(23.9957 79.146)">
<stop stop-opacity="0.34"/>
<stop offset="1" stop-opacity="0"/>
</radialGradient>
<linearGradient id="paint10_linear_5006_2863" x1="342.335" y1="346.119" x2="341.124" y2="307.051" gradientUnits="userSpaceOnUse">
<stop stop-color="#EAEAEA"/>
<stop offset="0.574043" stop-color="#EAEAEA"/>
<stop offset="1" stop-color="#E7E7E7"/>
</linearGradient>
<linearGradient id="paint11_linear_5006_2863" x1="299.605" y1="346.119" x2="300.816" y2="307.051" gradientUnits="userSpaceOnUse">
<stop stop-color="#EAEAEA"/>
<stop offset="0.574043" stop-color="#EAEAEA"/>
<stop offset="1" stop-color="#E7E7E7"/>
</linearGradient>
<linearGradient id="paint12_linear_5006_2863" x1="-1.07317e-08" y1="85.5" x2="172.505" y2="84.1814" gradientUnits="userSpaceOnUse">
<stop offset="0.0288462" stop-color="#7080FF"/>
</linearGradient>
<linearGradient id="paint13_linear_5006_2863" x1="187.109" y1="120.508" x2="177.371" y2="115.755" gradientUnits="userSpaceOnUse">
<stop offset="0.548056" stop-color="#7080FF"/>
</linearGradient>
</defs>
</svg>
