<svg width="166" height="138" viewBox="0 0 166 138" fill="none" xmlns="http://www.w3.org/2000/svg">
<path d="M45.2792 2.08452C44.8846 1.43654 45.0874 0.592523 45.7322 0.19935C46.3771 -0.193823 47.2198 0.012738 47.6145 0.660717L46.4469 1.37262L45.2792 2.08452ZM56.3893 43.9405L57.6822 44.3964V44.3964L56.3893 43.9405ZM27.4097 74.096L26.864 72.8353V72.8353L27.4097 74.096ZM3.26615 71.2831L2.05247 71.9132L2.05247 71.9132L3.26615 71.2831ZM7.2679 48.1968L8.35428 49.036V49.036L7.2679 48.1968ZM46.7863 22.7867L46.3321 21.4903V21.4903L46.7863 22.7867ZM96.0382 19.8018L96.4476 18.4938L96.0382 19.8018ZM120.36 55.8214L121.728 55.8849L120.36 55.8214ZM94.7508 117.227L93.7418 116.295V116.295L94.7508 117.227ZM57.1075 135.9L57.0425 134.529V134.529L57.1075 135.9ZM42.6715 121.957L44.0103 122.248L42.6715 121.957ZM77.5747 80.5283L78.3258 81.6786L77.5747 80.5283ZM163.687 59.3228C164.443 59.3403 165.044 59.9688 165.029 60.7265C165.015 61.4842 164.39 62.0843 163.634 62.0668L163.661 60.6948L163.687 59.3228ZM46.4469 1.37262L47.6145 0.660717C51.3191 6.74292 54.7128 15.0426 56.7511 23.0746C58.7715 31.0357 59.5416 39.0449 57.6822 44.3964L56.3893 43.9405L55.0963 43.4847C56.6743 38.943 56.0965 31.6169 54.0979 23.7417C52.1173 15.9373 48.8211 7.89966 45.2792 2.08452L46.4469 1.37262ZM56.3893 43.9405L57.6822 44.3964C53.378 56.7842 44.179 68.35 27.9554 75.3567L27.4097 74.096L26.864 72.8353C42.3606 66.1426 51.034 55.1762 55.0963 43.4847L56.3893 43.9405ZM27.4097 74.096L27.9554 75.3567C25.3983 76.4611 20.4137 78.1798 15.3782 78.3966C10.3576 78.6128 4.86486 77.3277 2.05247 71.9132L3.26615 71.2831L4.47984 70.6529C6.56129 74.6602 10.6619 75.852 15.2503 75.6544C19.8239 75.4575 24.4642 73.8717 26.864 72.8353L27.4097 74.096ZM3.26615 71.2831L2.05247 71.9132C-2.6338 62.8911 1.54328 53.4043 6.18151 47.3576L7.2679 48.1968L8.35428 49.036C3.9165 54.8213 0.553381 63.0936 4.47984 70.6529L3.26615 71.2831ZM7.2679 48.1968L6.18151 47.3576C14.5877 36.3988 29.177 27.4731 46.3321 21.4903L46.7863 22.7867L47.2405 24.083C30.3514 29.973 16.3127 38.6609 8.35428 49.036L7.2679 48.1968ZM46.7863 22.7867L46.3321 21.4903C57.8454 17.4751 76.7831 12.2405 96.4476 18.4938L96.0382 19.8018L95.6288 21.1097C76.8519 15.1387 58.6364 20.1087 47.2405 24.083L46.7863 22.7867ZM96.0382 19.8018L96.4476 18.4938C109.216 22.5542 115.72 29.5015 118.916 36.7528C122.079 43.9276 121.925 51.2386 121.728 55.8849L120.36 55.8214L118.993 55.758C119.188 51.1472 119.297 44.3993 116.413 37.854C113.562 31.3852 107.709 24.9511 95.6288 21.1097L96.0382 19.8018ZM120.36 55.8214L121.728 55.8849C120.774 78.3966 111.856 100.622 95.7598 118.158L94.7508 117.227L93.7418 116.295C109.401 99.2351 118.066 77.6251 118.993 55.758L120.36 55.8214ZM94.7508 117.227L95.7598 118.158C88.7678 125.776 75.7369 136.458 57.1725 137.271L57.1075 135.9L57.0425 134.529C74.5787 133.761 86.9811 123.661 93.7418 116.295L94.7508 117.227ZM57.1075 135.9L57.1725 137.271C49.5133 137.607 45.1824 134.861 42.9815 131.233C40.863 127.741 40.8956 123.715 41.3328 121.665L42.6715 121.957L44.0103 122.248C43.6761 123.816 43.6603 127.079 45.3193 129.814C46.8959 132.412 50.1686 134.83 57.0425 134.529L57.1075 135.9ZM42.6715 121.957L41.3328 121.665C44.9106 104.885 60.2554 90.2145 76.8236 79.3781L77.5747 80.5283L78.3258 81.6786C61.8733 92.4393 47.3488 106.59 44.0103 122.248L42.6715 121.957ZM77.5747 80.5283L76.8236 79.3781C84.5467 74.3268 99.142 69.161 115.256 65.3418C131.406 61.5139 149.293 58.9895 163.687 59.3228L163.661 60.6948L163.634 62.0668C149.551 61.7407 131.91 64.2173 115.895 68.013C99.8435 71.8176 85.6347 76.8982 78.3258 81.6786L77.5747 80.5283Z" fill="#FF8C5D"/>
</svg>
