<svg width="172" height="163" viewBox="0 0 172 163" fill="none" xmlns="http://www.w3.org/2000/svg">
<path d="M69.2485 9.18756C73.6236 20.7365 75.7173 40.3346 71.307 49.1097C65.9398 59.7888 56.6464 69.3421 42.1282 74.2378C37.5905 75.768 24.7632 78.6159 22.017 69.544C19.6005 61.5611 24.1414 53.745 28.89 48.7149C37.4522 39.6452 50.9496 32.8187 66.3189 28.8626C76.6614 26.2004 93.2274 23.1455 108.656 30.4351C128.602 39.8592 125.653 57.1505 123.928 65.6085C119.794 85.8828 109.023 105.22 92.9191 119.7C85.9449 125.971 73.5679 134.391 58.0975 133.536C45.6416 132.848 46.7157 122.732 47.9153 119.481C53.294 104.904 68.1615 92.9912 83.8263 84.5297C98.0885 76.8259 135.901 70.7718 160.022 73.8694" stroke="#FF8C5D" stroke-width="2.74131" stroke-linecap="round"/>
<path d="M170.901 75.8707C171.48 75.3839 171.555 74.5197 171.068 73.9405L163.135 64.5014C162.648 63.9222 161.784 63.8473 161.205 64.3341C160.625 64.8209 160.551 65.6851 161.037 66.2643L168.089 74.6546L159.699 81.7062C159.119 82.193 159.045 83.0572 159.531 83.6364C160.018 84.2156 160.882 84.2906 161.462 83.8037L170.901 75.8707ZM150.986 73.1719L150.867 74.5368L169.901 76.1868L170.019 74.8219L170.138 73.457L151.104 71.807L150.986 73.1719Z" fill="#FF8C5D"/>
</svg>
