<svg width="52" height="283" viewBox="0 0 52 283" fill="none" xmlns="http://www.w3.org/2000/svg">
<path d="M51.6019 276.496C51.944 276.154 51.9437 275.599 51.6014 275.257L46.0219 269.68C45.6795 269.337 45.1246 269.337 44.7826 269.68C44.4405 270.022 44.4407 270.577 44.7831 270.919L49.7426 275.876L44.7874 280.834C44.4453 281.176 44.4456 281.731 44.7879 282.073C45.1303 282.415 45.6852 282.415 46.0273 282.073L51.6019 276.496ZM0.876343 32.8763L-3.89994e-06 32.8771L0.278532 246.107L1.15488 246.106L2.03123 246.106L1.75269 32.8756L0.876343 32.8763ZM30.9636 275.876L30.964 276.753H50.9823L50.982 275.876L50.9816 275H30.9632L30.9636 275.876ZM1.15488 246.106L0.278532 246.107C0.300646 263.037 14.0347 276.753 30.964 276.753L30.9636 275.876L30.9632 275C15.0013 275 2.05208 262.068 2.03123 246.106L1.15488 246.106Z" fill="#6081EF"/>
<path d="M0.891968 43.8763L0.897707 30.6722C0.904859 14.2164 14.2507 0.876348 30.7065 0.876348H49.9107" stroke="#6081EF" stroke-width="1.75269" stroke-linecap="round"/>
</svg>
