<svg width="137" height="36" viewBox="0 0 137 36" fill="none" xmlns="http://www.w3.org/2000/svg">
<path d="M2.0573 27V8.28H5.59331V16.912L12.7173 8.28H17.0333L9.20731 17.51L17.5273 27H13.0553L5.59331 18.472V27H2.0573ZM18.0483 27L23.7683 8.28H29.0463L34.7663 27H31.1263L26.0303 10.49H26.7063L21.6883 27H18.0483ZM21.4803 23.1V19.798H31.3603V23.1H21.4803ZM37.0964 27V8.28H40.6324V16.912L47.7564 8.28H52.0724L44.2464 17.51L52.5664 27H48.0944L40.6324 18.472V27H37.0964ZM58.0446 30.12V23.698C58.608 23.698 59.0846 23.5593 59.4746 23.282C59.8733 22.996 60.1983 22.5973 60.4496 22.086C60.701 21.566 60.9003 20.9593 61.0476 20.266C61.195 19.5727 61.3033 18.8187 61.3726 18.004C61.4593 16.964 61.5373 15.9413 61.6066 14.936C61.676 13.922 61.7453 12.8733 61.8146 11.79C61.884 10.698 61.962 9.51933 62.0486 8.254L74.4766 8.28V23.698H75.9066V30.12H72.3706V27H61.5806V30.12H58.0446ZM63.3226 23.698H70.9406V11.582L65.2726 11.556C65.212 12.414 65.16 13.2027 65.1166 13.922C65.082 14.6413 65.0386 15.3693 64.9866 16.106C64.9346 16.8427 64.8653 17.666 64.7786 18.576C64.692 19.486 64.6053 20.2357 64.5186 20.825C64.432 21.4057 64.2976 21.9127 64.1156 22.346C63.9423 22.7793 63.678 23.23 63.3226 23.698ZM86.7964 27.39C84.9244 27.39 83.3081 26.9827 81.9474 26.168C80.5954 25.3533 79.551 24.2137 78.8144 22.749C78.0864 21.2843 77.7224 19.5813 77.7224 17.64C77.7224 15.6987 78.0864 13.9957 78.8144 12.531C79.551 11.0663 80.5954 9.92667 81.9474 9.112C83.3081 8.29733 84.9244 7.89 86.7964 7.89C88.6684 7.89 90.2804 8.29733 91.6324 9.112C92.993 9.92667 94.0374 11.0663 94.7654 12.531C95.5021 13.9957 95.8704 15.6987 95.8704 17.64C95.8704 19.5813 95.5021 21.2843 94.7654 22.749C94.0374 24.2137 92.993 25.3533 91.6324 26.168C90.2804 26.9827 88.6684 27.39 86.7964 27.39ZM86.7964 24.062C87.9837 24.0793 88.9717 23.8237 89.7604 23.295C90.549 22.7663 91.1384 22.0167 91.5284 21.046C91.9271 20.0753 92.1264 18.94 92.1264 17.64C92.1264 16.34 91.9271 15.2133 91.5284 14.26C91.1384 13.3067 90.549 12.5657 89.7604 12.037C88.9717 11.5083 87.9837 11.2353 86.7964 11.218C85.609 11.2007 84.6211 11.4563 83.8324 11.985C83.0437 12.5137 82.45 13.2633 82.0514 14.234C81.6614 15.2047 81.4664 16.34 81.4664 17.64C81.4664 18.94 81.6614 20.0667 82.0514 21.02C82.45 21.9733 83.0437 22.7143 83.8324 23.243C84.6211 23.7717 85.609 24.0447 86.7964 24.062ZM98.4655 27V8.28H101.638L107.826 20.708L114.014 8.28H117.186V27H113.884V15.82L108.45 27H107.202L101.768 15.82V27H98.4655ZM119.535 27L125.255 8.28H130.533L136.253 27H132.613L127.517 10.49H128.193L123.175 27H119.535ZM122.967 23.1V19.798H132.847V23.1H122.967Z" fill="black"/>
</svg>
