<svg width="135" height="24" viewBox="0 0 135 24" fill="none" xmlns="http://www.w3.org/2000/svg">
<path d="M0.0573047 20V1.28H3.59331V9.912L10.7173 1.28H15.0333L7.20731 10.51L15.5273 20H11.0553L3.59331 11.472V20H0.0573047ZM16.0483 20L21.7683 1.28H27.0463L32.7663 20H29.1263L24.0303 3.49H24.7063L19.6883 20H16.0483ZM19.4803 16.1V12.798H29.3603V16.1H19.4803ZM35.0964 20V1.28H38.6324V9.912L45.7564 1.28H50.0724L42.2464 10.51L50.5664 20H46.0944L38.6324 11.472V20H35.0964ZM56.0446 23.12V16.698C56.608 16.698 57.0846 16.5593 57.4746 16.282C57.8733 15.996 58.1983 15.5973 58.4496 15.086C58.701 14.566 58.9003 13.9593 59.0476 13.266C59.195 12.5727 59.3033 11.8187 59.3726 11.004C59.4593 9.964 59.5373 8.94133 59.6066 7.936C59.676 6.922 59.7453 5.87333 59.8146 4.79C59.884 3.698 59.962 2.51933 60.0486 1.254L72.4766 1.28V16.698H73.9066V23.12H70.3706V20H59.5806V23.12H56.0446ZM61.3226 16.698H68.9406V4.582L63.2726 4.556C63.212 5.414 63.16 6.20267 63.1166 6.922C63.082 7.64133 63.0386 8.36933 62.9866 9.106C62.9346 9.84267 62.8653 10.666 62.7786 11.576C62.692 12.486 62.6053 13.2357 62.5186 13.825C62.432 14.4057 62.2976 14.9127 62.1156 15.346C61.9423 15.7793 61.678 16.23 61.3226 16.698ZM84.7964 20.39C82.9244 20.39 81.3081 19.9827 79.9474 19.168C78.5954 18.3533 77.551 17.2137 76.8144 15.749C76.0864 14.2843 75.7224 12.5813 75.7224 10.64C75.7224 8.69867 76.0864 6.99567 76.8144 5.531C77.551 4.06633 78.5954 2.92667 79.9474 2.112C81.3081 1.29733 82.9244 0.89 84.7964 0.89C86.6684 0.89 88.2804 1.29733 89.6324 2.112C90.993 2.92667 92.0374 4.06633 92.7654 5.531C93.5021 6.99567 93.8704 8.69867 93.8704 10.64C93.8704 12.5813 93.5021 14.2843 92.7654 15.749C92.0374 17.2137 90.993 18.3533 89.6324 19.168C88.2804 19.9827 86.6684 20.39 84.7964 20.39ZM84.7964 17.062C85.9837 17.0793 86.9717 16.8237 87.7604 16.295C88.549 15.7663 89.1384 15.0167 89.5284 14.046C89.9271 13.0753 90.1264 11.94 90.1264 10.64C90.1264 9.34 89.9271 8.21333 89.5284 7.26C89.1384 6.30667 88.549 5.56567 87.7604 5.037C86.9717 4.50833 85.9837 4.23533 84.7964 4.218C83.609 4.20067 82.6211 4.45633 81.8324 4.985C81.0437 5.51367 80.45 6.26333 80.0514 7.234C79.6614 8.20467 79.4664 9.34 79.4664 10.64C79.4664 11.94 79.6614 13.0667 80.0514 14.02C80.45 14.9733 81.0437 15.7143 81.8324 16.243C82.6211 16.7717 83.609 17.0447 84.7964 17.062ZM96.4655 20V1.28H99.6375L105.826 13.708L112.014 1.28H115.186V20H111.884V8.82L106.45 20H105.202L99.7675 8.82V20H96.4655ZM117.535 20L123.255 1.28H128.533L134.253 20H130.613L125.517 3.49H126.193L121.175 20H117.535ZM120.967 16.1V12.798H130.847V16.1H120.967Z" fill="black"/>
</svg>
