<svg width="233" height="26" viewBox="0 0 233 26" fill="none" xmlns="http://www.w3.org/2000/svg">
<path d="M5.37187e-05 19.11V0.389985H3.53605V9.02199L10.6601 0.389985H14.9761L7.15005 9.61999L15.4701 19.11H10.9981L3.53605 10.582V19.11H5.37187e-05ZM15.9911 19.11L21.7111 0.389985H26.9891L32.7091 19.11H29.0691L23.9731 2.59998H24.6491L19.6311 19.11H15.9911ZM19.4231 15.21V11.908H29.3031V15.21H19.4231ZM35.0391 19.11V0.389985H38.5751V9.02199L45.6991 0.389985H50.0151L42.1891 9.61999L50.5091 19.11H46.0371L38.5751 10.582V19.11H35.0391ZM55.9874 22.23V15.808C56.5507 15.808 57.0274 15.6693 57.4174 15.392C57.8161 15.106 58.1411 14.7073 58.3924 14.196C58.6437 13.676 58.8431 13.0693 58.9904 12.376C59.1377 11.6827 59.2461 10.9287 59.3154 10.114C59.4021 9.07398 59.4801 8.05132 59.5494 7.04598C59.6187 6.03198 59.6881 4.98332 59.7574 3.89998C59.8267 2.80798 59.9047 1.62932 59.9914 0.363985L72.4194 0.389985V15.808H73.8494V22.23H70.3134V19.11H59.5234V22.23H55.9874ZM61.2654 15.808H68.8834V3.69198L63.2154 3.66598C63.1547 4.52398 63.1027 5.31265 63.0594 6.03198C63.0247 6.75132 62.9814 7.47932 62.9294 8.21598C62.8774 8.95265 62.8081 9.77599 62.7214 10.686C62.6347 11.596 62.5481 12.3457 62.4614 12.935C62.3747 13.5157 62.2404 14.0227 62.0584 14.456C61.8851 14.8893 61.6207 15.34 61.2654 15.808ZM84.7391 19.5C82.8671 19.5 81.2508 19.0927 79.8901 18.278C78.5381 17.4633 77.4938 16.3237 76.7571 14.859C76.0291 13.3943 75.6651 11.6913 75.6651 9.74998C75.6651 7.80865 76.0291 6.10565 76.7571 4.64098C77.4938 3.17632 78.5381 2.03665 79.8901 1.22198C81.2508 0.407318 82.8671 -1.50204e-05 84.7391 -1.50204e-05C86.6111 -1.50204e-05 88.2231 0.407318 89.5751 1.22198C90.9358 2.03665 91.9801 3.17632 92.7081 4.64098C93.4448 6.10565 93.8131 7.80865 93.8131 9.74998C93.8131 11.6913 93.4448 13.3943 92.7081 14.859C91.9801 16.3237 90.9358 17.4633 89.5751 18.278C88.2231 19.0927 86.6111 19.5 84.7391 19.5ZM84.7391 16.172C85.9265 16.1893 86.9145 15.9337 87.7031 15.405C88.4918 14.8763 89.0811 14.1267 89.4711 13.156C89.8698 12.1853 90.0691 11.05 90.0691 9.74998C90.0691 8.44998 89.8698 7.32332 89.4711 6.36999C89.0811 5.41665 88.4918 4.67565 87.7031 4.14699C86.9145 3.61832 85.9265 3.34532 84.7391 3.32798C83.5518 3.31065 82.5638 3.56632 81.7751 4.09498C80.9865 4.62365 80.3928 5.37332 79.9941 6.34398C79.6041 7.31465 79.4091 8.44998 79.4091 9.74998C79.4091 11.05 79.6041 12.1767 79.9941 13.13C80.3928 14.0833 80.9865 14.8243 81.7751 15.353C82.5638 15.8817 83.5518 16.1547 84.7391 16.172ZM96.4083 19.11V0.389985H99.5803L105.768 12.818L111.956 0.389985H115.128V19.11H111.826V7.92999L106.392 19.11H105.144L99.7103 7.92999V19.11H96.4083ZM117.477 19.11L123.197 0.389985H128.475L134.195 19.11H130.555L125.459 2.59998H126.135L121.117 19.11H117.477ZM120.909 15.21V11.908H130.789V15.21H120.909Z" fill="black"/>
<path d="M140.431 19.11L146.697 0.389985H149.921L156.187 19.11H153.782L147.919 1.74198H148.647L142.836 19.11H140.431ZM143.447 14.729V12.558H153.171V14.729H143.447ZM164.962 19.5C163.644 19.5 162.535 19.175 161.634 18.525C160.732 17.8663 160.048 16.978 159.58 15.86C159.12 14.7333 158.891 13.4723 158.891 12.077C158.891 10.6643 159.12 9.39898 159.58 8.28098C160.048 7.16298 160.732 6.28332 161.634 5.64199C162.544 5.00065 163.657 4.67999 164.975 4.67999C166.275 4.67999 167.393 5.00498 168.329 5.65498C169.273 6.29632 169.997 7.17599 170.5 8.29399C171.002 9.41199 171.254 10.673 171.254 12.077C171.254 13.481 171.002 14.742 170.5 15.86C169.997 16.978 169.273 17.8663 168.329 18.525C167.393 19.175 166.27 19.5 164.962 19.5ZM158.501 25.35V5.06998H160.568V15.405H160.828V25.35H158.501ZM164.676 17.381C165.603 17.381 166.37 17.147 166.977 16.679C167.583 16.211 168.038 15.5783 168.342 14.781C168.645 13.975 168.797 13.0737 168.797 12.077C168.797 11.089 168.645 10.1963 168.342 9.39898C168.047 8.60165 167.588 7.96898 166.964 7.50098C166.348 7.03298 165.564 6.79899 164.611 6.79899C163.701 6.79899 162.947 7.02432 162.349 7.47498C161.751 7.91698 161.304 8.53665 161.01 9.33398C160.715 10.1227 160.568 11.037 160.568 12.077C160.568 13.0997 160.711 14.014 160.997 14.82C161.291 15.6173 161.742 16.2457 162.349 16.705C162.955 17.1557 163.731 17.381 164.676 17.381ZM180.188 19.5C178.81 19.5 177.605 19.1967 176.574 18.59C175.551 17.9747 174.754 17.121 174.182 16.029C173.61 14.9283 173.324 13.6457 173.324 12.181C173.324 10.647 173.605 9.32098 174.169 8.20298C174.732 7.07632 175.516 6.20965 176.522 5.60298C177.536 4.98765 178.723 4.67999 180.084 4.67999C181.496 4.67999 182.697 5.00498 183.685 5.65498C184.681 6.30498 185.427 7.23232 185.921 8.43698C186.423 9.64165 186.64 11.076 186.571 12.74H184.231V11.908C184.205 10.1833 183.854 8.89632 183.178 8.04699C182.502 7.18898 181.496 6.75998 180.162 6.75998C178.732 6.75998 177.644 7.21932 176.899 8.13798C176.153 9.05665 175.781 10.374 175.781 12.09C175.781 13.7453 176.153 15.028 176.899 15.938C177.644 16.848 178.706 17.303 180.084 17.303C181.011 17.303 181.817 17.0907 182.502 16.666C183.186 16.2413 183.724 15.6303 184.114 14.833L186.337 15.6C185.791 16.8393 184.967 17.8013 183.867 18.486C182.775 19.162 181.548 19.5 180.188 19.5ZM175.001 12.74V10.881H185.375V12.74H175.001ZM189.452 19.11V5.06998H191.766V10.985H199.15V5.06998H201.464V19.11H199.15V13.182H191.766V19.11H189.452ZM204.066 22.23V17.199C204.854 17.199 205.418 16.9433 205.756 16.432C206.094 15.912 206.367 15.0583 206.575 13.871C206.713 13.1257 206.826 12.3283 206.913 11.479C206.999 10.6297 207.073 9.68498 207.134 8.64498C207.203 7.59632 207.268 6.40465 207.329 5.06998H217.001V17.199H218.366V22.23H216.156V19.11H206.276V22.23H204.066ZM207.628 17.199H214.687V6.98098H209.422C209.396 7.59632 209.361 8.24198 209.318 8.91798C209.274 9.58532 209.222 10.2527 209.162 10.92C209.11 11.5873 209.045 12.22 208.967 12.818C208.897 13.4073 208.815 13.936 208.72 14.404C208.607 15.054 208.477 15.6043 208.33 16.055C208.182 16.5057 207.948 16.887 207.628 17.199ZM224.966 19.5C223.917 19.5 223.037 19.3093 222.327 18.928C221.625 18.538 221.092 18.0267 220.728 17.394C220.372 16.7613 220.195 16.068 220.195 15.314C220.195 14.5773 220.333 13.9403 220.611 13.403C220.897 12.857 221.295 12.4063 221.807 12.051C222.318 11.687 222.929 11.401 223.64 11.193C224.307 11.011 225.052 10.855 225.876 10.725C226.708 10.5863 227.548 10.4607 228.398 10.348C229.247 10.2353 230.04 10.127 230.777 10.023L229.945 10.504C229.971 9.25598 229.719 8.33298 229.191 7.73498C228.671 7.13698 227.769 6.83798 226.487 6.83798C225.637 6.83798 224.892 7.03298 224.251 7.42298C223.618 7.80432 223.172 8.42832 222.912 9.29498L220.715 8.63198C221.053 7.40132 221.707 6.43498 222.678 5.73298C223.648 5.03099 224.927 4.67999 226.513 4.67999C227.787 4.67999 228.879 4.90965 229.789 5.36898C230.707 5.81965 231.366 6.50432 231.765 7.42298C231.964 7.85632 232.09 8.32865 232.142 8.83999C232.194 9.34265 232.22 9.87132 232.22 10.426V19.11H230.166V15.743L230.647 16.055C230.118 17.1903 229.377 18.0483 228.424 18.629C227.479 19.2097 226.326 19.5 224.966 19.5ZM225.317 17.563C226.149 17.563 226.868 17.4157 227.475 17.121C228.09 16.8177 228.584 16.4233 228.957 15.938C229.329 15.444 229.572 14.9067 229.685 14.326C229.815 13.8927 229.884 13.4117 229.893 12.883C229.91 12.3457 229.919 11.934 229.919 11.648L230.725 11.999C229.971 12.103 229.23 12.2027 228.502 12.298C227.774 12.3933 227.085 12.4973 226.435 12.61C225.785 12.714 225.2 12.8397 224.68 12.987C224.298 13.1083 223.939 13.2643 223.601 13.455C223.271 13.6457 223.003 13.8927 222.795 14.196C222.595 14.4907 222.496 14.859 222.496 15.301C222.496 15.6823 222.591 16.0463 222.782 16.393C222.981 16.7397 223.284 17.0213 223.692 17.238C224.108 17.4547 224.649 17.563 225.317 17.563Z" fill="#F86226"/>
</svg>
