<svg width="24" height="24" viewBox="0 0 24 24" fill="none" xmlns="http://www.w3.org/2000/svg">
<path d="M6 0C5.17498 0 4.5 0.675 4.5 1.5V22.5C4.5 23.325 5.17498 24 6 24H21C21.825 24 22.5 23.325 22.5 22.5V6L16.5 0H6Z" fill="#E2E5E7"/>
<path d="M18 6H22.5L16.5 0V4.5C16.5 5.32502 17.175 6 18 6Z" fill="#B0B7BD"/>
<path d="M22.5 10.5L18 6H22.5V10.5Z" fill="#CAD1D8"/>
<path d="M19.5 19.5C19.5 19.9125 19.1625 20.25 18.75 20.25H2.25C1.8375 20.25 1.5 19.9125 1.5 19.5V12C1.5 11.5875 1.8375 11.25 2.25 11.25H18.75C19.1625 11.25 19.5 11.5875 19.5 12V19.5Z" fill="#F15642"/>
<path d="M4.76953 14.2103C4.76953 14.0123 4.92553 13.7963 5.1768 13.7963H6.56202C7.34202 13.7963 8.04402 14.3183 8.04402 15.3188C8.04402 16.2668 7.34202 16.7948 6.56202 16.7948H5.5608V17.5868C5.5608 17.8508 5.3928 18 5.1768 18C4.9788 18 4.76953 17.8508 4.76953 17.5868V14.2103ZM5.5608 14.5515V16.0455H6.56202C6.96402 16.0455 7.28202 15.6908 7.28202 15.3188C7.28202 14.8995 6.96402 14.5515 6.56202 14.5515H5.5608Z" fill="white"/>
<path d="M9.21771 18C9.01971 18 8.80371 17.892 8.80371 17.6287V14.2222C8.80371 14.007 9.01971 13.8503 9.21771 13.8503H10.591C13.3315 13.8503 13.2715 18 10.645 18H9.21771ZM9.59571 14.5822V17.2687H10.591C12.2102 17.2687 12.2822 14.5822 10.591 14.5822H9.59571Z" fill="white"/>
<path d="M14.2435 14.6302V15.5835H15.7727C15.9887 15.5835 16.2047 15.7995 16.2047 16.0087C16.2047 16.2067 15.9887 16.3687 15.7727 16.3687H14.2435V17.628C14.2435 17.838 14.0942 17.9992 13.8842 17.9992C13.6202 17.9992 13.459 17.838 13.459 17.628V14.2215C13.459 14.0062 13.621 13.8495 13.8842 13.8495H15.9895C16.2535 13.8495 16.4095 14.0062 16.4095 14.2215C16.4095 14.4135 16.2535 14.6295 15.9895 14.6295H14.2435V14.6302Z" fill="white"/>
<path d="M18.75 20.25H4.5V21H18.75C19.1625 21 19.5 20.6625 19.5 20.25V19.5C19.5 19.9125 19.1625 20.25 18.75 20.25Z" fill="#CAD1D8"/>
</svg>
