<svg width="22" height="22" viewBox="0 0 22 22" fill="none" xmlns="http://www.w3.org/2000/svg">
<path d="M0 7.33333H7.33333V0H0V7.33333ZM1.22222 1.22222H6.11111V6.11111H1.22222V1.22222ZM2.75 2.75H4.58333V4.58333H2.75V2.75ZM14.6667 7.33333H22V0H14.6667V7.33333ZM15.8889 1.22222H20.7778V6.11111H15.8889V1.22222ZM17.2601 2.44444H19.4709V4.88889H17.2601V2.44444ZM0 22H7.33333V14.6667H0V22ZM1.22222 15.8889H6.11111V20.7778H1.22222V15.8889ZM2.75 17.1111H4.58333V19.5556H2.75V17.1111ZM20.7778 19.5556H22V22H19.5556V18.3333H20.7778V19.5556ZM20.7778 15.8889H22V17.1111H20.7778V15.8889ZM20.7778 14.6667V15.8889H19.5556V14.6667H20.7778ZM8.55556 17.1111H9.77778V22H8.55556V17.1111ZM3.66667 8.55556V11H1.22222V9.77778H0V8.55556H3.66667ZM8.55556 4.88889H9.77778V6.11111H8.55556V4.88889ZM12.2222 1.22222V3.66667H11V0H13.4444V1.22222H12.2222ZM8.55556 1.22222H9.77778V2.44444H8.55556V1.22222ZM20.7778 11H22V13.4444H19.5556V12.2222H20.7778V11ZM19.5556 8.55556V9.77778H17.1111V12.2222H14.6667V11H15.8889V8.55556H19.5556ZM11 13.4444H9.77778V12.2222H8.55556V11H11V13.4444ZM18.3333 15.8889H19.5556V17.1111H18.3333V15.8889ZM20.7778 9.77778V11H19.5556V9.77778H20.7778ZM9.77778 13.4444V14.6667H8.55556V13.4444H9.77778ZM17.1111 19.5556H18.3333V22H15.8889V19.5556H17.1111ZM13.4444 19.5556H14.6667V20.7778H13.4444V22H11V20.7778H12.2222V19.5556H13.4444ZM13.4444 18.3333V17.1111H15.8889V18.3333H13.4444ZM13.4444 12.2222H14.6667V15.8889H13.4444V17.1111H12.2222V18.3333H11V15.8889H9.77778V14.6667H13.4444V13.4444H12.2222V12.2222H13.4444ZM2.44444 12.2222V13.4444H1.22222V12.2222H2.44444ZM17.1111 17.1111H15.8889V15.8889H17.1111V17.1111ZM18.3333 14.6667H15.8889V13.4444H18.3333V14.6667ZM6.11111 8.55556H7.33333V9.77778H6.11111V11H7.33333V13.4444H6.11111V12.2222H4.88889V13.4444H3.66667V11H4.88889V8.55556H6.11111ZM9.77778 8.55556V6.11111H13.4444V9.77778H11V8.55556H12.2222V7.33333H11V8.55556H9.77778ZM9.77778 3.66667H11V4.88889H9.77778V3.66667ZM8.55556 8.55556H9.77778V9.77778H8.55556V8.55556ZM12.2222 4.88889V3.66667H13.4444V4.88889H12.2222Z" fill="white"/>
</svg>
