<svg width="28" height="26" viewBox="0 0 28 26" fill="none" xmlns="http://www.w3.org/2000/svg">
<g clip-path="url(#clip0_3567_1226)">
<path d="M12.8759 26C19.987 26 25.7518 20.1797 25.7518 13C25.7518 5.8203 19.987 0 12.8759 0C5.76473 0 0 5.8203 0 13C0 20.1797 5.76473 26 12.8759 26Z" fill="url(#paint0_linear_3567_1226)"/>
<path fill-rule="evenodd" clip-rule="evenodd" d="M5.90246 12.1659C9.62466 10.4724 12.1067 9.356 13.3486 8.81659C16.8945 7.27646 17.6313 7.00893 18.1115 7.00009C18.2172 6.99815 18.4533 7.02549 18.6063 7.15511C18.7355 7.26457 18.771 7.41242 18.788 7.5162C18.805 7.61997 18.8262 7.85637 18.8094 8.04108C18.6172 10.1494 17.7858 15.2657 17.3628 17.6271C17.1838 18.6262 16.8314 18.9613 16.4902 18.9941C15.7487 19.0653 15.1857 18.4823 14.4675 17.9908C13.3438 17.2215 12.7089 16.7426 11.6181 15.992C10.3575 15.1245 11.1747 14.6477 11.8931 13.8685C12.0811 13.6646 15.3481 10.5615 15.4113 10.28C15.4192 10.2448 15.4266 10.1136 15.3519 10.0443C15.2772 9.97498 15.1671 9.99868 15.0875 10.0175C14.9748 10.0442 13.1796 11.2833 9.70181 13.7348C9.19224 14.1002 8.73068 14.2783 8.31714 14.2689C7.86125 14.2586 6.98429 13.9998 6.33237 13.7785C5.53276 13.507 4.89724 13.3635 4.95258 12.9026C4.9814 12.6625 5.29803 12.4169 5.90246 12.1659Z" fill="white"/>
</g>
<defs>
<linearGradient id="paint0_linear_3567_1226" x1="12.8759" y1="0" x2="12.8759" y2="25.8072" gradientUnits="userSpaceOnUse">
<stop stop-color="#475361"/>
<stop offset="1" stop-color="#1D1D1D"/>
</linearGradient>
<clipPath id="clip0_3567_1226">
<rect width="27.3728" height="26" rx="13" fill="white"/>
</clipPath>
</defs>
</svg>
