<svg width="28" height="28" viewBox="0 0 28 28" fill="none" xmlns="http://www.w3.org/2000/svg">
<path d="M21 9.33203C21 7.47552 20.2625 5.69504 18.9497 4.38228C17.637 3.06953 15.8565 2.33203 14 2.33203C12.1435 2.33203 10.363 3.06953 9.05025 4.38228C7.7375 5.69504 7 7.47552 7 9.33203C7 17.4987 3.5 19.832 3.5 19.832H24.5C24.5 19.832 21 17.4987 21 9.33203Z" stroke="white" stroke-width="2.91667" stroke-linecap="round" stroke-linejoin="round"/>
<path d="M16.0183 24.5C15.8132 24.8536 15.5188 25.1471 15.1646 25.3511C14.8104 25.5551 14.4088 25.6625 14 25.6625C13.5912 25.6625 13.1896 25.5551 12.8354 25.3511C12.4812 25.1471 12.1868 24.8536 11.9817 24.5" stroke="white" stroke-width="2.91667" stroke-linecap="round" stroke-linejoin="round"/>
</svg>
