<svg xmlns="http://www.w3.org/2000/svg" width="21" height="21" fill="none">
    <g clip-path="url(#a)">
        <path d="M1.6 16.07c0 .319.072.647.222.966.151.319.347.62.604.904.435.478.914.824 1.455 1.045.533.222 1.11.337 1.731.337.905 0 1.873-.212 2.893-.647a15.601 15.601 0 0 0 3.053-1.754 25.505 25.505 0 0 0 2.912-2.482 25.192 25.192 0 0 0 2.476-2.897c.727-1.01 1.313-2.02 1.74-3.022.425-1.01.638-1.976.638-2.898 0-.603-.106-1.179-.32-1.71a4.078 4.078 0 0 0-1.02-1.48c-.568-.559-1.19-.833-1.846-.833a1.67 1.67 0 0 0-.719.16c-.23.105-.435.265-.595.495l-2.059 2.898a3.03 3.03 0 0 0-.354.62c-.08.187-.125.373-.125.541 0 .213.062.425.187.63.115.203.284.416.497.629l.674.7a.474.474 0 0 1 .142.354c0 .07-.009.133-.027.204-.026.07-.053.124-.07.177-.16.293-.435.674-.826 1.134-.4.461-.825.93-1.287 1.4-.479.47-.94.904-1.41 1.303-.462.39-.844.656-1.146.816-.044.017-.097.044-.16.07a.615.615 0 0 1-.221.036.489.489 0 0 1-.364-.15L7.6 12.95a2.722 2.722 0 0 0-.639-.497 1.183 1.183 0 0 0-.63-.186c-.169 0-.346.036-.541.115-.196.08-.4.195-.622.346l-2.937 2.083c-.231.16-.39.345-.488.567a1.815 1.815 0 0 0-.142.691Z" fill="#3757FF" stroke="#3757FF" stroke-width="2.085" stroke-miterlimit="10"/>
    </g>
    <defs>
        <clipPath id="a">
            <path fill="#fff" transform="matrix(-1 0 0 1 20.6 .322)" d="M0 0h20v20H0z"/>
        </clipPath>
    </defs>
</svg>