<svg width="28" height="28" viewBox="0 0 28 28" fill="none" xmlns="http://www.w3.org/2000/svg">
<g clip-path="url(#clip0_3745_2209)">
<path d="M21.3333 5H7.33333C6.04467 5 5 6.04467 5 7.33333V21.3333C5 22.622 6.04467 23.6667 7.33333 23.6667H21.3333C22.622 23.6667 23.6667 22.622 23.6667 21.3333V7.33333C23.6667 6.04467 22.622 5 21.3333 5Z" stroke="white" stroke-width="2.91667" stroke-linecap="round" stroke-linejoin="round"/>
<path d="M17.5 10.5H10.5V17.5H17.5V10.5Z" stroke="white" stroke-width="2.91667" stroke-linecap="round" stroke-linejoin="round"/>
<path d="M10.5 1.16797V4.66797" stroke="white" stroke-width="2.91667" stroke-linecap="round" stroke-linejoin="round"/>
<path d="M17.5 1.16797V4.66797" stroke="white" stroke-width="2.91667" stroke-linecap="round" stroke-linejoin="round"/>
<path d="M10.5 23.332V26.832" stroke="white" stroke-width="2.91667" stroke-linecap="round" stroke-linejoin="round"/>
<path d="M17.5 23.332V26.832" stroke="white" stroke-width="2.91667" stroke-linecap="round" stroke-linejoin="round"/>
<path d="M23.3333 10.5H26.8333" stroke="white" stroke-width="2.91667" stroke-linecap="round" stroke-linejoin="round"/>
<path d="M23.3333 16.332H26.8333" stroke="white" stroke-width="2.91667" stroke-linecap="round" stroke-linejoin="round"/>
<path d="M1.16667 10.5H4.66667" stroke="white" stroke-width="2.91667" stroke-linecap="round" stroke-linejoin="round"/>
<path d="M1.16667 16.332H4.66667" stroke="white" stroke-width="2.91667" stroke-linecap="round" stroke-linejoin="round"/>
</g>
<defs>
<clipPath id="clip0_3745_2209">
<rect width="28" height="28" fill="white"/>
</clipPath>
</defs>
</svg>
