<svg width="28" height="28" viewBox="0 0 28 28" fill="none" xmlns="http://www.w3.org/2000/svg">
<g clip-path="url(#clip0_3947_3525)">
<path d="M20.9993 4.66699H6.99935C5.71068 4.66699 4.66602 5.71166 4.66602 7.00033V21.0003C4.66602 22.289 5.71068 23.3337 6.99935 23.3337H20.9993C22.288 23.3337 23.3327 22.289 23.3327 21.0003V7.00033C23.3327 5.71166 22.288 4.66699 20.9993 4.66699Z" stroke="white" stroke-width="2.5" stroke-linecap="round" stroke-linejoin="round"/>
<path d="M17.5 10.5H10.5V17.5H17.5V10.5Z" stroke="white" stroke-width="2.5" stroke-linecap="round" stroke-linejoin="round"/>
<path d="M10.5 1.16699V4.66699" stroke="white" stroke-width="2.5" stroke-linecap="round" stroke-linejoin="round"/>
<path d="M17.5 1.16699V4.66699" stroke="white" stroke-width="2.5" stroke-linecap="round" stroke-linejoin="round"/>
<path d="M11 23V26.5" stroke="white" stroke-width="2.5" stroke-linecap="round" stroke-linejoin="round"/>
<path d="M17.5 23.333V26.833" stroke="white" stroke-width="2.5" stroke-linecap="round" stroke-linejoin="round"/>
<path d="M23.334 10.5H26.834" stroke="white" stroke-width="2.5" stroke-linecap="round" stroke-linejoin="round"/>
<path d="M23.334 16.333H26.834" stroke="white" stroke-width="2.5" stroke-linecap="round" stroke-linejoin="round"/>
<path d="M1.16602 10.5H4.66602" stroke="white" stroke-width="2.5" stroke-linecap="round" stroke-linejoin="round"/>
<path d="M1.16602 16.333H4.66602" stroke="white" stroke-width="2.5" stroke-linecap="round" stroke-linejoin="round"/>
</g>
<defs>
<clipPath id="clip0_3947_3525">
<rect width="28" height="28" fill="white"/>
</clipPath>
</defs>
</svg>
