<svg width="80" height="80" viewBox="0 0 80 80" fill="none" xmlns="http://www.w3.org/2000/svg">
<path d="M63.3333 10H16.6667C12.9848 10 10 12.9848 10 16.6667V63.3333C10 67.0152 12.9848 70 16.6667 70H63.3333C67.0152 70 70 67.0152 70 63.3333V16.6667C70 12.9848 67.0152 10 63.3333 10Z" stroke="#F6F6F6" stroke-width="6" stroke-linecap="round" stroke-linejoin="round"/>
<path d="M28.334 33.3333C31.0954 33.3333 33.334 31.0947 33.334 28.3333C33.334 25.5719 31.0954 23.3333 28.334 23.3333C25.5726 23.3333 23.334 25.5719 23.334 28.3333C23.334 31.0947 25.5726 33.3333 28.334 33.3333Z" stroke="#F6F6F6" stroke-width="6" stroke-linecap="round" stroke-linejoin="round"/>
<path d="M69.9993 50L53.3327 33.3333L16.666 70" stroke="#F6F6F6" stroke-width="6" stroke-linecap="round" stroke-linejoin="round"/>
</svg>
