<svg width="28" height="28" viewBox="0 0 28 28" fill="none" xmlns="http://www.w3.org/2000/svg">
<path d="M16.3307 2.33398H6.9974C6.37856 2.33398 5.78506 2.57982 5.34748 3.0174C4.9099 3.45499 4.66406 4.04848 4.66406 4.66732V23.334C4.66406 23.9528 4.9099 24.5463 5.34748 24.9839C5.78506 25.4215 6.37856 25.6673 6.9974 25.6673H20.9974C21.6162 25.6673 22.2097 25.4215 22.6473 24.9839C23.0849 24.5463 23.3307 23.9528 23.3307 23.334V9.33398L16.3307 2.33398Z" stroke="black" stroke-width="2" stroke-linecap="round" stroke-linejoin="round"/>
<path d="M16.3359 2.33398V9.33398H23.3359" stroke="black" stroke-width="2" stroke-linecap="round" stroke-linejoin="round"/>
<path d="M18.6693 15.166H9.33594" stroke="black" stroke-width="2" stroke-linecap="round" stroke-linejoin="round"/>
<path d="M18.6693 19.834H9.33594" stroke="black" stroke-width="2" stroke-linecap="round" stroke-linejoin="round"/>
<path d="M11.6693 10.5H10.5026H9.33594" stroke="black" stroke-width="2" stroke-linecap="round" stroke-linejoin="round"/>
</svg>
