<svg width="25" height="25" viewBox="0 0 25 25" fill="none" xmlns="http://www.w3.org/2000/svg">
<path d="M14.5837 2.08325H6.25033C5.69779 2.08325 5.16789 2.30275 4.77719 2.69345C4.38649 3.08415 4.16699 3.61405 4.16699 4.16659V20.8333C4.16699 21.3858 4.38649 21.9157 4.77719 22.3064C5.16789 22.6971 5.69779 22.9166 6.25033 22.9166H18.7503C19.3029 22.9166 19.8328 22.6971 20.2235 22.3064C20.6142 21.9157 20.8337 21.3858 20.8337 20.8333V8.33325L14.5837 2.08325Z" stroke="#7D57DC" stroke-width="2" stroke-linecap="round" stroke-linejoin="round"/>
<path d="M14.583 2.08325V8.33325H20.833" stroke="#7D57DC" stroke-width="2" stroke-linecap="round" stroke-linejoin="round"/>
<path d="M16.6663 13.5417H8.33301" stroke="#7D57DC" stroke-width="2" stroke-linecap="round" stroke-linejoin="round"/>
<path d="M16.6663 17.7083H8.33301" stroke="#7D57DC" stroke-width="2" stroke-linecap="round" stroke-linejoin="round"/>
<path d="M10.4163 9.375H9.37467H8.33301" stroke="#7D57DC" stroke-width="2" stroke-linecap="round" stroke-linejoin="round"/>
</svg>
