<svg width="28" height="28" viewBox="0 0 28 28" fill="none" xmlns="http://www.w3.org/2000/svg">
<path d="M24.4993 2.3335L22.166 4.66683M22.166 4.66683L25.666 8.16683L21.5827 12.2502L18.0827 8.75016M22.166 4.66683L18.0827 8.75016M13.2877 13.5452C13.8901 14.1395 14.3689 14.8472 14.6967 15.6274C15.0245 16.4076 15.1947 17.245 15.1975 18.0912C15.2004 18.9375 15.0358 19.776 14.7132 20.5583C14.3907 21.3407 13.9166 22.0516 13.3182 22.65C12.7198 23.2484 12.0089 23.7225 11.2265 24.0451C10.4441 24.3676 9.60568 24.5322 8.75941 24.5294C7.91315 24.5265 7.07581 24.3563 6.2956 24.0285C5.51539 23.7008 4.80772 23.2219 4.21334 22.6195C3.0445 21.4093 2.39773 19.7884 2.41235 18.106C2.42697 16.4236 3.10181 14.8142 4.29151 13.6245C5.48121 12.4348 7.09059 11.76 8.77302 11.7453C10.4554 11.7307 12.0763 12.3775 13.2865 13.5463L13.2877 13.5452ZM13.2877 13.5452L18.0827 8.75016" stroke="white" stroke-width="2.5" stroke-linecap="round" stroke-linejoin="round"/>
</svg>
