<svg width="26" height="27" viewBox="0 0 26 27" fill="none" xmlns="http://www.w3.org/2000/svg">
<path d="M7.29166 11.957L11.9583 1.45703C12.8866 1.45703 13.7768 1.82578 14.4332 2.48216C15.0896 3.13853 15.4583 4.02877 15.4583 4.95703V9.6237H22.0617C22.3999 9.61987 22.7349 9.68962 23.0435 9.82812C23.3521 9.96662 23.6269 10.1706 23.8488 10.4258C24.0708 10.681 24.2346 10.9815 24.3289 11.3063C24.4232 11.6312 24.4458 11.9726 24.395 12.307L22.785 22.807C22.7006 23.3634 22.418 23.8706 21.9892 24.235C21.5604 24.5995 21.0144 24.7967 20.4517 24.7904H7.29166M7.29166 11.957V24.7904M7.29166 11.957H3.79166C3.17282 11.957 2.57933 12.2029 2.14175 12.6404C1.70416 13.078 1.45833 13.6715 1.45833 14.2904V22.457C1.45833 23.0759 1.70416 23.6694 2.14175 24.1069C2.57933 24.5445 3.17282 24.7904 3.79166 24.7904H7.29166" stroke="white" stroke-width="2.91667" stroke-linecap="round" stroke-linejoin="round"/>
</svg>
