<svg width="24" height="24" viewBox="0 0 24 24" fill="none" xmlns="http://www.w3.org/2000/svg">
<path d="M2.23915 8.35413C4.17989 -0.124568 16.8193 -0.114777 18.7502 8.36392C19.8832 13.3376 16.9496 18.1107 14.2207 20.715C13.2603 21.6363 11.8493 22.9719 10.6085 22.9995C9.29103 23.0288 7.96313 21.6932 6.93831 20.715C4.2193 18.1107 1.10623 13.3278 2.23915 8.35413Z" stroke="#7D57DC" stroke-width="2"/>
<path d="M10.5 14C12.433 14 14 12.433 14 10.5C14 8.567 12.433 7 10.5 7C8.567 7 7 8.567 7 10.5C7 12.433 8.567 14 10.5 14Z" stroke="#7D57DC" stroke-width="2"/>
</svg>
