<svg width="60" height="60" viewBox="0 0 60 60" fill="none" xmlns="http://www.w3.org/2000/svg">
<rect width="60" height="60" rx="13" fill="#4F46E5"/>
<path d="M16.8264 25.762V40.2695C16.8264 43.4344 19.3921 46 22.5569 46H38.6024C41.7673 46 44.333 43.4344 44.333 40.2695V25.762C44.333 24.0612 43.5775 22.4484 42.271 21.3596L33.5146 14.0626C31.8145 12.6458 29.3449 12.6458 27.6448 14.0626L18.8883 21.3596C17.5818 22.4484 16.8264 24.0612 16.8264 25.762Z" fill="white" stroke="white" stroke-width="2"/>
<path fill-rule="evenodd" clip-rule="evenodd" d="M23.5971 34.8073C24.0811 34.1159 25.034 33.9477 25.7253 34.4317C28.6399 36.4719 32.5192 36.4719 35.4338 34.4317C36.1252 33.9477 37.078 34.1159 37.562 34.8073C38.046 35.4987 37.8778 36.4515 37.1864 36.9355C33.2195 39.7124 27.9396 39.7124 23.9727 36.9355C23.2813 36.4515 23.1132 35.4987 23.5971 34.8073Z" fill="#4F46E5"/>
</svg>
