<svg width="30" height="30" viewBox="0 0 30 30" fill="none" xmlns="http://www.w3.org/2000/svg">
<g clip-path="url(#clip0_3458_516)">
<path d="M1.25 1.25L28.75 28.75" stroke="black" stroke-width="2" stroke-linecap="round" stroke-linejoin="round"/>
<path d="M20.8999 13.825C21.9238 14.3246 22.8812 14.9503 23.7499 15.6875" stroke="black" stroke-width="2" stroke-linecap="round" stroke-linejoin="round"/>
<path d="M6.25 15.6875C8.1026 14.1385 10.3323 13.1077 12.7125 12.7" stroke="black" stroke-width="2" stroke-linecap="round" stroke-linejoin="round"/>
<path d="M13.3875 6.31254C16.0655 6.09675 18.7595 6.42275 21.3088 7.27107C23.858 8.11938 26.2102 9.47264 28.225 11.25" stroke="black" stroke-width="2" stroke-linecap="round" stroke-linejoin="round"/>
<path d="M1.7749 11.25C3.50886 9.71734 5.49702 8.49906 7.6499 7.65002" stroke="black" stroke-width="2" stroke-linecap="round" stroke-linejoin="round"/>
<path d="M10.6626 20.1375C11.9316 19.236 13.4497 18.7516 15.0063 18.7516C16.563 18.7516 18.0811 19.236 19.3501 20.1375" stroke="black" stroke-width="2" stroke-linecap="round" stroke-linejoin="round"/>
<path d="M15 25H15.0121" stroke="black" stroke-width="2" stroke-linecap="round" stroke-linejoin="round"/>
</g>
<defs>
<clipPath id="clip0_3458_516">
<rect width="30" height="30" fill="white"/>
</clipPath>
</defs>
</svg>
